<svg xmlns="http://www.w3.org/2000/svg" xmlns:xlink="http://www.w3.org/1999/xlink" width="1133" zoomAndPan="magnify" viewBox="0 0 849.75 899.99999" height="1200" preserveAspectRatio="xMidYMid meet" version="1.2"><defs><clipPath id="e195f8135b"><path d="M 124 476 L 711 476 L 711 899.867188 L 124 899.867188 Z M 124 476 "/></clipPath><clipPath id="f8653b97f6"><path d="M 191 0.132812 L 849 0.132812 L 849 370 L 191 370 Z M 191 0.132812 "/></clipPath><clipPath id="a18315526a"><path d="M 556 400 L 602.917969 400 L 602.917969 410 L 556 410 Z M 556 400 "/></clipPath><clipPath id="cc26620bc3"><path d="M 307.503906 400 L 355 400 L 355 410 L 307.503906 410 Z M 307.503906 400 "/></clipPath><clipPath id="5e6215765e"><path d="M 403 507 L 505 507 L 505 586.539062 L 403 586.539062 Z M 403 507 "/></clipPath></defs><g id="a99c7ca1f6"><path style=" stroke:none;fill-rule:evenodd;fill:#009f91;fill-opacity:1;" d="M 805.351562 726.035156 C 821.769531 704.898438 836.304688 682.246094 848.761719 658.464844 L 727.964844 537.671875 C 717.773438 527.480469 700.789062 527.480469 690.59375 537.671875 L 526.390625 701.875 C 512.421875 714.144531 496 722.636719 478.449219 727.167969 C 578.480469 801.910156 699.65625 780.960938 805.351562 726.035156 "/><g clip-rule="nonzero" clip-path="url(#e195f8135b)"><path style=" stroke:none;fill-rule:evenodd;fill:#009f91;fill-opacity:1;" d="M 173.0625 476.894531 C 151.167969 506.152344 135.882812 538.992188 128.898438 575.796875 C 117.007812 638.082031 130.03125 702.632812 153.8125 760.574219 C 159.851562 775.484375 166.835938 790.207031 174.382812 804.550781 C 253.277344 866.269531 349.914062 899.867188 450.136719 899.867188 L 451.269531 899.867188 C 544.695312 899.867188 634.917969 871.179688 710.222656 817.953125 C 613.023438 840.792969 516.195312 827.203125 433.90625 759.066406 L 433.148438 758.5 C 425.410156 752.082031 418.238281 745.289062 411.066406 738.304688 L 202.882812 529.742188 C 188.164062 515.023438 177.96875 496.714844 173.0625 476.894531 "/></g><path style=" stroke:none;fill-rule:evenodd;fill:#009f91;fill-opacity:1;" d="M 422.015625 171.886719 C 322.359375 98.089844 200.996094 118.851562 94.359375 174.90625 C 33.207031 253.800781 0.363281 350.0625 0.363281 449.90625 C 0.363281 543.144531 28.863281 632.984375 82.277344 708.671875 C 71.332031 661.863281 68.3125 613.546875 77.558594 565.792969 C 89.074219 505.394531 118.707031 453.304688 162.117188 409.890625 L 370.867188 201.144531 C 385.019531 186.988281 402.761719 176.984375 422.015625 171.886719 "/><g clip-rule="nonzero" clip-path="url(#f8653b97f6)"><path style=" stroke:none;fill-rule:evenodd;fill:#009f91;fill-opacity:1;" d="M 848.761719 241.34375 C 771.1875 93.183594 617.929688 0.132812 450.136719 0.132812 C 383.699219 0.132812 318.207031 14.664062 257.996094 43.164062 C 234.59375 54.300781 212.320312 67.324219 191.183594 82.234375 C 299.710938 56.753906 405.214844 76.949219 489.960938 161.882812 L 690.40625 362.328125 C 700.597656 372.519531 717.585938 372.519531 727.777344 362.328125 Z M 848.761719 241.34375 "/></g><path style=" stroke:none;fill-rule:nonzero;fill:#009f91;fill-opacity:1;" d="M 537.152344 345.84375 C 536.230469 343.542969 537.152344 340.78125 539.453125 339.859375 L 566.613281 326.511719 C 568.914062 325.589844 571.675781 326.511719 572.597656 328.8125 C 573.519531 331.113281 572.597656 333.875 570.296875 334.796875 L 543.136719 348.144531 C 541.292969 349.066406 538.53125 348.144531 537.152344 345.84375 Z M 537.152344 345.84375 "/><g clip-rule="nonzero" clip-path="url(#a18315526a)"><path style=" stroke:none;fill-rule:nonzero;fill:#009f91;fill-opacity:1;" d="M 597.914062 409.371094 L 560.628906 409.371094 C 557.867188 409.371094 556.023438 407.527344 556.023438 404.765625 C 556.023438 402.003906 557.867188 400.164062 560.628906 400.164062 L 597.914062 400.164062 C 600.675781 400.164062 602.519531 402.003906 602.519531 404.765625 C 602.519531 407.527344 600.675781 409.371094 597.914062 409.371094 Z M 597.914062 409.371094 "/></g><path style=" stroke:none;fill-rule:nonzero;fill:#009f91;fill-opacity:1;" d="M 566.613281 483.484375 L 539.453125 470.132812 C 537.152344 469.214844 536.230469 466.453125 537.152344 464.148438 C 538.070312 461.847656 540.835938 460.925781 543.136719 461.847656 L 570.296875 475.199219 C 572.597656 476.117188 573.519531 478.878906 572.597656 481.183594 C 571.675781 483.484375 568.914062 484.40625 566.613281 483.484375 Z M 566.613281 483.484375 "/><path style=" stroke:none;fill-rule:nonzero;fill:#009f91;fill-opacity:1;" d="M 366.828125 347.683594 L 339.667969 334.796875 C 337.828125 333.414062 336.445312 330.652344 337.828125 328.351562 C 338.746094 326.050781 341.507812 325.128906 343.8125 326.511719 L 370.972656 339.859375 C 373.273438 340.78125 374.191406 343.542969 373.273438 345.84375 C 371.890625 348.144531 369.128906 349.066406 366.828125 347.683594 Z M 366.828125 347.683594 "/><g clip-rule="nonzero" clip-path="url(#cc26620bc3)"><path style=" stroke:none;fill-rule:nonzero;fill:#009f91;fill-opacity:1;" d="M 349.796875 409.371094 L 312.507812 409.371094 C 309.746094 409.371094 307.90625 407.527344 307.90625 404.765625 C 307.90625 402.003906 309.746094 400.164062 312.507812 400.164062 L 349.796875 400.164062 C 352.558594 400.164062 354.398438 402.003906 354.398438 404.765625 C 354.398438 407.527344 352.558594 409.371094 349.796875 409.371094 Z M 349.796875 409.371094 "/></g><path style=" stroke:none;fill-rule:nonzero;fill:#009f91;fill-opacity:1;" d="M 337.828125 481.183594 C 336.90625 478.878906 337.828125 476.117188 340.128906 475.199219 L 367.289062 461.847656 C 369.589844 460.925781 372.351562 461.847656 373.273438 464.148438 C 374.191406 466.453125 373.273438 469.214844 370.972656 470.132812 L 343.8125 483.484375 C 341.507812 484.40625 338.746094 483.484375 337.828125 481.183594 Z M 337.828125 481.183594 "/><g clip-rule="nonzero" clip-path="url(#5e6215765e)"><path style=" stroke:none;fill-rule:nonzero;fill:#009f91;fill-opacity:1;" d="M 488.816406 535.042969 L 488.816406 539.183594 L 489.277344 539.183594 C 491.578125 539.183594 493.878906 541.484375 493.878906 543.789062 C 493.878906 546.550781 491.578125 548.390625 489.277344 548.390625 L 488.816406 548.390625 C 488.816406 557.136719 482.832031 564.503906 475.007812 566.804688 C 474.085938 577.851562 464.878906 586.136719 453.832031 586.136719 C 442.78125 586.136719 433.578125 577.390625 432.65625 566.804688 C 424.828125 564.503906 419.304688 557.136719 418.84375 548.390625 L 418.386719 548.390625 C 416.082031 548.390625 413.78125 546.550781 413.78125 543.789062 C 413.78125 541.484375 416.082031 539.183594 418.386719 539.183594 L 418.84375 539.183594 L 418.84375 535.042969 L 417.003906 535.042969 C 409.179688 535.042969 403.195312 529.058594 403.195312 521.230469 C 403.195312 513.40625 409.179688 507.421875 417.003906 507.421875 L 491.117188 507.421875 C 498.484375 507.421875 504.929688 513.40625 504.929688 521.230469 C 504.929688 529.058594 498.484375 535.042969 491.117188 535.042969 Z M 488.816406 535.042969 "/></g><path style=" stroke:none;fill-rule:nonzero;fill:#009f91;fill-opacity:1;" d="M 467.179688 419.957031 C 472.246094 419.957031 476.386719 415.816406 476.386719 410.75 C 476.386719 405.6875 472.246094 401.542969 467.179688 401.542969 C 462.578125 401.542969 458.894531 404.765625 457.972656 409.371094 C 457.972656 409.832031 457.972656 410.289062 457.972656 411.210938 L 457.972656 413.511719 C 459.355469 416.734375 463.039062 419.957031 467.179688 419.957031 Z M 467.179688 419.957031 "/><path style=" stroke:none;fill-rule:nonzero;fill:#009f91;fill-opacity:1;" d="M 513.214844 462.308594 C 503.085938 472.894531 497.101562 485.785156 495.722656 499.136719 C 494.339844 498.675781 492.5 498.675781 490.65625 498.675781 L 458.433594 498.675781 L 458.433594 426.863281 C 461.195312 428.242188 463.957031 429.164062 467.640625 429.164062 C 477.769531 429.164062 486.054688 420.878906 486.054688 410.75 C 486.054688 400.625 477.769531 392.335938 467.640625 392.335938 C 462.117188 392.335938 457.054688 394.640625 453.832031 398.320312 C 450.609375 394.640625 445.546875 392.335938 440.019531 392.335938 C 429.894531 392.335938 421.609375 400.625 421.609375 410.75 C 421.609375 420.878906 429.894531 429.164062 440.019531 429.164062 C 443.242188 429.164062 446.464844 428.242188 449.226562 426.402344 L 449.226562 498.214844 L 417.003906 498.214844 C 415.164062 498.214844 413.320312 498.214844 411.480469 499.136719 C 410.558594 485.324219 404.574219 472.894531 394.90625 463.230469 C 340.589844 408.910156 382.941406 313.621094 462.578125 321.90625 C 529.324219 329.273438 562.007812 411.210938 513.214844 462.308594 Z M 513.214844 462.308594 "/><path style=" stroke:none;fill-rule:nonzero;fill:#009f91;fill-opacity:1;" d="M 440.019531 401.085938 C 434.957031 401.085938 430.8125 405.226562 430.8125 410.289062 C 430.8125 415.355469 434.957031 419.496094 440.019531 419.496094 C 444.625 419.496094 448.308594 416.273438 449.226562 411.671875 C 449.226562 411.210938 449.226562 410.75 449.226562 409.832031 C 449.226562 408.910156 449.226562 408.449219 449.226562 407.988281 C 448.308594 404.304688 444.625 401.085938 440.019531 401.085938 Z M 440.019531 401.085938 "/></g></svg>