<svg xmlns="http://www.w3.org/2000/svg" xmlns:xlink="http://www.w3.org/1999/xlink" width="500" zoomAndPan="magnify" viewBox="0 0 375 374.999991" height="500" preserveAspectRatio="xMidYMid meet" version="1.2"><defs><clipPath id="49f5b177ad"><path d="M 37.5 233 L 65 233 L 65 250 L 37.5 250 Z M 37.5 233 "/></clipPath><clipPath id="f34820e0f9"><path d="M 37.5 232 L 65 232 L 65 249 L 37.5 249 Z M 37.5 232 "/></clipPath><clipPath id="56813b1e7e"><path d="M 310 233 L 337.476562 233 L 337.476562 250 L 310 250 Z M 310 233 "/></clipPath><clipPath id="a5458ca420"><path d="M 310 232 L 337.476562 232 L 337.476562 248.738281 L 310 248.738281 Z M 310 232 "/></clipPath><clipPath id="ec822057a4"><path d="M 162.308594 351.390625 L 186 351.390625 L 186 374.976562 L 162.308594 374.976562 Z M 162.308594 351.390625 "/></clipPath><clipPath id="b11f789f20"><path d="M 189.160156 351.390625 L 212.847656 351.390625 L 212.847656 374.976562 L 189.160156 374.976562 Z M 189.160156 351.390625 "/></clipPath></defs><g id="6765a0bdbd"><path style=" stroke:none;fill-rule:evenodd;fill:#ffffff;fill-opacity:1;" d="M 250.972656 51.8125 C 250.46875 51.8125 249.980469 51.871094 249.511719 51.96875 L 249.511719 41.910156 L 252.429688 41.253906 L 252.429688 51.96875 C 251.953125 51.867188 251.460938 51.8125 250.972656 51.8125 "/><path style=" stroke:none;fill-rule:evenodd;fill:#edc032;fill-opacity:1;" d="M 250.972656 50.636719 C 250.46875 50.636719 249.980469 50.6875 249.511719 50.789062 L 249.511719 40.734375 L 252.429688 40.074219 L 252.429688 50.789062 C 251.953125 50.6875 251.460938 50.636719 250.972656 50.636719 "/><path style=" stroke:none;fill-rule:evenodd;fill:#ffffff;fill-opacity:1;" d="M 250.972656 63.867188 C 248.136719 63.867188 245.839844 61.570312 245.839844 58.734375 C 245.839844 55.902344 248.136719 53.601562 250.972656 53.601562 C 253.804688 53.601562 256.101562 55.902344 256.101562 58.734375 C 256.101562 61.570312 253.804688 63.867188 250.972656 63.867188 "/><path style=" stroke:none;fill-rule:evenodd;fill:#edc032;fill-opacity:1;" d="M 250.972656 62.691406 C 248.136719 62.691406 245.839844 60.390625 245.839844 57.558594 C 245.839844 54.722656 248.136719 52.425781 250.972656 52.425781 C 253.804688 52.425781 256.101562 54.722656 256.101562 57.558594 C 256.101562 60.390625 253.804688 62.691406 250.972656 62.691406 "/><path style=" stroke:none;fill-rule:evenodd;fill:#ffffff;fill-opacity:1;" d="M 253.058594 106.96875 C 249.980469 107.59375 246.746094 106.777344 243.3125 104.199219 L 248.578125 66.410156 C 249.324219 66.683594 250.121094 66.835938 250.972656 66.835938 C 251.820312 66.835938 252.652344 66.679688 253.410156 66.390625 L 258.632812 104.199219 C 257.710938 104.925781 256.785156 105.527344 255.839844 105.992188 L 254.789062 99.414062 L 252.347656 84.082031 L 252.824219 99.414062 L 253.058594 106.96875 "/><path style=" stroke:none;fill-rule:evenodd;fill:#edc032;fill-opacity:1;" d="M 253.058594 105.789062 C 249.980469 106.417969 246.746094 105.597656 243.3125 103.019531 L 248.578125 65.230469 C 249.324219 65.507812 250.121094 65.65625 250.972656 65.65625 C 251.820312 65.65625 252.652344 65.5 253.410156 65.214844 L 258.632812 103.019531 C 257.710938 103.75 256.785156 104.351562 255.839844 104.816406 L 254.789062 98.234375 L 252.347656 82.902344 L 252.824219 98.234375 L 253.058594 105.789062 "/><path style=" stroke:none;fill-rule:evenodd;fill:#ffffff;fill-opacity:1;" d="M 284.78125 26.820312 L 187.78125 0.0429688 C 187.601562 -0.0117188 187.429688 -0.0117188 187.246094 0.0429688 L 90.246094 26.820312 C 89.835938 26.929688 89.566406 27.253906 89.566406 27.632812 C 89.566406 28.015625 89.835938 28.335938 90.246094 28.449219 L 187.246094 55.226562 C 187.429688 55.28125 187.601562 55.28125 187.78125 55.226562 L 247.804688 37.984375 L 188.609375 20.960938 C 186.757812 20.347656 187.558594 18.363281 189.4375 18.777344 L 253.03125 36.566406 L 284.78125 28.449219 C 285.191406 28.335938 285.460938 28.015625 285.460938 27.632812 C 285.460938 27.253906 285.191406 26.929688 284.78125 26.820312 "/><path style=" stroke:none;fill-rule:evenodd;fill:#ffffff;fill-opacity:1;" d="M 145.382812 81.335938 C 141.671875 78.738281 137.058594 75.480469 134.613281 72.105469 L 138.570312 45.070312 L 148.921875 47.96875 Z M 154.371094 86.988281 C 153.625 86.65625 152.882812 86.3125 152.160156 85.945312 C 152.03125 85.878906 151.898438 85.816406 151.769531 85.746094 L 155.011719 49.839844 L 156.929688 50.394531 Z M 236.453125 45.210938 L 240.640625 72.289062 C 237.019531 77.476562 229.59375 82.84375 223.207031 86.042969 C 212.320312 91.5 199.199219 93.277344 187.046875 97.535156 C 177.304688 93.726562 166.734375 91.890625 157.285156 88.207031 L 159.246094 51.066406 L 185.832031 58.777344 C 187.078125 59.144531 188.394531 59.148438 189.640625 58.777344 L 236.453125 45.210938 "/><path style=" stroke:none;fill-rule:nonzero;fill:#ffffff;fill-opacity:1;" d="M 136.039062 303.179688 C 91.980469 301.859375 57.367188 259.019531 58.597656 207.125 C 59.332031 176.023438 72.785156 148.695312 92.933594 131.886719 C 74.035156 148.414062 61.488281 174.558594 60.785156 204.238281 C 59.585938 254.882812 93.289062 296.714844 136.246094 298.1875 L 136.039062 303.179688 "/><path style=" stroke:none;fill-rule:nonzero;fill:#ffffff;fill-opacity:1;" d="M 80.210938 269.863281 C 80.210938 269.863281 69.078125 247.386719 83.335938 229.253906 C 83.335938 229.253906 96.269531 250.160156 80.210938 269.863281 "/><path style=" stroke:none;fill-rule:nonzero;fill:#ffffff;fill-opacity:1;" d="M 98.183594 283.75 C 98.183594 283.75 87.046875 261.273438 101.3125 243.144531 C 101.3125 243.144531 114.246094 264.046875 98.183594 283.75 "/><path style=" stroke:none;fill-rule:nonzero;fill:#ffffff;fill-opacity:1;" d="M 115.855469 291.21875 C 115.855469 291.21875 102.671875 278.433594 115.292969 268.476562 C 115.292969 268.476562 130.128906 280.410156 115.855469 291.21875 "/><path style=" stroke:none;fill-rule:nonzero;fill:#ffffff;fill-opacity:1;" d="M 75.042969 271.515625 C 75.042969 271.515625 53.984375 279.253906 41.691406 258.976562 C 41.691406 258.976562 61.792969 248.828125 75.042969 271.515625 "/><path style=" stroke:none;fill-rule:nonzero;fill:#ffffff;fill-opacity:1;" d="M 93.320312 289.878906 C 93.320312 289.878906 72.335938 303.234375 58.082031 286.546875 C 58.082031 286.546875 77.894531 271.074219 93.320312 289.878906 "/><path style=" stroke:none;fill-rule:nonzero;fill:#ffffff;fill-opacity:1;" d="M 117.003906 303.605469 C 117.003906 303.605469 97.445312 319.667969 80.5625 305.058594 C 80.5625 305.058594 98.628906 287.054688 117.003906 303.605469 "/><g clip-rule="nonzero" clip-path="url(#49f5b177ad)"><path style=" stroke:none;fill-rule:nonzero;fill:#ffffff;fill-opacity:1;" d="M 64.5 249.683594 C 64.5 249.683594 45.371094 253.304688 37.546875 234.117188 C 37.546875 234.117188 56.179688 228.296875 64.5 249.683594 "/></g><path style=" stroke:none;fill-rule:nonzero;fill:#ffffff;fill-opacity:1;" d="M 59.324219 229.246094 C 59.324219 229.246094 40.820312 222.859375 40.820312 201.492188 C 40.820312 201.492188 59.683594 205.636719 59.324219 229.246094 "/><path style=" stroke:none;fill-rule:nonzero;fill:#ffffff;fill-opacity:1;" d="M 60.097656 202.210938 C 60.097656 202.210938 44.164062 194.386719 45.945312 175.335938 C 45.945312 175.335938 62.382812 181.199219 60.097656 202.210938 "/><path style=" stroke:none;fill-rule:nonzero;fill:#ffffff;fill-opacity:1;" d="M 61.585938 180.007812 C 61.585938 180.007812 51.058594 163.953125 60.5625 148.285156 C 60.5625 148.285156 72.347656 162.910156 61.585938 180.007812 "/><path style=" stroke:none;fill-rule:nonzero;fill:#ffffff;fill-opacity:1;" d="M 72.257812 154.871094 C 72.257812 154.871094 63.617188 141.695312 71.421875 128.839844 C 71.421875 128.839844 81.089844 140.84375 72.257812 154.871094 "/><path style=" stroke:none;fill-rule:nonzero;fill:#ffffff;fill-opacity:1;" d="M 82.324219 136.601562 C 82.324219 136.601562 79.394531 122.035156 89.738281 115.667969 C 89.738281 115.667969 93.875 129.816406 82.324219 136.601562 "/><path style=" stroke:none;fill-rule:nonzero;fill:#ffffff;fill-opacity:1;" d="M 65.851562 245.511719 C 65.851562 245.511719 61.011719 222.753906 77.152344 211.199219 C 77.152344 211.199219 83.878906 233.113281 65.851562 245.511719 "/><path style=" stroke:none;fill-rule:nonzero;fill:#ffffff;fill-opacity:1;" d="M 61.328125 216.617188 C 61.328125 216.617188 61.605469 195.667969 77.710938 190.023438 C 77.710938 190.023438 79.21875 210.753906 61.328125 216.617188 "/><path style=" stroke:none;fill-rule:nonzero;fill:#ffffff;fill-opacity:1;" d="M 60.394531 190.160156 C 60.394531 190.160156 65.550781 171.667969 81.066406 171.890625 C 81.066406 171.890625 77.527344 190.757812 60.394531 190.160156 "/><path style=" stroke:none;fill-rule:nonzero;fill:#ffffff;fill-opacity:1;" d="M 68.921875 167.382812 C 68.921875 167.382812 76.03125 150.523438 90.816406 153.265625 C 90.816406 153.265625 85.203125 170.757812 68.921875 167.382812 "/><path style=" stroke:none;fill-rule:nonzero;fill:#ffffff;fill-opacity:1;" d="M 82.902344 144.625 C 82.902344 144.625 91.589844 131.449219 103.964844 136.902344 C 103.964844 136.902344 96.476562 150.933594 82.902344 144.625 "/><path style=" stroke:none;fill-rule:nonzero;fill:#edc032;fill-opacity:1;" d="M 95.066406 129.585938 C 95.066406 129.585938 102.382812 110.121094 117.300781 114.46875 C 117.300781 114.46875 111.484375 134.785156 95.066406 129.585938 "/><path style=" stroke:none;fill-rule:nonzero;fill:#edc032;fill-opacity:1;" d="M 80.5625 303.785156 C 97.445312 318.394531 117.003906 302.332031 117.003906 302.332031 C 98.628906 285.78125 80.5625 303.785156 80.5625 303.785156 "/><path style=" stroke:none;fill-rule:nonzero;fill:#edc032;fill-opacity:1;" d="M 81.15625 267.359375 C 95.71875 248.023438 83.335938 227.984375 83.335938 227.984375 C 73.277344 240.773438 75.855469 255.71875 78.246094 263.414062 C 73.949219 257.234375 70.335938 250.378906 67.527344 243.003906 C 83.449219 230.441406 77.152344 209.925781 77.152344 209.925781 C 67.214844 217.039062 65.234375 228.398438 65.175781 236.082031 C 62.082031 225.761719 60.511719 214.597656 60.785156 202.960938 C 60.898438 198.167969 61.324219 193.464844 62.039062 188.882812 C 77.75 188.265625 81.066406 170.617188 81.066406 170.617188 C 71.832031 170.484375 66.265625 176.980469 63.277344 182.261719 C 67.894531 161.273438 78.578125 143.167969 92.933594 130.613281 C 80.621094 140.886719 70.8125 155.089844 64.875 171.683594 C 69.242188 157.804688 60.5625 147.011719 60.5625 147.011719 C 51.058594 162.679688 61.585938 178.734375 61.585938 178.734375 C 62.734375 176.902344 63.617188 175.101562 64.292969 173.34375 C 62.3125 179.191406 60.804688 185.316406 59.835938 191.664062 C 57.355469 178.140625 45.945312 174.0625 45.945312 174.0625 C 44.464844 189.863281 55.175781 197.9375 58.871094 200.230469 C 58.734375 202.09375 58.640625 203.964844 58.597656 205.851562 C 57.367188 257.746094 91.980469 300.582031 136.039062 301.90625 L 136.246094 296.914062 C 114.339844 296.160156 94.847656 284.914062 81.15625 267.359375 "/><path style=" stroke:none;fill-rule:nonzero;fill:#edc032;fill-opacity:1;" d="M 101.3125 241.871094 C 87.046875 260 98.183594 282.476562 98.183594 282.476562 C 114.246094 262.769531 101.3125 241.871094 101.3125 241.871094 "/><path style=" stroke:none;fill-rule:nonzero;fill:#edc032;fill-opacity:1;" d="M 115.292969 267.203125 C 102.671875 277.160156 115.855469 289.941406 115.855469 289.941406 C 130.128906 279.132812 115.292969 267.203125 115.292969 267.203125 "/><path style=" stroke:none;fill-rule:nonzero;fill:#edc032;fill-opacity:1;" d="M 75.042969 270.238281 C 61.792969 247.554688 41.691406 257.703125 41.691406 257.703125 C 53.984375 277.980469 75.042969 270.238281 75.042969 270.238281 "/><path style=" stroke:none;fill-rule:nonzero;fill:#edc032;fill-opacity:1;" d="M 58.082031 285.273438 C 72.335938 301.960938 93.320312 288.605469 93.320312 288.605469 C 77.894531 269.804688 58.082031 285.273438 58.082031 285.273438 "/><g clip-rule="nonzero" clip-path="url(#f34820e0f9)"><path style=" stroke:none;fill-rule:nonzero;fill:#edc032;fill-opacity:1;" d="M 64.5 248.410156 C 56.179688 227.023438 37.546875 232.84375 37.546875 232.84375 C 45.371094 252.035156 64.5 248.410156 64.5 248.410156 "/></g><path style=" stroke:none;fill-rule:nonzero;fill:#edc032;fill-opacity:1;" d="M 59.324219 227.972656 C 59.683594 204.363281 40.820312 200.21875 40.820312 200.21875 C 40.820312 221.585938 59.324219 227.972656 59.324219 227.972656 "/><path style=" stroke:none;fill-rule:nonzero;fill:#edc032;fill-opacity:1;" d="M 71.421875 127.566406 C 63.617188 140.421875 72.257812 153.597656 72.257812 153.597656 C 81.089844 139.570312 71.421875 127.566406 71.421875 127.566406 "/><path style=" stroke:none;fill-rule:nonzero;fill:#edc032;fill-opacity:1;" d="M 89.738281 114.394531 C 79.394531 120.761719 82.324219 135.328125 82.324219 135.328125 C 93.875 128.542969 89.738281 114.394531 89.738281 114.394531 "/><path style=" stroke:none;fill-rule:nonzero;fill:#edc032;fill-opacity:1;" d="M 61.328125 215.34375 C 79.21875 209.480469 77.710938 188.75 77.710938 188.75 C 61.605469 194.394531 61.328125 215.34375 61.328125 215.34375 "/><path style=" stroke:none;fill-rule:nonzero;fill:#edc032;fill-opacity:1;" d="M 68.921875 166.109375 C 85.203125 169.484375 90.816406 151.992188 90.816406 151.992188 C 76.03125 149.25 68.921875 166.109375 68.921875 166.109375 "/><path style=" stroke:none;fill-rule:nonzero;fill:#edc032;fill-opacity:1;" d="M 103.964844 135.628906 C 91.589844 130.175781 82.902344 143.351562 82.902344 143.351562 C 96.476562 149.660156 103.964844 135.628906 103.964844 135.628906 "/><path style=" stroke:none;fill-rule:nonzero;fill:#edc032;fill-opacity:1;" d="M 117.300781 113.191406 C 102.382812 108.847656 95.066406 128.3125 95.066406 128.3125 C 111.484375 133.511719 117.300781 113.191406 117.300781 113.191406 "/><path style=" stroke:none;fill-rule:nonzero;fill:#ffffff;fill-opacity:1;" d="M 238.984375 303.179688 C 283.046875 301.859375 317.664062 259.019531 316.433594 207.125 C 315.695312 176.023438 302.242188 148.695312 282.09375 131.886719 C 300.992188 148.414062 313.539062 174.558594 314.242188 204.238281 C 315.441406 254.882812 281.742188 296.714844 238.78125 298.1875 L 238.984375 303.179688 "/><path style=" stroke:none;fill-rule:nonzero;fill:#ffffff;fill-opacity:1;" d="M 294.816406 269.863281 C 294.816406 269.863281 305.949219 247.386719 291.691406 229.253906 C 291.691406 229.253906 278.757812 250.160156 294.816406 269.863281 "/><path style=" stroke:none;fill-rule:nonzero;fill:#ffffff;fill-opacity:1;" d="M 276.84375 283.75 C 276.84375 283.75 287.980469 261.273438 273.71875 243.144531 C 273.71875 243.144531 260.785156 264.046875 276.84375 283.75 "/><path style=" stroke:none;fill-rule:nonzero;fill:#ffffff;fill-opacity:1;" d="M 259.171875 291.21875 C 259.171875 291.21875 272.355469 278.433594 259.734375 268.476562 C 259.734375 268.476562 244.898438 280.410156 259.171875 291.21875 "/><path style=" stroke:none;fill-rule:nonzero;fill:#ffffff;fill-opacity:1;" d="M 299.984375 271.515625 C 299.984375 271.515625 321.042969 279.253906 333.339844 258.976562 C 333.339844 258.976562 313.238281 248.828125 299.984375 271.515625 "/><path style=" stroke:none;fill-rule:nonzero;fill:#ffffff;fill-opacity:1;" d="M 281.707031 289.878906 C 281.707031 289.878906 302.6875 303.234375 316.945312 286.546875 C 316.945312 286.546875 297.136719 271.074219 281.707031 289.878906 "/><path style=" stroke:none;fill-rule:nonzero;fill:#ffffff;fill-opacity:1;" d="M 258.023438 303.605469 C 258.023438 303.605469 277.582031 319.667969 294.46875 305.058594 C 294.46875 305.058594 276.398438 287.054688 258.023438 303.605469 "/><g clip-rule="nonzero" clip-path="url(#56813b1e7e)"><path style=" stroke:none;fill-rule:nonzero;fill:#ffffff;fill-opacity:1;" d="M 310.523438 249.683594 C 310.523438 249.683594 329.660156 253.304688 337.480469 234.117188 C 337.480469 234.117188 318.847656 228.296875 310.523438 249.683594 "/></g><path style=" stroke:none;fill-rule:nonzero;fill:#ffffff;fill-opacity:1;" d="M 315.703125 229.246094 C 315.703125 229.246094 334.207031 222.859375 334.207031 201.492188 C 334.207031 201.492188 315.34375 205.636719 315.703125 229.246094 "/><path style=" stroke:none;fill-rule:nonzero;fill:#ffffff;fill-opacity:1;" d="M 314.925781 202.210938 C 314.925781 202.210938 330.863281 194.386719 329.078125 175.335938 C 329.078125 175.335938 312.644531 181.199219 314.925781 202.210938 "/><path style=" stroke:none;fill-rule:nonzero;fill:#ffffff;fill-opacity:1;" d="M 313.441406 180.007812 C 313.441406 180.007812 323.972656 163.953125 314.464844 148.285156 C 314.464844 148.285156 302.679688 162.910156 313.441406 180.007812 "/><path style=" stroke:none;fill-rule:nonzero;fill:#ffffff;fill-opacity:1;" d="M 302.769531 154.871094 C 302.769531 154.871094 311.410156 141.695312 303.605469 128.839844 C 303.605469 128.839844 293.9375 140.84375 302.769531 154.871094 "/><path style=" stroke:none;fill-rule:nonzero;fill:#ffffff;fill-opacity:1;" d="M 292.703125 136.601562 C 292.703125 136.601562 295.632812 122.035156 285.289062 115.667969 C 285.289062 115.667969 281.15625 129.816406 292.703125 136.601562 "/><path style=" stroke:none;fill-rule:nonzero;fill:#ffffff;fill-opacity:1;" d="M 309.175781 245.511719 C 309.175781 245.511719 314.015625 222.753906 297.871094 211.199219 C 297.871094 211.199219 291.148438 233.113281 309.175781 245.511719 "/><path style=" stroke:none;fill-rule:nonzero;fill:#ffffff;fill-opacity:1;" d="M 313.699219 216.617188 C 313.699219 216.617188 313.425781 195.667969 297.316406 190.023438 C 297.316406 190.023438 295.808594 210.753906 313.699219 216.617188 "/><path style=" stroke:none;fill-rule:nonzero;fill:#ffffff;fill-opacity:1;" d="M 314.628906 190.160156 C 314.628906 190.160156 309.476562 171.667969 293.960938 171.890625 C 293.960938 171.890625 297.503906 190.757812 314.628906 190.160156 "/><path style=" stroke:none;fill-rule:nonzero;fill:#ffffff;fill-opacity:1;" d="M 306.101562 167.382812 C 306.101562 167.382812 298.996094 150.523438 284.210938 153.265625 C 284.210938 153.265625 289.824219 170.757812 306.101562 167.382812 "/><path style=" stroke:none;fill-rule:nonzero;fill:#ffffff;fill-opacity:1;" d="M 292.125 144.625 C 292.125 144.625 283.4375 131.449219 271.066406 136.902344 C 271.066406 136.902344 278.550781 150.933594 292.125 144.625 "/><path style=" stroke:none;fill-rule:nonzero;fill:#edc032;fill-opacity:1;" d="M 279.964844 129.585938 C 279.964844 129.585938 272.640625 110.121094 257.726562 114.46875 C 257.726562 114.46875 263.542969 134.785156 279.964844 129.585938 "/><path style=" stroke:none;fill-rule:nonzero;fill:#edc032;fill-opacity:1;" d="M 294.46875 303.785156 C 277.582031 318.394531 258.023438 302.332031 258.023438 302.332031 C 276.398438 285.78125 294.46875 303.785156 294.46875 303.785156 "/><path style=" stroke:none;fill-rule:nonzero;fill:#edc032;fill-opacity:1;" d="M 293.867188 267.359375 C 279.308594 248.023438 291.691406 227.984375 291.691406 227.984375 C 301.75 240.773438 299.171875 255.71875 296.78125 263.414062 C 301.078125 257.234375 304.691406 250.378906 307.503906 243.003906 C 291.578125 230.441406 297.871094 209.925781 297.871094 209.925781 C 307.8125 217.039062 309.792969 228.398438 309.851562 236.082031 C 312.945312 225.761719 314.515625 214.597656 314.242188 202.960938 C 314.128906 198.167969 313.699219 193.464844 312.988281 188.882812 C 297.277344 188.265625 293.960938 170.617188 293.960938 170.617188 C 303.195312 170.484375 308.761719 176.980469 311.75 182.261719 C 307.132812 161.273438 296.449219 143.167969 282.09375 130.613281 C 294.40625 140.886719 304.210938 155.089844 310.152344 171.683594 C 305.785156 157.804688 314.464844 147.011719 314.464844 147.011719 C 323.972656 162.679688 313.441406 178.734375 313.441406 178.734375 C 312.292969 176.902344 311.410156 175.101562 310.734375 173.34375 C 312.714844 179.191406 314.222656 185.316406 315.191406 191.664062 C 317.671875 178.140625 329.078125 174.0625 329.078125 174.0625 C 330.558594 189.863281 319.851562 197.9375 316.15625 200.230469 C 316.292969 202.09375 316.386719 203.964844 316.433594 205.851562 C 317.664062 257.746094 283.046875 300.582031 238.984375 301.90625 L 238.78125 296.914062 C 260.6875 296.160156 280.179688 284.914062 293.867188 267.359375 "/><path style=" stroke:none;fill-rule:nonzero;fill:#edc032;fill-opacity:1;" d="M 273.71875 241.871094 C 287.980469 260 276.84375 282.476562 276.84375 282.476562 C 260.785156 262.769531 273.71875 241.871094 273.71875 241.871094 "/><path style=" stroke:none;fill-rule:nonzero;fill:#edc032;fill-opacity:1;" d="M 259.734375 267.203125 C 272.355469 277.160156 259.171875 289.941406 259.171875 289.941406 C 244.898438 279.132812 259.734375 267.203125 259.734375 267.203125 "/><path style=" stroke:none;fill-rule:nonzero;fill:#edc032;fill-opacity:1;" d="M 299.984375 270.238281 C 313.238281 247.554688 333.339844 257.703125 333.339844 257.703125 C 321.042969 277.980469 299.984375 270.238281 299.984375 270.238281 "/><path style=" stroke:none;fill-rule:nonzero;fill:#edc032;fill-opacity:1;" d="M 316.945312 285.273438 C 302.6875 301.960938 281.707031 288.605469 281.707031 288.605469 C 297.136719 269.804688 316.945312 285.273438 316.945312 285.273438 "/><g clip-rule="nonzero" clip-path="url(#a5458ca420)"><path style=" stroke:none;fill-rule:nonzero;fill:#edc032;fill-opacity:1;" d="M 310.523438 248.410156 C 318.847656 227.023438 337.480469 232.84375 337.480469 232.84375 C 329.660156 252.035156 310.523438 248.410156 310.523438 248.410156 "/></g><path style=" stroke:none;fill-rule:nonzero;fill:#edc032;fill-opacity:1;" d="M 315.703125 227.972656 C 315.34375 204.363281 334.207031 200.21875 334.207031 200.21875 C 334.207031 221.585938 315.703125 227.972656 315.703125 227.972656 "/><path style=" stroke:none;fill-rule:nonzero;fill:#edc032;fill-opacity:1;" d="M 303.605469 127.566406 C 311.410156 140.421875 302.769531 153.597656 302.769531 153.597656 C 293.9375 139.570312 303.605469 127.566406 303.605469 127.566406 "/><path style=" stroke:none;fill-rule:nonzero;fill:#edc032;fill-opacity:1;" d="M 285.289062 114.394531 C 295.632812 120.761719 292.703125 135.328125 292.703125 135.328125 C 281.15625 128.542969 285.289062 114.394531 285.289062 114.394531 "/><path style=" stroke:none;fill-rule:nonzero;fill:#edc032;fill-opacity:1;" d="M 313.699219 215.34375 C 295.808594 209.480469 297.316406 188.75 297.316406 188.75 C 313.425781 194.394531 313.699219 215.34375 313.699219 215.34375 "/><path style=" stroke:none;fill-rule:nonzero;fill:#edc032;fill-opacity:1;" d="M 306.101562 166.109375 C 289.824219 169.484375 284.210938 151.992188 284.210938 151.992188 C 298.996094 149.25 306.101562 166.109375 306.101562 166.109375 "/><path style=" stroke:none;fill-rule:nonzero;fill:#edc032;fill-opacity:1;" d="M 271.066406 135.628906 C 283.4375 130.175781 292.125 143.351562 292.125 143.351562 C 278.550781 149.660156 271.066406 135.628906 271.066406 135.628906 "/><path style=" stroke:none;fill-rule:nonzero;fill:#edc032;fill-opacity:1;" d="M 257.726562 113.191406 C 272.640625 108.847656 279.964844 128.3125 279.964844 128.3125 C 263.542969 133.511719 257.726562 113.191406 257.726562 113.191406 "/><path style=" stroke:none;fill-rule:evenodd;fill:#ffffff;fill-opacity:1;" d="M 97.089844 351.84375 L 97.089844 328.089844 L 91.925781 328.089844 L 91.925781 351.84375 Z M 89.039062 347.710938 L 89.039062 331.992188 L 83.871094 331.992188 L 83.871094 347.710938 Z M 89.039062 329.148438 L 89.039062 326.511719 L 83.871094 326.511719 L 83.871094 329.148438 Z M 97.089844 325.246094 L 97.089844 322.375 L 91.925781 322.375 L 91.925781 325.246094 Z M 199.246094 321.355469 L 175.78125 321.355469 L 175.78125 328.636719 C 178.878906 325.816406 182.996094 324.097656 187.515625 324.097656 C 192.03125 324.097656 196.152344 325.816406 199.246094 328.632812 Z M 187.515625 327.082031 C 195.5 327.082031 201.972656 333.5625 201.972656 341.546875 C 201.972656 349.53125 195.5 356.011719 187.515625 356.011719 C 179.523438 356.011719 173.050781 349.53125 173.050781 341.546875 C 173.050781 333.5625 179.523438 327.082031 187.515625 327.082031 Z M 203.851562 341.546875 C 203.851562 332.523438 196.539062 325.207031 187.515625 325.207031 C 178.488281 325.207031 171.175781 332.523438 171.175781 341.546875 C 171.175781 350.574219 178.488281 357.886719 187.515625 357.886719 C 196.539062 357.886719 203.851562 350.574219 203.851562 341.546875 Z M 199.679688 341.597656 C 199.679688 334.882812 194.234375 329.4375 187.523438 329.4375 C 180.804688 329.4375 175.359375 334.882812 175.359375 341.597656 C 175.359375 348.3125 180.804688 353.753906 187.523438 353.753906 C 194.234375 353.753906 199.679688 348.3125 199.679688 341.597656 Z M 185.417969 358.894531 C 179.785156 358.21875 174.976562 354.867188 172.300781 350.144531 L 162.867188 366.472656 L 173.449219 364.304688 L 177.78125 373.660156 Z M 212.164062 366.472656 L 202.726562 350.144531 C 200.054688 354.867188 195.242188 358.21875 189.609375 358.894531 L 197.246094 373.660156 L 201.578125 364.304688 Z M 275.222656 353.757812 L 275.03125 326.628906 L 203.160156 326.898438 L 275.011719 323.8125 L 274.988281 320.410156 L 200.597656 323.503906 L 200.597656 330.007812 C 203.316406 333.082031 204.964844 337.125 204.964844 341.546875 C 204.964844 344.066406 204.425781 346.464844 203.464844 348.625 L 205.0625 351.113281 Z M 283.105469 351.84375 L 283.105469 328.089844 L 277.941406 328.089844 L 277.941406 351.84375 Z M 283.105469 325.246094 L 283.105469 322.375 L 277.941406 322.375 L 277.941406 325.246094 Z M 291.15625 329.148438 L 291.15625 326.511719 L 285.992188 326.511719 L 285.992188 329.148438 Z M 291.15625 347.710938 L 291.15625 331.992188 L 285.992188 331.992188 L 285.992188 347.710938 Z M 170.066406 341.546875 C 170.066406 337.140625 171.695312 333.125 174.386719 330.050781 L 174.386719 323.503906 L 99.570312 320.410156 L 99.597656 323.804688 L 171.652344 326.898438 L 99.613281 326.625 L 99.804688 353.757812 L 169.964844 351.113281 L 171.5625 348.628906 C 170.601562 346.464844 170.066406 344.066406 170.066406 341.546875 "/><path style=" stroke:none;fill-rule:evenodd;fill:#edc032;fill-opacity:1;" d="M 187.523438 351.671875 C 193.085938 351.671875 197.597656 347.160156 197.597656 341.597656 C 197.597656 336.03125 193.085938 331.519531 187.523438 331.519531 C 181.957031 331.519531 177.441406 336.03125 177.441406 341.597656 C 177.441406 347.160156 181.957031 351.671875 187.523438 351.671875 "/><path style=" stroke:none;fill-rule:evenodd;fill:#edc032;fill-opacity:1;" d="M 175.78125 328.636719 C 178.878906 325.816406 182.996094 324.097656 187.515625 324.097656 C 192.03125 324.097656 196.152344 325.816406 199.246094 328.632812 L 199.246094 321.355469 L 175.78125 321.355469 L 175.78125 328.636719 "/><g clip-rule="nonzero" clip-path="url(#ec822057a4)"><path style=" stroke:none;fill-rule:evenodd;fill:#ffffff;fill-opacity:1;" d="M 185.417969 360.207031 C 179.785156 359.535156 174.976562 356.179688 172.300781 351.457031 L 163.109375 367.367188 L 162.867188 367.789062 L 163.441406 367.671875 L 173.449219 365.621094 L 176.695312 372.625 L 177.78125 374.976562 L 185.417969 360.207031 "/></g><g clip-rule="nonzero" clip-path="url(#b11f789f20)"><path style=" stroke:none;fill-rule:evenodd;fill:#ffffff;fill-opacity:1;" d="M 210.714844 365.28125 L 202.726562 351.457031 C 200.054688 356.179688 195.242188 359.535156 189.609375 360.207031 L 197.09375 374.683594 L 197.246094 374.976562 L 197.398438 374.648438 L 201.578125 365.621094 L 212.164062 367.789062 L 211.152344 366.046875 L 210.714844 365.28125 "/></g><path style=" stroke:none;fill-rule:evenodd;fill:#edc032;fill-opacity:1;" d="M 172.300781 350.144531 L 163.109375 366.050781 L 162.867188 366.472656 L 163.441406 366.355469 L 173.449219 364.304688 L 176.695312 371.308594 L 177.78125 373.660156 L 185.417969 358.894531 C 179.785156 358.21875 174.976562 354.867188 172.300781 350.144531 "/><path style=" stroke:none;fill-rule:evenodd;fill:#edc032;fill-opacity:1;" d="M 211.152344 364.730469 L 210.714844 363.964844 L 202.726562 350.144531 C 200.054688 354.867188 195.242188 358.21875 189.609375 358.894531 L 197.09375 373.367188 L 197.246094 373.660156 L 197.398438 373.335938 L 201.578125 364.304688 L 212.164062 366.472656 L 211.152344 364.730469 "/><g style="fill:#ffffff;fill-opacity:1;"><g transform="translate(102.905271, 201.748609)"><path style="stroke:none" d="M 20.21875 -26.15625 C 17.4375 -26.15625 15.304688 -25.304688 13.828125 -23.609375 C 12.359375 -21.921875 11.625 -19.53125 11.625 -16.4375 C 11.625 -13.300781 12.441406 -10.882812 14.078125 -9.1875 C 15.710938 -7.488281 17.921875 -6.640625 20.703125 -6.640625 C 22.179688 -6.640625 23.429688 -6.835938 24.453125 -7.234375 C 25.484375 -7.640625 26.46875 -8.09375 27.40625 -8.59375 C 28.019531 -8.09375 28.492188 -7.488281 28.828125 -6.78125 C 29.171875 -6.082031 29.34375 -5.265625 29.34375 -4.328125 C 29.34375 -2.847656 28.519531 -1.59375 26.875 -0.5625 C 25.238281 0.457031 22.75 0.96875 19.40625 0.96875 C 16.988281 0.96875 14.71875 0.628906 12.59375 -0.046875 C 10.46875 -0.734375 8.609375 -1.785156 7.015625 -3.203125 C 5.429688 -4.628906 4.179688 -6.429688 3.265625 -8.609375 C 2.347656 -10.796875 1.890625 -13.40625 1.890625 -16.4375 C 1.890625 -19.238281 2.332031 -21.710938 3.21875 -23.859375 C 4.101562 -26.003906 5.3125 -27.816406 6.84375 -29.296875 C 8.375 -30.773438 10.164062 -31.890625 12.21875 -32.640625 C 14.269531 -33.398438 16.46875 -33.78125 18.8125 -33.78125 C 22.125 -33.78125 24.6875 -33.238281 26.5 -32.15625 C 28.320312 -31.070312 29.234375 -29.6875 29.234375 -28 C 29.234375 -27.0625 29 -26.25 28.53125 -25.5625 C 28.0625 -24.875 27.523438 -24.332031 26.921875 -23.9375 C 25.984375 -24.550781 24.984375 -25.070312 23.921875 -25.5 C 22.859375 -25.9375 21.625 -26.15625 20.21875 -26.15625 Z M 20.21875 -26.15625 "/></g></g><g style="fill:#ffffff;fill-opacity:1;"><g transform="translate(133.063357, 201.748609)"><path style="stroke:none" d="M 30 -13.140625 C 30 -10.898438 29.65625 -8.90625 28.96875 -7.15625 C 28.28125 -5.414062 27.316406 -3.945312 26.078125 -2.75 C 24.835938 -1.5625 23.351562 -0.660156 21.625 -0.046875 C 19.894531 0.554688 17.960938 0.859375 15.828125 0.859375 C 13.703125 0.859375 11.773438 0.535156 10.046875 -0.109375 C 8.316406 -0.753906 6.832031 -1.679688 5.59375 -2.890625 C 4.351562 -4.097656 3.390625 -5.566406 2.703125 -7.296875 C 2.015625 -9.023438 1.671875 -10.972656 1.671875 -13.140625 C 1.671875 -15.265625 2.015625 -17.191406 2.703125 -18.921875 C 3.390625 -20.648438 4.351562 -22.113281 5.59375 -23.3125 C 6.832031 -24.519531 8.316406 -25.445312 10.046875 -26.09375 C 11.773438 -26.75 13.703125 -27.078125 15.828125 -27.078125 C 17.960938 -27.078125 19.894531 -26.742188 21.625 -26.078125 C 23.351562 -25.410156 24.835938 -24.472656 26.078125 -23.265625 C 27.316406 -22.054688 28.28125 -20.585938 28.96875 -18.859375 C 29.65625 -17.128906 30 -15.222656 30 -13.140625 Z M 11.078125 -13.140625 C 11.078125 -10.941406 11.5 -9.253906 12.34375 -8.078125 C 13.195312 -6.910156 14.378906 -6.328125 15.890625 -6.328125 C 17.398438 -6.328125 18.5625 -6.921875 19.375 -8.109375 C 20.1875 -9.296875 20.59375 -10.972656 20.59375 -13.140625 C 20.59375 -15.296875 20.175781 -16.957031 19.34375 -18.125 C 18.519531 -19.300781 17.347656 -19.890625 15.828125 -19.890625 C 14.316406 -19.890625 13.144531 -19.300781 12.3125 -18.125 C 11.488281 -16.957031 11.078125 -15.296875 11.078125 -13.140625 Z M 11.078125 -13.140625 "/></g></g><g style="fill:#ffffff;fill-opacity:1;"><g transform="translate(164.734822, 201.748609)"><path style="stroke:none" d="M 24.96875 -7.84375 C 24.96875 -5.101562 23.941406 -2.957031 21.890625 -1.40625 C 19.835938 0.144531 16.8125 0.921875 12.8125 0.921875 C 11.300781 0.921875 9.894531 0.8125 8.59375 0.59375 C 7.289062 0.375 6.179688 0.0390625 5.265625 -0.40625 C 4.347656 -0.851562 3.628906 -1.421875 3.109375 -2.109375 C 2.585938 -2.796875 2.328125 -3.609375 2.328125 -4.546875 C 2.328125 -5.410156 2.503906 -6.140625 2.859375 -6.734375 C 3.222656 -7.328125 3.65625 -7.820312 4.15625 -8.21875 C 5.207031 -7.632812 6.40625 -7.117188 7.75 -6.671875 C 9.101562 -6.222656 10.664062 -6 12.4375 -6 C 13.550781 -6 14.40625 -6.160156 15 -6.484375 C 15.59375 -6.804688 15.890625 -7.238281 15.890625 -7.78125 C 15.890625 -8.289062 15.671875 -8.6875 15.234375 -8.96875 C 14.804688 -9.257812 14.085938 -9.492188 13.078125 -9.671875 L 11.453125 -10 C 8.316406 -10.613281 5.984375 -11.578125 4.453125 -12.890625 C 2.921875 -14.203125 2.15625 -16.082031 2.15625 -18.53125 C 2.15625 -19.863281 2.441406 -21.070312 3.015625 -22.15625 C 3.597656 -23.238281 4.410156 -24.140625 5.453125 -24.859375 C 6.503906 -25.578125 7.757812 -26.132812 9.21875 -26.53125 C 10.675781 -26.925781 12.285156 -27.125 14.046875 -27.125 C 15.378906 -27.125 16.628906 -27.023438 17.796875 -26.828125 C 18.972656 -26.628906 19.992188 -26.332031 20.859375 -25.9375 C 21.722656 -25.539062 22.40625 -25.023438 22.90625 -24.390625 C 23.414062 -23.765625 23.671875 -23.019531 23.671875 -22.15625 C 23.671875 -21.332031 23.515625 -20.617188 23.203125 -20.015625 C 22.898438 -19.421875 22.515625 -18.925781 22.046875 -18.53125 C 21.765625 -18.71875 21.332031 -18.910156 20.75 -19.109375 C 20.175781 -19.304688 19.546875 -19.484375 18.859375 -19.640625 C 18.171875 -19.804688 17.476562 -19.941406 16.78125 -20.046875 C 16.082031 -20.160156 15.441406 -20.21875 14.859375 -20.21875 C 13.671875 -20.21875 12.753906 -20.082031 12.109375 -19.8125 C 11.460938 -19.539062 11.140625 -19.113281 11.140625 -18.53125 C 11.140625 -18.132812 11.316406 -17.8125 11.671875 -17.5625 C 12.035156 -17.3125 12.722656 -17.078125 13.734375 -16.859375 L 15.40625 -16.484375 C 18.863281 -15.691406 21.320312 -14.601562 22.78125 -13.21875 C 24.238281 -11.832031 24.96875 -10.039062 24.96875 -7.84375 Z M 24.96875 -7.84375 "/></g></g><g style="fill:#ffffff;fill-opacity:1;"><g transform="translate(191.59614, 201.748609)"><path style="stroke:none" d="M 16.703125 0.859375 C 14.578125 0.859375 12.601562 0.5625 10.78125 -0.03125 C 8.957031 -0.625 7.367188 -1.515625 6.015625 -2.703125 C 4.671875 -3.890625 3.609375 -5.382812 2.828125 -7.1875 C 2.054688 -8.988281 1.671875 -11.097656 1.671875 -13.515625 C 1.671875 -15.890625 2.054688 -17.929688 2.828125 -19.640625 C 3.609375 -21.359375 4.628906 -22.765625 5.890625 -23.859375 C 7.148438 -24.960938 8.585938 -25.773438 10.203125 -26.296875 C 11.828125 -26.816406 13.488281 -27.078125 15.1875 -27.078125 C 17.09375 -27.078125 18.828125 -26.785156 20.390625 -26.203125 C 21.960938 -25.628906 23.316406 -24.835938 24.453125 -23.828125 C 25.585938 -22.828125 26.46875 -21.625 27.09375 -20.21875 C 27.726562 -18.8125 28.046875 -17.28125 28.046875 -15.625 C 28.046875 -14.394531 27.703125 -13.457031 27.015625 -12.8125 C 26.335938 -12.164062 25.382812 -11.75 24.15625 -11.5625 L 10.8125 -9.5625 C 11.207031 -8.375 12.015625 -7.484375 13.234375 -6.890625 C 14.460938 -6.296875 15.867188 -6 17.453125 -6 C 18.929688 -6 20.328125 -6.1875 21.640625 -6.5625 C 22.960938 -6.945312 24.035156 -7.390625 24.859375 -7.890625 C 25.429688 -7.523438 25.914062 -7.019531 26.3125 -6.375 C 26.71875 -5.726562 26.921875 -5.046875 26.921875 -4.328125 C 26.921875 -2.703125 26.160156 -1.492188 24.640625 -0.703125 C 23.492188 -0.0859375 22.195312 0.320312 20.75 0.53125 C 19.3125 0.75 17.960938 0.859375 16.703125 0.859375 Z M 15.1875 -20.375 C 14.320312 -20.375 13.570312 -20.226562 12.9375 -19.9375 C 12.3125 -19.65625 11.800781 -19.285156 11.40625 -18.828125 C 11.007812 -18.378906 10.710938 -17.875 10.515625 -17.3125 C 10.316406 -16.757812 10.195312 -16.195312 10.15625 -15.625 L 19.40625 -17.140625 C 19.289062 -17.859375 18.890625 -18.578125 18.203125 -19.296875 C 17.523438 -20.015625 16.519531 -20.375 15.1875 -20.375 Z M 15.1875 -20.375 "/></g></g><g style="fill:#ffffff;fill-opacity:1;"><g transform="translate(221.267865, 201.748609)"><path style="stroke:none" d="M 12 -0.046875 C 11.632812 0.0546875 11.066406 0.160156 10.296875 0.265625 C 9.523438 0.378906 8.722656 0.4375 7.890625 0.4375 C 7.097656 0.4375 6.382812 0.378906 5.75 0.265625 C 5.125 0.160156 4.59375 -0.0507812 4.15625 -0.375 C 3.726562 -0.695312 3.394531 -1.140625 3.15625 -1.703125 C 2.925781 -2.265625 2.8125 -2.992188 2.8125 -3.890625 L 2.8125 -20.109375 C 2.8125 -20.929688 2.960938 -21.640625 3.265625 -22.234375 C 3.578125 -22.828125 4.019531 -23.359375 4.59375 -23.828125 C 5.164062 -24.296875 5.875 -24.71875 6.71875 -25.09375 C 7.570312 -25.476562 8.484375 -25.8125 9.453125 -26.09375 C 10.429688 -26.382812 11.441406 -26.609375 12.484375 -26.765625 C 13.523438 -26.929688 14.570312 -27.015625 15.625 -27.015625 C 17.351562 -27.015625 18.71875 -26.679688 19.71875 -26.015625 C 20.726562 -25.359375 21.234375 -24.269531 21.234375 -22.75 C 21.234375 -22.25 21.160156 -21.753906 21.015625 -21.265625 C 20.878906 -20.773438 20.703125 -20.332031 20.484375 -19.9375 C 19.722656 -19.9375 18.945312 -19.898438 18.15625 -19.828125 C 17.363281 -19.765625 16.585938 -19.660156 15.828125 -19.515625 C 15.078125 -19.367188 14.367188 -19.210938 13.703125 -19.046875 C 13.035156 -18.890625 12.46875 -18.703125 12 -18.484375 Z M 12 -0.046875 "/></g></g><g style="fill:#ffffff;fill-opacity:1;"><g transform="translate(242.670341, 201.748609)"><path style="stroke:none" d="M 14.046875 -5.84375 C 14.660156 -5.84375 15.335938 -5.90625 16.078125 -6.03125 C 16.816406 -6.15625 17.367188 -6.328125 17.734375 -6.546875 L 17.734375 -10.859375 L 13.84375 -10.546875 C 12.832031 -10.472656 12 -10.253906 11.34375 -9.890625 C 10.695312 -9.523438 10.375 -8.984375 10.375 -8.265625 C 10.375 -7.546875 10.648438 -6.960938 11.203125 -6.515625 C 11.765625 -6.066406 12.710938 -5.84375 14.046875 -5.84375 Z M 13.625 -27.078125 C 15.5625 -27.078125 17.332031 -26.878906 18.9375 -26.484375 C 20.539062 -26.085938 21.910156 -25.484375 23.046875 -24.671875 C 24.179688 -23.859375 25.054688 -22.832031 25.671875 -21.59375 C 26.285156 -20.351562 26.59375 -18.882812 26.59375 -17.1875 L 26.59375 -5.078125 C 26.59375 -4.140625 26.332031 -3.375 25.8125 -2.78125 C 25.289062 -2.1875 24.664062 -1.675781 23.9375 -1.25 C 21.601562 0.15625 18.304688 0.859375 14.046875 0.859375 C 12.140625 0.859375 10.421875 0.675781 8.890625 0.3125 C 7.359375 -0.0390625 6.039062 -0.578125 4.9375 -1.296875 C 3.84375 -2.015625 3 -2.929688 2.40625 -4.046875 C 1.8125 -5.171875 1.515625 -6.46875 1.515625 -7.9375 C 1.515625 -10.425781 2.25 -12.335938 3.71875 -13.671875 C 5.195312 -15.003906 7.488281 -15.832031 10.59375 -16.15625 L 17.671875 -16.921875 L 17.671875 -17.296875 C 17.671875 -18.335938 17.210938 -19.082031 16.296875 -19.53125 C 15.378906 -19.988281 14.054688 -20.21875 12.328125 -20.21875 C 10.953125 -20.21875 9.613281 -20.070312 8.3125 -19.78125 C 7.019531 -19.488281 5.851562 -19.128906 4.8125 -18.703125 C 4.34375 -19.023438 3.945312 -19.519531 3.625 -20.1875 C 3.300781 -20.851562 3.140625 -21.546875 3.140625 -22.265625 C 3.140625 -23.203125 3.363281 -23.945312 3.8125 -24.5 C 4.257812 -25.0625 4.953125 -25.539062 5.890625 -25.9375 C 6.929688 -26.332031 8.164062 -26.617188 9.59375 -26.796875 C 11.019531 -26.984375 12.363281 -27.078125 13.625 -27.078125 Z M 13.625 -27.078125 "/></g></g></g></svg>