<svg xmlns="http://www.w3.org/2000/svg" xmlns:xlink="http://www.w3.org/1999/xlink" width="1000" zoomAndPan="magnify" viewBox="0 0 750 749.999995" height="1000" preserveAspectRatio="xMidYMid meet" version="1.2"><defs><clipPath id="0dc1ba1a16"><path d="M 419 441 L 728.75 441 L 728.75 647 L 419 647 Z M 419 441 "/></clipPath><clipPath id="a3ec286c05"><path d="M 21.09375 103 L 373 103 L 373 591 L 21.09375 591 Z M 21.09375 103 "/></clipPath><clipPath id="634aa3c1a6"><path d="M 180 0 L 728.75 0 L 728.75 309 L 180 309 Z M 180 0 "/></clipPath><clipPath id="dabd7bd7dd"><path d="M 484 333 L 523.695312 333 L 523.695312 342 L 484 342 Z M 484 333 "/></clipPath><clipPath id="6f42897834"><path d="M 277.421875 333 L 317 333 L 317 342 L 277.421875 342 Z M 277.421875 333 "/></clipPath><clipPath id="fae334b7dd"><path d="M 357 422 L 442 422 L 442 488.300781 L 357 488.300781 Z M 357 422 "/></clipPath></defs><g id="5169c6d672"><g clip-rule="nonzero" clip-path="url(#0dc1ba1a16)"><path style=" stroke:none;fill-rule:evenodd;fill:#009f91;fill-opacity:1;" d="M 692.269531 604.964844 C 705.957031 587.347656 718.066406 568.472656 728.449219 548.652344 L 627.777344 447.984375 C 619.285156 439.488281 605.128906 439.488281 596.632812 447.984375 L 459.785156 584.832031 C 448.144531 595.058594 434.460938 602.136719 419.832031 605.910156 C 503.199219 668.199219 604.183594 650.738281 692.269531 604.964844 "/></g><path style=" stroke:none;fill-rule:evenodd;fill:#009f91;fill-opacity:1;" d="M 165.324219 397.332031 C 147.078125 421.714844 134.335938 449.085938 128.515625 479.757812 C 118.605469 531.664062 129.460938 585.460938 149.277344 633.753906 C 154.3125 646.179688 160.132812 658.449219 166.425781 670.402344 C 232.175781 721.839844 312.710938 749.835938 396.234375 749.835938 L 397.179688 749.835938 C 475.042969 749.835938 550.230469 725.929688 612.992188 681.570312 C 531.984375 700.601562 451.289062 689.277344 382.707031 632.492188 L 382.078125 632.023438 C 375.628906 626.671875 369.652344 621.011719 363.675781 615.191406 L 190.175781 441.378906 C 177.90625 429.109375 169.414062 413.851562 165.324219 397.332031 "/><g clip-rule="nonzero" clip-path="url(#a3ec286c05)"><path style=" stroke:none;fill-rule:evenodd;fill:#009f91;fill-opacity:1;" d="M 372.800781 143.140625 C 289.746094 81.636719 188.601562 98.941406 99.730469 145.65625 C 48.765625 211.40625 21.394531 291.628906 21.394531 374.839844 C 21.394531 452.546875 45.148438 527.417969 89.664062 590.496094 C 80.539062 551.484375 78.023438 511.21875 85.730469 471.421875 C 95.324219 421.085938 120.023438 377.671875 156.199219 341.492188 L 330.171875 167.523438 C 341.96875 155.726562 356.753906 147.386719 372.800781 143.140625 "/></g><g clip-rule="nonzero" clip-path="url(#634aa3c1a6)"><path style=" stroke:none;fill-rule:evenodd;fill:#009f91;fill-opacity:1;" d="M 728.449219 201.027344 C 663.800781 77.546875 536.074219 0 396.234375 0 C 340.867188 0 286.285156 12.113281 236.105469 35.863281 C 216.601562 45.144531 198.042969 55.996094 180.425781 68.425781 C 270.871094 47.1875 358.800781 64.019531 429.425781 134.804688 L 596.476562 301.855469 C 604.96875 310.347656 619.125 310.347656 627.621094 301.855469 Z M 728.449219 201.027344 "/></g><path style=" stroke:none;fill-rule:nonzero;fill:#009f91;fill-opacity:1;" d="M 468.699219 288.15625 C 467.933594 286.238281 468.699219 283.9375 470.617188 283.171875 L 493.238281 272.054688 C 495.15625 271.285156 497.457031 272.054688 498.222656 273.96875 C 498.988281 275.886719 498.222656 278.1875 496.304688 278.953125 L 473.683594 290.074219 C 472.148438 290.839844 469.851562 290.074219 468.699219 288.15625 Z M 468.699219 288.15625 "/><g clip-rule="nonzero" clip-path="url(#dabd7bd7dd)"><path style=" stroke:none;fill-rule:nonzero;fill:#009f91;fill-opacity:1;" d="M 519.3125 341.066406 L 488.253906 341.066406 C 485.953125 341.066406 484.417969 339.535156 484.417969 337.234375 C 484.417969 334.933594 485.953125 333.398438 488.253906 333.398438 L 519.3125 333.398438 C 521.609375 333.398438 523.144531 334.933594 523.144531 337.234375 C 523.144531 339.535156 521.609375 341.066406 519.3125 341.066406 Z M 519.3125 341.066406 "/></g><path style=" stroke:none;fill-rule:nonzero;fill:#009f91;fill-opacity:1;" d="M 493.238281 402.800781 L 470.617188 391.679688 C 468.699219 390.914062 467.933594 388.613281 468.699219 386.695312 C 469.464844 384.777344 471.765625 384.011719 473.683594 384.777344 L 496.304688 395.898438 C 498.222656 396.664062 498.988281 398.964844 498.222656 400.882812 C 497.457031 402.800781 495.15625 403.566406 493.238281 402.800781 Z M 493.238281 402.800781 "/><path style=" stroke:none;fill-rule:nonzero;fill:#009f91;fill-opacity:1;" d="M 326.835938 289.691406 L 304.210938 278.953125 C 302.679688 277.804688 301.527344 275.503906 302.679688 273.585938 C 303.445312 271.667969 305.746094 270.902344 307.664062 272.054688 L 330.285156 283.171875 C 332.203125 283.9375 332.96875 286.238281 332.203125 288.15625 C 331.050781 290.074219 328.75 290.839844 326.835938 289.691406 Z M 326.835938 289.691406 "/><g clip-rule="nonzero" clip-path="url(#6f42897834)"><path style=" stroke:none;fill-rule:nonzero;fill:#009f91;fill-opacity:1;" d="M 312.648438 341.066406 L 281.589844 341.066406 C 279.289062 341.066406 277.757812 339.535156 277.757812 337.234375 C 277.757812 334.933594 279.289062 333.398438 281.589844 333.398438 L 312.648438 333.398438 C 314.949219 333.398438 316.480469 334.933594 316.480469 337.234375 C 316.480469 339.535156 314.949219 341.066406 312.648438 341.066406 Z M 312.648438 341.066406 "/></g><path style=" stroke:none;fill-rule:nonzero;fill:#009f91;fill-opacity:1;" d="M 302.679688 400.882812 C 301.910156 398.964844 302.679688 396.664062 304.597656 395.898438 L 327.21875 384.777344 C 329.132812 384.011719 331.433594 384.777344 332.203125 386.695312 C 332.96875 388.613281 332.203125 390.914062 330.285156 391.679688 L 307.664062 402.800781 C 305.746094 403.566406 303.445312 402.800781 302.679688 400.882812 Z M 302.679688 400.882812 "/><g clip-rule="nonzero" clip-path="url(#fae334b7dd)"><path style=" stroke:none;fill-rule:nonzero;fill:#009f91;fill-opacity:1;" d="M 428.441406 445.742188 L 428.441406 449.191406 L 428.824219 449.191406 C 430.742188 449.191406 432.65625 451.109375 432.65625 453.027344 C 432.65625 455.328125 430.742188 456.859375 428.824219 456.859375 L 428.441406 456.859375 C 428.441406 464.144531 423.457031 470.28125 416.9375 472.199219 C 416.171875 481.398438 408.503906 488.300781 399.300781 488.300781 C 390.097656 488.300781 382.429688 481.015625 381.664062 472.199219 C 375.144531 470.28125 370.542969 464.144531 370.160156 456.859375 L 369.777344 456.859375 C 367.859375 456.859375 365.941406 455.328125 365.941406 453.027344 C 365.941406 451.109375 367.859375 449.191406 369.777344 449.191406 L 370.160156 449.191406 L 370.160156 445.742188 L 368.625 445.742188 C 362.109375 445.742188 357.125 440.757812 357.125 434.238281 C 357.125 427.722656 362.109375 422.738281 368.625 422.738281 L 430.359375 422.738281 C 436.492188 422.738281 441.859375 427.722656 441.859375 434.238281 C 441.859375 440.757812 436.492188 445.742188 430.359375 445.742188 Z M 428.441406 445.742188 "/></g><path style=" stroke:none;fill-rule:nonzero;fill:#009f91;fill-opacity:1;" d="M 410.417969 349.886719 C 414.636719 349.886719 418.089844 346.4375 418.089844 342.21875 C 418.089844 338 414.636719 334.550781 410.417969 334.550781 C 406.585938 334.550781 403.519531 337.234375 402.75 341.066406 C 402.75 341.453125 402.75 341.835938 402.75 342.601562 L 402.75 344.519531 C 403.902344 347.203125 406.96875 349.886719 410.417969 349.886719 Z M 410.417969 349.886719 "/><path style=" stroke:none;fill-rule:nonzero;fill:#009f91;fill-opacity:1;" d="M 448.761719 385.160156 C 440.328125 393.980469 435.34375 404.714844 434.191406 415.835938 C 433.042969 415.453125 431.507812 415.453125 429.972656 415.453125 L 403.132812 415.453125 L 403.132812 355.636719 C 405.433594 356.789062 407.734375 357.554688 410.804688 357.554688 C 419.238281 357.554688 426.140625 350.652344 426.140625 342.21875 C 426.140625 333.785156 419.238281 326.882812 410.804688 326.882812 C 406.203125 326.882812 401.984375 328.800781 399.300781 331.867188 C 396.617188 328.800781 392.398438 326.882812 387.796875 326.882812 C 379.363281 326.882812 372.460938 333.785156 372.460938 342.21875 C 372.460938 350.652344 379.363281 357.554688 387.796875 357.554688 C 390.480469 357.554688 393.164062 356.789062 395.464844 355.253906 L 395.464844 415.066406 L 368.625 415.066406 C 367.09375 415.066406 365.558594 415.066406 364.027344 415.835938 C 363.257812 404.332031 358.273438 393.980469 350.222656 385.929688 C 304.980469 340.683594 340.253906 261.316406 406.585938 268.21875 C 462.179688 274.351562 489.402344 342.601562 448.761719 385.160156 Z M 448.761719 385.160156 "/><path style=" stroke:none;fill-rule:nonzero;fill:#009f91;fill-opacity:1;" d="M 387.796875 334.167969 C 383.582031 334.167969 380.128906 337.617188 380.128906 341.835938 C 380.128906 346.054688 383.582031 349.503906 387.796875 349.503906 C 391.632812 349.503906 394.699219 346.820312 395.464844 342.984375 C 395.464844 342.601562 395.464844 342.21875 395.464844 341.453125 C 395.464844 340.683594 395.464844 340.300781 395.464844 339.917969 C 394.699219 336.851562 391.632812 334.167969 387.796875 334.167969 Z M 387.796875 334.167969 "/></g></svg>