<svg xmlns="http://www.w3.org/2000/svg" xmlns:xlink="http://www.w3.org/1999/xlink" width="4500" zoomAndPan="magnify" viewBox="0 0 3374.88 749.999995" height="1000" preserveAspectRatio="xMidYMid meet" version="1.2"><defs><clipPath id="38ef3a5485"><path d="M 391 440 L 694.972656 440 L 694.972656 642 L 391 642 Z M 391 440 "/></clipPath><clipPath id="420d9f85a7"><path d="M 101 397 L 582 397 L 582 743.335938 L 101 743.335938 Z M 101 397 "/></clipPath><clipPath id="45c82b0ccc"><path d="M 156 6.832031 L 694.972656 6.832031 L 694.972656 310 L 156 310 Z M 156 6.832031 "/></clipPath><clipPath id="1ff3e8c291"><path d="M 251.660156 334 L 291 334 L 291 342 L 251.660156 342 Z M 251.660156 334 "/></clipPath><clipPath id="65313e67df"><path d="M 329 421 L 414 421 L 414 486.277344 L 329 486.277344 Z M 329 421 "/></clipPath></defs><g id="3574102bde"><g clip-rule="nonzero" clip-path="url(#38ef3a5485)"><path style=" stroke:none;fill-rule:evenodd;fill:#009f91;fill-opacity:1;" d="M 659.089844 600.902344 C 672.53125 583.601562 684.421875 565.066406 694.617188 545.601562 L 595.761719 446.746094 C 587.417969 438.40625 573.519531 438.40625 565.175781 446.746094 L 431.257812 580.667969 L 430.792969 581.128906 C 419.363281 591.171875 405.925781 598.121094 391.558594 601.828125 C 473.425781 662.996094 572.589844 645.851562 659.089844 600.902344 "/></g><g clip-rule="nonzero" clip-path="url(#420d9f85a7)"><path style=" stroke:none;fill-rule:evenodd;fill:#009f91;fill-opacity:1;" d="M 141.636719 397.007812 C 123.71875 420.949219 111.207031 447.828125 105.492188 477.949219 C 95.757812 528.921875 106.417969 581.746094 125.878906 629.167969 C 130.824219 641.371094 136.539062 653.417969 142.714844 665.160156 C 207.28125 715.667969 286.367188 743.164062 368.390625 743.164062 L 369.316406 743.164062 C 445.777344 743.164062 519.609375 719.683594 581.242188 676.125 C 501.691406 694.816406 422.453125 683.695312 355.105469 627.933594 L 354.488281 627.46875 C 348.15625 622.21875 342.285156 616.65625 336.414062 610.941406 L 166.039062 440.257812 C 153.992188 428.210938 145.652344 413.226562 141.636719 397.007812 "/></g><path style=" stroke:none;fill-rule:evenodd;fill:#009f91;fill-opacity:1;" d="M 345.375 147.394531 C 263.816406 87 164.496094 103.988281 77.222656 149.867188 C 27.175781 214.429688 0.300781 293.207031 0.300781 374.917969 C 0.300781 451.226562 23.625 524.75 67.339844 586.691406 C 58.378906 548.382812 55.90625 508.839844 63.476562 469.761719 C 72.898438 420.332031 97.148438 377.699219 132.675781 342.171875 L 303.515625 171.335938 C 315.097656 159.75 329.617188 151.5625 345.375 147.394531 "/><g clip-rule="nonzero" clip-path="url(#45c82b0ccc)"><path style=" stroke:none;fill-rule:evenodd;fill:#009f91;fill-opacity:1;" d="M 694.617188 204.238281 C 631.132812 82.980469 505.707031 6.832031 368.390625 6.832031 C 314.019531 6.832031 260.417969 18.726562 211.144531 42.050781 C 191.992188 51.164062 173.765625 61.820312 156.464844 74.023438 C 245.28125 53.171875 331.625 69.699219 400.980469 139.207031 L 565.023438 303.25 C 573.363281 311.589844 587.265625 311.589844 595.605469 303.25 Z M 694.617188 204.238281 "/></g><path style=" stroke:none;fill-rule:nonzero;fill:#009f91;fill-opacity:1;" d="M 439.484375 289.742188 C 438.734375 287.859375 439.484375 285.601562 441.367188 284.847656 L 463.582031 273.929688 C 465.464844 273.175781 467.722656 273.929688 468.476562 275.8125 C 469.230469 277.695312 468.476562 279.953125 466.59375 280.707031 L 444.378906 291.625 C 442.875 292.378906 440.617188 291.625 439.484375 289.742188 Z M 439.484375 289.742188 "/><path style=" stroke:none;fill-rule:nonzero;fill:#009f91;fill-opacity:1;" d="M 489.183594 341.699219 L 458.6875 341.699219 C 456.429688 341.699219 454.921875 340.195312 454.921875 337.933594 C 454.921875 335.675781 456.429688 334.171875 458.6875 334.171875 L 489.183594 334.171875 C 491.445312 334.171875 492.949219 335.675781 492.949219 337.933594 C 492.949219 340.195312 491.445312 341.699219 489.183594 341.699219 Z M 489.183594 341.699219 "/><path style=" stroke:none;fill-rule:nonzero;fill:#009f91;fill-opacity:1;" d="M 463.582031 402.316406 L 441.367188 391.398438 C 439.484375 390.644531 438.734375 388.386719 439.484375 386.503906 C 440.238281 384.621094 442.5 383.867188 444.378906 384.621094 L 466.59375 395.539062 C 468.476562 396.292969 469.230469 398.550781 468.476562 400.433594 C 467.722656 402.316406 465.464844 403.070312 463.582031 402.316406 Z M 463.582031 402.316406 "/><path style=" stroke:none;fill-rule:nonzero;fill:#009f91;fill-opacity:1;" d="M 300.179688 291.25 L 277.964844 280.707031 C 276.460938 279.578125 275.332031 277.320312 276.460938 275.4375 C 277.214844 273.554688 279.472656 272.800781 281.355469 273.929688 L 303.570312 284.847656 C 305.453125 285.601562 306.203125 287.859375 305.453125 289.742188 C 304.320312 291.625 302.0625 292.378906 300.179688 291.25 Z M 300.179688 291.25 "/><g clip-rule="nonzero" clip-path="url(#1ff3e8c291)"><path style=" stroke:none;fill-rule:nonzero;fill:#009f91;fill-opacity:1;" d="M 286.25 341.699219 L 255.753906 341.699219 C 253.492188 341.699219 251.988281 340.195312 251.988281 337.933594 C 251.988281 335.675781 253.492188 334.171875 255.753906 334.171875 L 286.25 334.171875 C 288.507812 334.171875 290.015625 335.675781 290.015625 337.933594 C 290.015625 340.195312 288.507812 341.699219 286.25 341.699219 Z M 286.25 341.699219 "/></g><path style=" stroke:none;fill-rule:nonzero;fill:#009f91;fill-opacity:1;" d="M 276.460938 400.433594 C 275.707031 398.550781 276.460938 396.292969 278.34375 395.539062 L 300.558594 384.621094 C 302.4375 383.867188 304.699219 384.621094 305.453125 386.503906 C 306.203125 388.386719 305.453125 390.644531 303.570312 391.398438 L 281.355469 402.316406 C 279.472656 403.070312 277.214844 402.316406 276.460938 400.433594 Z M 276.460938 400.433594 "/><g clip-rule="nonzero" clip-path="url(#65313e67df)"><path style=" stroke:none;fill-rule:nonzero;fill:#009f91;fill-opacity:1;" d="M 399.953125 444.484375 L 399.953125 447.875 L 400.328125 447.875 C 402.210938 447.875 404.09375 449.757812 404.09375 451.640625 C 404.09375 453.898438 402.210938 455.40625 400.328125 455.40625 L 399.953125 455.40625 C 399.953125 462.558594 395.058594 468.582031 388.660156 470.464844 C 387.90625 479.5 380.375 486.277344 371.339844 486.277344 C 362.304688 486.277344 354.773438 479.125 354.019531 470.464844 C 347.621094 468.582031 343.101562 462.558594 342.726562 455.40625 L 342.347656 455.40625 C 340.464844 455.40625 338.582031 453.898438 338.582031 451.640625 C 338.582031 449.757812 340.464844 447.875 342.347656 447.875 L 342.726562 447.875 L 342.726562 444.484375 L 341.21875 444.484375 C 334.820312 444.484375 329.925781 439.589844 329.925781 433.191406 C 329.925781 426.789062 334.820312 421.894531 341.21875 421.894531 L 401.835938 421.894531 C 407.859375 421.894531 413.132812 426.789062 413.132812 433.191406 C 413.132812 439.589844 407.859375 444.484375 401.835938 444.484375 Z M 399.953125 444.484375 "/></g><path style=" stroke:none;fill-rule:nonzero;fill:#009f91;fill-opacity:1;" d="M 382.257812 350.359375 C 386.398438 350.359375 389.789062 346.972656 389.789062 342.828125 C 389.789062 338.6875 386.398438 335.300781 382.257812 335.300781 C 378.492188 335.300781 375.480469 337.933594 374.726562 341.699219 C 374.726562 342.078125 374.726562 342.453125 374.726562 343.207031 L 374.726562 345.089844 C 375.855469 347.722656 378.871094 350.359375 382.257812 350.359375 Z M 382.257812 350.359375 "/><path style=" stroke:none;fill-rule:nonzero;fill:#009f91;fill-opacity:1;" d="M 419.90625 385 C 411.625 393.65625 406.730469 404.199219 405.601562 415.117188 C 404.472656 414.742188 402.964844 414.742188 401.460938 414.742188 L 375.105469 414.742188 L 375.105469 356.007812 C 377.363281 357.136719 379.621094 357.890625 382.632812 357.890625 C 390.917969 357.890625 397.695312 351.113281 397.695312 342.828125 C 397.695312 334.546875 390.917969 327.769531 382.632812 327.769531 C 378.117188 327.769531 373.976562 329.652344 371.339844 332.664062 C 368.703125 329.652344 364.5625 327.769531 360.042969 327.769531 C 351.761719 327.769531 344.984375 334.546875 344.984375 342.828125 C 344.984375 351.113281 351.761719 357.890625 360.042969 357.890625 C 362.679688 357.890625 365.316406 357.136719 367.574219 355.632812 L 367.574219 414.367188 L 341.21875 414.367188 C 339.714844 414.367188 338.207031 414.367188 336.699219 415.117188 C 335.949219 403.824219 331.054688 393.65625 323.148438 385.75 C 278.71875 341.324219 313.359375 263.386719 378.492188 270.164062 C 433.085938 276.1875 459.816406 343.207031 419.90625 385 Z M 419.90625 385 "/><path style=" stroke:none;fill-rule:nonzero;fill:#009f91;fill-opacity:1;" d="M 360.042969 334.921875 C 355.902344 334.921875 352.515625 338.3125 352.515625 342.453125 C 352.515625 346.59375 355.902344 349.984375 360.042969 349.984375 C 363.808594 349.984375 366.820312 347.347656 367.574219 343.582031 C 367.574219 343.207031 367.574219 342.828125 367.574219 342.078125 C 367.574219 341.324219 367.574219 340.949219 367.574219 340.570312 C 366.820312 337.558594 363.808594 334.921875 360.042969 334.921875 Z M 360.042969 334.921875 "/><g style="fill:#000000;fill-opacity:1;"><g transform="translate(657.807189, 530.791292)"><path style="stroke:none" d="M 341.859375 -149.6875 C 341.859375 -124.21875 337.957031 -101.523438 330.15625 -81.609375 C 322.351562 -61.691406 311.367188 -44.957031 297.203125 -31.40625 C 283.035156 -17.863281 266.097656 -7.597656 246.390625 -0.609375 C 226.679688 6.367188 204.710938 9.859375 180.484375 9.859375 C 156.253906 9.859375 134.28125 6.164062 114.5625 -1.21875 C 94.851562 -8.613281 77.914062 -19.191406 63.75 -32.953125 C 49.582031 -46.710938 38.597656 -63.445312 30.796875 -83.15625 C 22.992188 -102.863281 19.09375 -125.039062 19.09375 -149.6875 C 19.09375 -173.90625 22.992188 -195.867188 30.796875 -215.578125 C 38.597656 -235.296875 49.582031 -252.03125 63.75 -265.78125 C 77.914062 -279.539062 94.851562 -290.113281 114.5625 -297.5 C 134.28125 -304.894531 156.253906 -308.59375 180.484375 -308.59375 C 204.710938 -308.59375 226.679688 -304.796875 246.390625 -297.203125 C 266.097656 -289.609375 283.035156 -278.929688 297.203125 -265.171875 C 311.367188 -251.421875 322.351562 -234.6875 330.15625 -214.96875 C 337.957031 -195.257812 341.859375 -173.5 341.859375 -149.6875 Z M 126.28125 -149.6875 C 126.28125 -124.632812 131.101562 -105.429688 140.75 -92.078125 C 150.394531 -78.734375 163.84375 -72.0625 181.09375 -72.0625 C 198.34375 -72.0625 211.585938 -78.835938 220.828125 -92.390625 C 230.066406 -105.941406 234.6875 -125.039062 234.6875 -149.6875 C 234.6875 -174.320312 229.960938 -193.3125 220.515625 -206.65625 C 211.066406 -220 197.722656 -226.671875 180.484375 -226.671875 C 163.234375 -226.671875 149.882812 -220 140.4375 -206.65625 C 131 -193.3125 126.28125 -174.320312 126.28125 -149.6875 Z M 126.28125 -149.6875 "/></g></g><g style="fill:#000000;fill-opacity:1;"><g transform="translate(1018.751672, 530.791292)"><path style="stroke:none" d="M 32.03125 -295.046875 C 36.132812 -296.273438 42.597656 -297.503906 51.421875 -298.734375 C 60.253906 -299.972656 69.394531 -300.59375 78.84375 -300.59375 C 87.875 -300.59375 95.984375 -299.972656 103.171875 -298.734375 C 110.359375 -297.503906 116.414062 -295.039062 121.34375 -291.34375 C 126.269531 -287.65625 130.066406 -282.628906 132.734375 -276.265625 C 135.410156 -269.898438 136.75 -261.582031 136.75 -251.3125 L 136.75 -118.875 C 136.75 -102.039062 140.851562 -90.03125 149.0625 -82.84375 C 157.28125 -75.65625 169.191406 -72.0625 184.796875 -72.0625 C 194.234375 -72.0625 201.929688 -72.882812 207.890625 -74.53125 C 213.847656 -76.175781 218.46875 -77.816406 221.75 -79.453125 L 221.75 -295.046875 C 225.851562 -296.273438 232.316406 -297.503906 241.140625 -298.734375 C 249.972656 -299.972656 259.113281 -300.59375 268.5625 -300.59375 C 277.59375 -300.59375 285.703125 -299.972656 292.890625 -298.734375 C 300.078125 -297.503906 306.132812 -295.039062 311.0625 -291.34375 C 315.988281 -287.65625 319.785156 -282.628906 322.453125 -276.265625 C 325.128906 -269.898438 326.46875 -261.582031 326.46875 -251.3125 L 326.46875 -64.0625 C 326.46875 -43.53125 317.84375 -28.128906 300.59375 -17.859375 C 286.21875 -8.828125 269.070312 -1.953125 249.15625 2.765625 C 229.238281 7.492188 207.578125 9.859375 184.171875 9.859375 C 161.992188 9.859375 141.5625 7.394531 122.875 2.46875 C 104.195312 -2.457031 88.082031 -10.050781 74.53125 -20.3125 C 60.976562 -30.582031 50.503906 -43.828125 43.109375 -60.046875 C 35.722656 -76.273438 32.03125 -95.882812 32.03125 -118.875 Z M 32.03125 -295.046875 "/></g></g><g style="fill:#000000;fill-opacity:1;"><g transform="translate(1377.232402, 530.791292)"><path style="stroke:none" d="M 136.75 -0.609375 C 132.632812 0.617188 126.160156 1.847656 117.328125 3.078125 C 108.503906 4.304688 99.375 4.921875 89.9375 4.921875 C 80.894531 4.921875 72.78125 4.304688 65.59375 3.078125 C 58.414062 1.847656 52.359375 -0.613281 47.421875 -4.3125 C 42.492188 -8.007812 38.695312 -13.039062 36.03125 -19.40625 C 33.363281 -25.769531 32.03125 -34.082031 32.03125 -44.34375 L 32.03125 -229.140625 C 32.03125 -238.585938 33.773438 -246.695312 37.265625 -253.46875 C 40.753906 -260.25 45.785156 -266.304688 52.359375 -271.640625 C 58.929688 -276.984375 67.039062 -281.804688 76.6875 -286.109375 C 86.332031 -290.421875 96.695312 -294.21875 107.78125 -297.5 C 118.875 -300.789062 130.375 -303.359375 142.28125 -305.203125 C 154.195312 -307.054688 166.109375 -307.984375 178.015625 -307.984375 C 197.722656 -307.984375 213.328125 -304.179688 224.828125 -296.578125 C 236.328125 -288.984375 242.078125 -276.566406 242.078125 -259.328125 C 242.078125 -253.578125 241.253906 -247.925781 239.609375 -242.375 C 237.960938 -236.832031 235.910156 -231.804688 233.453125 -227.296875 C 224.828125 -227.296875 216 -226.882812 206.96875 -226.0625 C 197.9375 -225.238281 189.109375 -224.003906 180.484375 -222.359375 C 171.859375 -220.722656 163.742188 -218.976562 156.140625 -217.125 C 148.546875 -215.28125 142.082031 -213.125 136.75 -210.65625 Z M 136.75 -0.609375 "/></g></g><g style="fill:#000000;fill-opacity:1;"><g transform="translate(1630.386305, 530.791292)"><path style="stroke:none" d="M 284.578125 -89.3125 C 284.578125 -58.101562 272.875 -33.671875 249.46875 -16.015625 C 226.0625 1.640625 191.566406 10.46875 145.984375 10.46875 C 128.734375 10.46875 112.71875 9.234375 97.9375 6.765625 C 83.15625 4.304688 70.523438 0.515625 60.046875 -4.609375 C 49.578125 -9.742188 41.363281 -16.210938 35.40625 -24.015625 C 29.457031 -31.816406 26.484375 -41.054688 26.484375 -51.734375 C 26.484375 -61.597656 28.535156 -69.914062 32.640625 -76.6875 C 36.753906 -83.46875 41.679688 -89.113281 47.421875 -93.625 C 59.335938 -87.050781 72.992188 -81.195312 88.390625 -76.0625 C 103.785156 -70.9375 121.546875 -68.375 141.671875 -68.375 C 154.398438 -68.375 164.148438 -70.21875 170.921875 -73.90625 C 177.703125 -77.601562 181.09375 -82.535156 181.09375 -88.703125 C 181.09375 -94.453125 178.628906 -98.96875 173.703125 -102.25 C 168.773438 -105.53125 160.5625 -108.203125 149.0625 -110.265625 L 130.578125 -113.953125 C 94.859375 -120.929688 68.269531 -131.914062 50.8125 -146.90625 C 33.363281 -161.894531 24.640625 -183.351562 24.640625 -211.28125 C 24.640625 -226.46875 27.921875 -240.222656 34.484375 -252.546875 C 41.054688 -264.867188 50.296875 -275.132812 62.203125 -283.34375 C 74.117188 -291.5625 88.390625 -297.925781 105.015625 -302.4375 C 121.648438 -306.957031 140.03125 -309.21875 160.15625 -309.21875 C 175.34375 -309.21875 189.609375 -308.085938 202.953125 -305.828125 C 216.304688 -303.566406 227.910156 -300.175781 237.765625 -295.65625 C 247.617188 -291.144531 255.421875 -285.296875 261.171875 -278.109375 C 266.921875 -270.921875 269.796875 -262.398438 269.796875 -252.546875 C 269.796875 -243.097656 268.050781 -234.984375 264.5625 -228.203125 C 261.070312 -221.429688 256.65625 -215.789062 251.3125 -211.28125 C 248.03125 -213.332031 243.101562 -215.484375 236.53125 -217.734375 C 229.957031 -219.992188 222.769531 -222.046875 214.96875 -223.890625 C 207.164062 -225.742188 199.257812 -227.285156 191.25 -228.515625 C 183.25 -229.753906 175.960938 -230.375 169.390625 -230.375 C 155.835938 -230.375 145.363281 -228.832031 137.96875 -225.75 C 130.582031 -222.664062 126.890625 -217.84375 126.890625 -211.28125 C 126.890625 -206.757812 128.941406 -203.0625 133.046875 -200.1875 C 137.148438 -197.3125 144.953125 -194.644531 156.453125 -192.1875 L 175.546875 -187.875 C 214.972656 -178.832031 243 -166.40625 259.625 -150.59375 C 276.257812 -134.789062 284.578125 -114.363281 284.578125 -89.3125 Z M 284.578125 -89.3125 "/></g></g><g style="fill:#000000;fill-opacity:1;"><g transform="translate(1936.511711, 530.791292)"><path style="stroke:none" d="M 190.328125 9.859375 C 166.097656 9.859375 143.613281 6.472656 122.875 -0.296875 C 102.144531 -7.078125 84.078125 -17.242188 68.671875 -30.796875 C 53.273438 -44.347656 41.160156 -61.390625 32.328125 -81.921875 C 23.503906 -102.453125 19.09375 -126.472656 19.09375 -153.984375 C 19.09375 -181.085938 23.503906 -204.390625 32.328125 -223.890625 C 41.160156 -243.398438 52.765625 -259.414062 67.140625 -271.9375 C 81.515625 -284.46875 97.941406 -293.707031 116.421875 -299.65625 C 134.898438 -305.613281 153.789062 -308.59375 173.09375 -308.59375 C 194.851562 -308.59375 214.664062 -305.304688 232.53125 -298.734375 C 250.394531 -292.171875 265.789062 -283.140625 278.71875 -271.640625 C 291.65625 -260.140625 301.71875 -246.378906 308.90625 -230.359375 C 316.09375 -214.347656 319.6875 -196.898438 319.6875 -178.015625 C 319.6875 -164.054688 315.785156 -153.378906 307.984375 -145.984375 C 300.179688 -138.585938 289.300781 -133.863281 275.34375 -131.8125 L 123.1875 -109.03125 C 127.707031 -95.476562 136.945312 -85.3125 150.90625 -78.53125 C 164.875 -71.757812 180.890625 -68.375 198.953125 -68.375 C 215.796875 -68.375 231.707031 -70.53125 246.6875 -74.84375 C 261.675781 -79.15625 273.894531 -84.1875 283.34375 -89.9375 C 289.914062 -85.820312 295.457031 -80.066406 299.96875 -72.671875 C 304.488281 -65.285156 306.75 -57.488281 306.75 -49.28125 C 306.75 -30.800781 298.125 -17.039062 280.875 -8 C 267.738281 -1.019531 252.957031 3.695312 236.53125 6.15625 C 220.101562 8.625 204.703125 9.859375 190.328125 9.859375 Z M 173.09375 -232.21875 C 163.226562 -232.21875 154.703125 -230.570312 147.515625 -227.28125 C 140.335938 -224 134.488281 -219.789062 129.96875 -214.65625 C 125.445312 -209.53125 122.054688 -203.785156 119.796875 -197.421875 C 117.546875 -191.054688 116.210938 -184.585938 115.796875 -178.015625 L 221.125 -195.265625 C 219.894531 -203.472656 215.378906 -211.679688 207.578125 -219.890625 C 199.773438 -228.109375 188.28125 -232.21875 173.09375 -232.21875 Z M 173.09375 -232.21875 "/></g></g><g style="fill:#000000;fill-opacity:1;"><g transform="translate(2274.666269, 530.791292)"><path style="stroke:none" d="M 160.15625 -66.53125 C 167.132812 -66.53125 174.832031 -67.25 183.25 -68.6875 C 191.664062 -70.125 197.925781 -72.070312 202.03125 -74.53125 L 202.03125 -123.8125 L 157.6875 -120.109375 C 146.1875 -119.285156 136.738281 -116.820312 129.34375 -112.71875 C 121.957031 -108.613281 118.265625 -102.457031 118.265625 -94.25 C 118.265625 -86.03125 121.445312 -79.351562 127.8125 -74.21875 C 134.175781 -69.09375 144.957031 -66.53125 160.15625 -66.53125 Z M 155.21875 -308.59375 C 177.394531 -308.59375 197.617188 -306.332031 215.890625 -301.8125 C 234.171875 -297.300781 249.773438 -290.425781 262.703125 -281.1875 C 275.640625 -271.945312 285.597656 -260.242188 292.578125 -246.078125 C 299.566406 -231.910156 303.0625 -215.175781 303.0625 -195.875 L 303.0625 -57.90625 C 303.0625 -47.226562 300.082031 -38.5 294.125 -31.71875 C 288.164062 -24.945312 281.082031 -19.097656 272.875 -14.171875 C 246.1875 1.847656 208.613281 9.859375 160.15625 9.859375 C 138.382812 9.859375 118.769531 7.800781 101.3125 3.6875 C 83.863281 -0.414062 68.878906 -6.570312 56.359375 -14.78125 C 43.835938 -23 34.1875 -33.472656 27.40625 -46.203125 C 20.632812 -58.929688 17.25 -73.710938 17.25 -90.546875 C 17.25 -118.878906 25.664062 -140.640625 42.5 -155.828125 C 59.332031 -171.023438 85.410156 -180.472656 120.734375 -184.171875 L 201.421875 -192.796875 L 201.421875 -197.109375 C 201.421875 -209.015625 196.179688 -217.535156 185.703125 -222.671875 C 175.234375 -227.804688 160.144531 -230.375 140.4375 -230.375 C 124.832031 -230.375 109.640625 -228.726562 94.859375 -225.4375 C 80.078125 -222.15625 66.734375 -218.050781 54.828125 -213.125 C 49.484375 -216.820312 44.960938 -222.46875 41.265625 -230.0625 C 37.566406 -237.65625 35.71875 -245.5625 35.71875 -253.78125 C 35.71875 -264.457031 38.285156 -272.976562 43.421875 -279.34375 C 48.554688 -285.707031 56.460938 -291.148438 67.140625 -295.671875 C 79.046875 -300.179688 93.109375 -303.460938 109.328125 -305.515625 C 125.554688 -307.566406 140.851562 -308.59375 155.21875 -308.59375 Z M 155.21875 -308.59375 "/></g></g><g style="fill:#000000;fill-opacity:1;"><g transform="translate(2609.741058, 530.791292)"><path style="stroke:none" d="M 136.75 -0.609375 C 132.632812 0.617188 126.160156 1.847656 117.328125 3.078125 C 108.503906 4.304688 99.375 4.921875 89.9375 4.921875 C 80.894531 4.921875 72.78125 4.304688 65.59375 3.078125 C 58.414062 1.847656 52.359375 -0.613281 47.421875 -4.3125 C 42.492188 -8.007812 38.695312 -13.039062 36.03125 -19.40625 C 33.363281 -25.769531 32.03125 -34.082031 32.03125 -44.34375 L 32.03125 -229.140625 C 32.03125 -238.585938 33.773438 -246.695312 37.265625 -253.46875 C 40.753906 -260.25 45.785156 -266.304688 52.359375 -271.640625 C 58.929688 -276.984375 67.039062 -281.804688 76.6875 -286.109375 C 86.332031 -290.421875 96.695312 -294.21875 107.78125 -297.5 C 118.875 -300.789062 130.375 -303.359375 142.28125 -305.203125 C 154.195312 -307.054688 166.109375 -307.984375 178.015625 -307.984375 C 197.722656 -307.984375 213.328125 -304.179688 224.828125 -296.578125 C 236.328125 -288.984375 242.078125 -276.566406 242.078125 -259.328125 C 242.078125 -253.578125 241.253906 -247.925781 239.609375 -242.375 C 237.960938 -236.832031 235.910156 -231.804688 233.453125 -227.296875 C 224.828125 -227.296875 216 -226.882812 206.96875 -226.0625 C 197.9375 -225.238281 189.109375 -224.003906 180.484375 -222.359375 C 171.859375 -220.722656 163.742188 -218.976562 156.140625 -217.125 C 148.546875 -215.28125 142.082031 -213.125 136.75 -210.65625 Z M 136.75 -0.609375 "/></g></g><g style="fill:#000000;fill-opacity:1;"><g transform="translate(2862.89488, 530.791292)"><path style="stroke:none" d="M 138.59375 -0.609375 C 134.070312 0.203125 127.394531 1.328125 118.5625 2.765625 C 109.738281 4.203125 100.8125 4.921875 91.78125 4.921875 C 82.75 4.921875 74.640625 4.304688 67.453125 3.078125 C 60.265625 1.847656 54.207031 -0.613281 49.28125 -4.3125 C 44.351562 -8.007812 40.550781 -13.039062 37.875 -19.40625 C 35.207031 -25.769531 33.875 -34.082031 33.875 -44.34375 L 33.875 -401.609375 C 38.394531 -402.429688 45.066406 -403.5625 53.890625 -405 C 62.722656 -406.4375 71.65625 -407.15625 80.6875 -407.15625 C 89.726562 -407.15625 97.835938 -406.535156 105.015625 -405.296875 C 112.203125 -404.066406 118.257812 -401.601562 123.1875 -397.90625 C 128.113281 -394.21875 131.910156 -389.191406 134.578125 -382.828125 C 137.253906 -376.460938 138.59375 -368.144531 138.59375 -357.875 Z M 138.59375 -0.609375 "/></g></g><g style="fill:#000000;fill-opacity:1;"><g transform="translate(3035.359771, 530.791292)"><path style="stroke:none" d="M 78.84375 -76.375 C 74.320312 -86.644531 69.492188 -98.144531 64.359375 -110.875 C 59.234375 -123.601562 53.894531 -138.179688 48.34375 -154.609375 C 42.800781 -171.035156 37.050781 -189.820312 31.09375 -210.96875 C 25.144531 -232.113281 18.882812 -256.445312 12.3125 -283.96875 C 18.0625 -289.707031 25.757812 -294.734375 35.40625 -299.046875 C 45.0625 -303.359375 55.640625 -305.515625 67.140625 -305.515625 C 81.515625 -305.515625 93.421875 -302.535156 102.859375 -296.578125 C 112.304688 -290.628906 119.289062 -279.441406 123.8125 -263.015625 L 172.46875 -93.625 L 174.9375 -93.625 C 179.863281 -107.582031 184.6875 -122.773438 189.40625 -139.203125 C 194.132812 -155.628906 198.753906 -172.566406 203.265625 -190.015625 C 207.785156 -207.472656 211.992188 -224.925781 215.890625 -242.375 C 219.796875 -259.832031 223.1875 -276.976562 226.0625 -293.8125 C 240.84375 -301.613281 257.0625 -305.515625 274.71875 -305.515625 C 289.09375 -305.515625 301 -302.4375 310.4375 -296.28125 C 319.882812 -290.125 324.609375 -279.445312 324.609375 -264.25 C 324.609375 -253.164062 323.171875 -240.332031 320.296875 -225.75 C 317.421875 -211.175781 313.625 -195.675781 308.90625 -179.25 C 304.1875 -162.820312 298.644531 -145.878906 292.28125 -128.421875 C 285.914062 -110.972656 279.238281 -93.828125 272.25 -76.984375 C 265.269531 -60.148438 258.082031 -44.238281 250.6875 -29.25 C 243.300781 -14.269531 236.117188 -0.820312 229.140625 11.09375 C 217.640625 31.207031 206.960938 47.628906 197.109375 60.359375 C 187.253906 73.085938 177.804688 83.046875 168.765625 90.234375 C 159.734375 97.421875 150.703125 102.347656 141.671875 105.015625 C 132.640625 107.691406 123.195312 109.03125 113.34375 109.03125 C 96.09375 109.03125 82.128906 103.894531 71.453125 93.625 C 60.773438 83.363281 54.410156 70.019531 52.359375 53.59375 C 65.492188 43.320312 78.628906 31.921875 91.765625 19.390625 C 104.910156 6.867188 116.820312 -5.957031 127.5 -19.09375 C 120.519531 -21.144531 113.023438 -25.96875 105.015625 -33.5625 C 97.015625 -41.164062 88.289062 -55.4375 78.84375 -76.375 Z M 78.84375 -76.375 "/></g></g></g></svg>