<svg xmlns="http://www.w3.org/2000/svg" xmlns:xlink="http://www.w3.org/1999/xlink" width="5000" zoomAndPan="magnify" viewBox="0 0 3750 1274.999945" height="1700" preserveAspectRatio="xMidYMid meet" version="1.2"><defs><clipPath id="a73d5c2eb2"><path d="M 985 244.347656 L 1397 244.347656 L 1397 361 L 985 361 Z M 985 244.347656 "/></clipPath><clipPath id="0bacb785d0"><path d="M 876.171875 733 L 933 733 L 933 769 L 876.171875 769 Z M 876.171875 733 "/></clipPath><clipPath id="c28d4fcce4"><path d="M 876.171875 730 L 933 730 L 933 766 L 876.171875 766 Z M 876.171875 730 "/></clipPath><clipPath id="91e4ee10ea"><path d="M 1448 733 L 1505.371094 733 L 1505.371094 769 L 1448 769 Z M 1448 733 "/></clipPath><clipPath id="1aebaf5584"><path d="M 1448 730 L 1505.371094 730 L 1505.371094 765.699219 L 1448 765.699219 Z M 1448 730 "/></clipPath><clipPath id="ca90ce1830"><path d="M 1139 981 L 1187 981 L 1187 1030.296875 L 1139 1030.296875 Z M 1139 981 "/></clipPath><clipPath id="c4b9f5c970"><path d="M 1195 981 L 1243 981 L 1243 1030.296875 L 1195 1030.296875 Z M 1195 981 "/></clipPath></defs><g id="5368f2bf72"><g style="fill:#000000;fill-opacity:1;"><g transform="translate(1506.058805, 879.766713)"><path style="stroke:none" d="M 530.53125 -166.515625 C 530.53125 -108.328125 508.710938 -62.773438 465.078125 -29.859375 C 421.441406 3.054688 357.132812 19.515625 272.15625 19.515625 C 240 19.515625 210.140625 17.21875 182.578125 12.625 C 155.023438 8.03125 131.488281 0.953125 111.96875 -8.609375 C 92.445312 -18.179688 77.132812 -30.238281 66.03125 -44.78125 C 54.925781 -59.332031 49.375 -76.554688 49.375 -96.453125 C 49.375 -114.828125 53.203125 -130.332031 60.859375 -142.96875 C 68.515625 -155.601562 77.703125 -166.128906 88.421875 -174.546875 C 110.617188 -162.296875 136.070312 -151.382812 164.78125 -141.8125 C 193.488281 -132.25 226.601562 -127.46875 264.125 -127.46875 C 287.851562 -127.46875 306.03125 -130.910156 318.65625 -137.796875 C 331.289062 -144.691406 337.609375 -153.878906 337.609375 -165.359375 C 337.609375 -176.078125 333.015625 -184.5 323.828125 -190.625 C 314.640625 -196.75 299.332031 -201.722656 277.90625 -205.546875 L 243.453125 -212.4375 C 176.847656 -225.457031 127.273438 -245.9375 94.734375 -273.875 C 62.203125 -301.820312 45.9375 -341.820312 45.9375 -393.875 C 45.9375 -422.207031 52.0625 -447.851562 64.3125 -470.8125 C 76.5625 -493.78125 93.785156 -512.921875 115.984375 -528.234375 C 138.179688 -543.546875 164.78125 -555.410156 195.78125 -563.828125 C 226.789062 -572.253906 261.050781 -576.46875 298.5625 -576.46875 C 326.894531 -576.46875 353.5 -574.363281 378.375 -570.15625 C 403.257812 -565.945312 424.890625 -559.628906 443.265625 -551.203125 C 461.640625 -542.785156 476.179688 -531.875 486.890625 -518.46875 C 497.609375 -505.070312 502.96875 -489.191406 502.96875 -470.828125 C 502.96875 -453.210938 499.710938 -438.085938 493.203125 -425.453125 C 486.703125 -412.828125 478.476562 -402.300781 468.53125 -393.875 C 462.40625 -397.707031 453.21875 -401.726562 440.96875 -405.9375 C 428.71875 -410.144531 415.316406 -413.972656 400.765625 -417.421875 C 386.222656 -420.867188 371.488281 -423.738281 356.5625 -426.03125 C 341.632812 -428.332031 328.046875 -429.484375 315.796875 -429.484375 C 290.535156 -429.484375 271.015625 -426.609375 257.234375 -420.859375 C 243.453125 -415.117188 236.5625 -406.125 236.5625 -393.875 C 236.5625 -385.457031 240.390625 -378.566406 248.046875 -373.203125 C 255.703125 -367.847656 270.242188 -362.875 291.671875 -358.28125 L 327.28125 -350.25 C 400.769531 -333.40625 453.015625 -310.242188 484.015625 -280.765625 C 515.023438 -251.296875 530.53125 -213.210938 530.53125 -166.515625 Z M 530.53125 -166.515625 "/></g></g><g style="fill:#000000;fill-opacity:1;"><g transform="translate(2076.738588, 879.766713)"><path style="stroke:none" d="M 354.84375 18.375 C 309.675781 18.375 267.757812 12.0625 229.09375 -0.5625 C 190.4375 -13.195312 156.753906 -32.144531 128.046875 -57.40625 C 99.335938 -82.675781 76.75 -114.445312 60.28125 -152.71875 C 43.820312 -191 35.59375 -235.789062 35.59375 -287.09375 C 35.59375 -337.613281 43.820312 -381.054688 60.28125 -417.421875 C 76.75 -453.785156 98.378906 -483.640625 125.171875 -506.984375 C 151.960938 -530.335938 182.582031 -547.5625 217.03125 -558.65625 C 251.488281 -569.757812 286.707031 -575.3125 322.6875 -575.3125 C 363.257812 -575.3125 400.195312 -569.1875 433.5 -556.9375 C 466.800781 -544.695312 495.507812 -527.859375 519.625 -506.421875 C 543.738281 -484.984375 562.492188 -459.332031 575.890625 -429.46875 C 589.285156 -399.613281 595.984375 -367.082031 595.984375 -331.875 C 595.984375 -305.84375 588.710938 -285.9375 574.171875 -272.15625 C 559.628906 -258.375 539.34375 -249.570312 513.3125 -245.75 L 229.671875 -203.25 C 238.085938 -177.988281 255.3125 -159.039062 281.34375 -146.40625 C 307.375 -133.78125 337.234375 -127.46875 370.921875 -127.46875 C 402.304688 -127.46875 431.96875 -131.484375 459.90625 -139.515625 C 487.851562 -147.554688 510.628906 -156.9375 528.234375 -167.65625 C 540.484375 -160 550.816406 -149.28125 559.234375 -135.5 C 567.660156 -121.71875 571.875 -107.175781 571.875 -91.875 C 571.875 -57.414062 555.796875 -31.765625 523.640625 -14.921875 C 499.140625 -1.910156 471.578125 6.890625 440.953125 11.484375 C 410.335938 16.078125 381.632812 18.375 354.84375 18.375 Z M 322.6875 -432.921875 C 304.3125 -432.921875 288.425781 -429.859375 275.03125 -423.734375 C 261.632812 -417.609375 250.722656 -409.757812 242.296875 -400.1875 C 233.878906 -390.625 227.5625 -379.910156 223.34375 -368.046875 C 219.132812 -356.179688 216.648438 -344.125 215.890625 -331.875 L 412.25 -364.03125 C 409.957031 -379.332031 401.535156 -394.640625 386.984375 -409.953125 C 372.441406 -425.265625 351.007812 -432.921875 322.6875 -432.921875 Z M 322.6875 -432.921875 "/></g></g><g style="fill:#000000;fill-opacity:1;"><g transform="translate(2707.126609, 879.766713)"><path style="stroke:none" d="M 254.9375 -1.140625 C 247.28125 1.148438 235.21875 3.441406 218.75 5.734375 C 202.289062 8.035156 185.257812 9.1875 167.65625 9.1875 C 150.8125 9.1875 135.691406 8.035156 122.296875 5.734375 C 108.898438 3.441406 97.609375 -1.144531 88.421875 -8.03125 C 79.234375 -14.925781 72.148438 -24.304688 67.171875 -36.171875 C 62.203125 -48.035156 59.71875 -63.539062 59.71875 -82.6875 L 59.71875 -427.1875 C 59.71875 -444.789062 62.96875 -459.90625 69.46875 -472.53125 C 75.976562 -485.164062 85.359375 -496.460938 97.609375 -506.421875 C 109.859375 -516.367188 124.976562 -525.363281 142.96875 -533.40625 C 160.957031 -541.445312 180.285156 -548.53125 200.953125 -554.65625 C 221.628906 -560.78125 243.066406 -565.5625 265.265625 -569 C 287.460938 -572.445312 309.664062 -574.171875 331.875 -574.171875 C 368.613281 -574.171875 397.703125 -567.085938 419.140625 -552.921875 C 440.578125 -538.765625 451.296875 -515.609375 451.296875 -483.453125 C 451.296875 -472.734375 449.765625 -462.207031 446.703125 -451.875 C 443.640625 -441.539062 439.8125 -432.160156 435.21875 -423.734375 C 419.144531 -423.734375 402.6875 -422.96875 385.84375 -421.4375 C 369 -419.90625 352.535156 -417.609375 336.453125 -414.546875 C 320.378906 -411.484375 305.257812 -408.226562 291.09375 -404.78125 C 276.9375 -401.34375 264.882812 -397.328125 254.9375 -392.734375 Z M 254.9375 -1.140625 "/></g></g><g style="fill:#000000;fill-opacity:1;"><g transform="translate(3161.831945, 879.766713)"><path style="stroke:none" d="M 298.5625 -124.015625 C 311.582031 -124.015625 325.9375 -125.351562 341.625 -128.03125 C 357.320312 -130.71875 369 -134.359375 376.65625 -138.953125 L 376.65625 -230.8125 L 293.96875 -223.921875 C 272.539062 -222.390625 254.9375 -217.796875 241.15625 -210.140625 C 227.375 -202.484375 220.484375 -191.003906 220.484375 -175.703125 C 220.484375 -160.390625 226.414062 -147.945312 238.28125 -138.375 C 250.144531 -128.800781 270.238281 -124.015625 298.5625 -124.015625 Z M 289.375 -575.3125 C 330.71875 -575.3125 368.421875 -571.101562 402.484375 -562.6875 C 436.554688 -554.269531 465.648438 -541.445312 489.765625 -524.21875 C 513.878906 -506.988281 532.441406 -485.164062 545.453125 -458.75 C 558.472656 -432.34375 564.984375 -401.148438 564.984375 -365.171875 L 564.984375 -107.9375 C 564.984375 -88.039062 559.429688 -71.773438 548.328125 -59.140625 C 537.234375 -46.503906 524.03125 -35.59375 508.71875 -26.40625 C 458.957031 3.445312 388.90625 18.375 298.5625 18.375 C 257.988281 18.375 221.429688 14.546875 188.890625 6.890625 C 156.359375 -0.765625 128.414062 -12.25 105.0625 -27.5625 C 81.71875 -42.875 63.726562 -62.394531 51.09375 -86.125 C 38.46875 -109.851562 32.15625 -137.414062 32.15625 -168.8125 C 32.15625 -221.632812 47.847656 -262.207031 79.234375 -290.53125 C 110.617188 -318.851562 159.234375 -336.460938 225.078125 -343.359375 L 375.515625 -359.4375 L 375.515625 -367.46875 C 375.515625 -389.664062 365.75 -405.550781 346.21875 -415.125 C 326.695312 -424.695312 298.566406 -429.484375 261.828125 -429.484375 C 232.734375 -429.484375 204.40625 -426.421875 176.84375 -420.296875 C 149.28125 -414.171875 124.398438 -406.515625 102.203125 -397.328125 C 92.253906 -404.210938 83.832031 -414.738281 76.9375 -428.90625 C 70.050781 -443.070312 66.609375 -457.8125 66.609375 -473.125 C 66.609375 -493.019531 71.390625 -508.898438 80.953125 -520.765625 C 90.523438 -532.640625 105.265625 -542.785156 125.171875 -551.203125 C 147.367188 -559.628906 173.585938 -565.753906 203.828125 -569.578125 C 234.066406 -573.398438 262.582031 -575.3125 289.375 -575.3125 Z M 289.375 -575.3125 "/></g></g><path style=" stroke:none;fill-rule:evenodd;fill:#000000;fill-opacity:1;" d="M 1323.929688 352.949219 C 1322.875 352.949219 1321.855469 353.066406 1320.863281 353.273438 L 1320.863281 332.1875 L 1326.992188 330.8125 L 1326.992188 353.273438 C 1325.988281 353.058594 1324.960938 352.949219 1323.929688 352.949219 "/><path style=" stroke:none;fill-rule:evenodd;fill:#edc032;fill-opacity:1;" d="M 1323.929688 350.480469 C 1322.875 350.480469 1321.855469 350.589844 1320.863281 350.800781 L 1320.863281 329.726562 L 1326.992188 328.34375 L 1326.992188 350.800781 C 1325.988281 350.589844 1324.960938 350.480469 1323.929688 350.480469 "/><path style=" stroke:none;fill-rule:evenodd;fill:#000000;fill-opacity:1;" d="M 1323.929688 378.214844 C 1317.984375 378.214844 1313.164062 373.398438 1313.164062 367.457031 C 1313.164062 361.515625 1317.984375 356.699219 1323.929688 356.699219 C 1329.871094 356.699219 1334.691406 361.515625 1334.691406 367.457031 C 1334.691406 373.398438 1329.871094 378.214844 1323.929688 378.214844 "/><path style=" stroke:none;fill-rule:evenodd;fill:#edc032;fill-opacity:1;" d="M 1323.929688 375.746094 C 1317.984375 375.746094 1313.164062 370.929688 1313.164062 364.988281 C 1313.164062 359.046875 1317.984375 354.230469 1323.929688 354.230469 C 1329.871094 354.230469 1334.691406 359.046875 1334.691406 364.988281 C 1334.691406 370.929688 1329.871094 375.746094 1323.929688 375.746094 "/><path style=" stroke:none;fill-rule:evenodd;fill:#000000;fill-opacity:1;" d="M 1328.304688 468.550781 C 1321.855469 469.863281 1315.066406 468.152344 1307.867188 462.746094 L 1318.910156 383.542969 C 1320.476562 384.117188 1322.144531 384.433594 1323.929688 384.433594 C 1325.710938 384.433594 1327.457031 384.105469 1329.046875 383.503906 L 1339.996094 462.746094 C 1338.066406 464.273438 1336.125 465.53125 1334.140625 466.507812 L 1331.941406 452.71875 L 1326.816406 420.582031 L 1327.8125 452.71875 L 1328.304688 468.550781 "/><path style=" stroke:none;fill-rule:evenodd;fill:#edc032;fill-opacity:1;" d="M 1328.304688 466.082031 C 1321.855469 467.394531 1315.066406 465.683594 1307.867188 460.277344 L 1318.910156 381.070312 C 1320.476562 381.648438 1322.144531 381.964844 1323.929688 381.964844 C 1325.710938 381.964844 1327.457031 381.632812 1329.046875 381.03125 L 1339.996094 460.277344 C 1338.066406 461.800781 1336.125 463.0625 1334.140625 464.039062 L 1331.941406 450.25 L 1326.816406 418.109375 L 1327.8125 450.25 L 1328.304688 466.082031 "/><g clip-rule="nonzero" clip-path="url(#a73d5c2eb2)"><path style=" stroke:none;fill-rule:evenodd;fill:#000000;fill-opacity:1;" d="M 1394.847656 300.5625 L 1191.390625 244.4375 C 1191.007812 244.320312 1190.644531 244.320312 1190.265625 244.4375 L 986.804688 300.5625 C 985.945312 300.792969 985.382812 301.472656 985.382812 302.269531 C 985.382812 303.0625 985.945312 303.734375 986.804688 303.976562 L 1190.265625 360.097656 C 1190.644531 360.214844 1191.007812 360.214844 1191.390625 360.097656 L 1317.285156 323.957031 L 1193.125 288.285156 C 1189.242188 286.996094 1190.921875 282.832031 1194.863281 283.699219 L 1328.253906 320.992188 L 1394.847656 303.976562 C 1395.707031 303.734375 1396.269531 303.0625 1396.269531 302.269531 C 1396.269531 301.472656 1395.707031 300.792969 1394.847656 300.5625 "/></g><path style=" stroke:none;fill-rule:evenodd;fill:#000000;fill-opacity:1;" d="M 1102.453125 414.828125 C 1094.671875 409.382812 1085 402.554688 1079.863281 395.484375 L 1088.164062 338.816406 L 1109.882812 344.894531 Z M 1121.308594 426.675781 C 1119.742188 425.980469 1118.191406 425.253906 1116.667969 424.484375 C 1116.398438 424.351562 1116.125 424.214844 1115.855469 424.070312 L 1122.652344 348.8125 L 1126.671875 349.972656 Z M 1293.476562 339.105469 L 1302.261719 395.863281 C 1294.660156 406.738281 1279.089844 417.988281 1265.6875 424.691406 C 1242.855469 436.128906 1215.335938 439.859375 1189.851562 448.78125 C 1169.410156 440.796875 1147.238281 436.949219 1127.421875 429.230469 L 1131.53125 351.382812 L 1187.300781 367.539062 C 1189.914062 368.316406 1192.675781 368.324219 1195.289062 367.539062 L 1293.476562 339.105469 "/><path style=" stroke:none;fill-rule:nonzero;fill:#000000;fill-opacity:1;" d="M 1082.859375 879.808594 C 990.441406 877.042969 917.835938 787.253906 920.417969 678.484375 C 921.964844 613.289062 950.179688 556.011719 992.441406 520.785156 C 952.800781 555.417969 926.488281 610.222656 925.011719 672.429688 C 922.496094 778.582031 993.1875 866.257812 1083.292969 869.347656 L 1082.859375 879.808594 "/><path style=" stroke:none;fill-rule:nonzero;fill:#000000;fill-opacity:1;" d="M 965.761719 809.976562 C 965.761719 809.976562 942.402344 762.867188 972.3125 724.863281 C 972.3125 724.863281 999.441406 768.679688 965.761719 809.976562 "/><path style=" stroke:none;fill-rule:nonzero;fill:#000000;fill-opacity:1;" d="M 1003.453125 839.085938 C 1003.453125 839.085938 980.097656 791.972656 1010.015625 753.976562 C 1010.015625 753.976562 1037.140625 797.785156 1003.453125 839.085938 "/><path style=" stroke:none;fill-rule:nonzero;fill:#000000;fill-opacity:1;" d="M 1040.519531 854.742188 C 1040.519531 854.742188 1012.867188 827.945312 1039.339844 807.074219 C 1039.339844 807.074219 1070.460938 832.082031 1040.519531 854.742188 "/><path style=" stroke:none;fill-rule:nonzero;fill:#000000;fill-opacity:1;" d="M 954.917969 813.445312 C 954.917969 813.445312 910.746094 829.664062 884.957031 787.164062 C 884.957031 787.164062 927.121094 765.890625 954.917969 813.445312 "/><path style=" stroke:none;fill-rule:nonzero;fill:#000000;fill-opacity:1;" d="M 993.257812 851.929688 C 993.257812 851.929688 949.242188 879.925781 919.339844 844.949219 C 919.339844 844.949219 960.894531 812.519531 993.257812 851.929688 "/><path style=" stroke:none;fill-rule:nonzero;fill:#000000;fill-opacity:1;" d="M 1042.933594 880.707031 C 1042.933594 880.707031 1001.90625 914.371094 966.492188 883.753906 C 966.492188 883.753906 1004.390625 846.015625 1042.933594 880.707031 "/><g clip-rule="nonzero" clip-path="url(#0bacb785d0)"><path style=" stroke:none;fill-rule:nonzero;fill:#000000;fill-opacity:1;" d="M 932.800781 767.683594 C 932.800781 767.683594 892.675781 775.273438 876.269531 735.054688 C 876.269531 735.054688 915.347656 722.859375 932.800781 767.683594 "/></g><path style=" stroke:none;fill-rule:nonzero;fill:#000000;fill-opacity:1;" d="M 921.945312 724.84375 C 921.945312 724.84375 883.132812 711.460938 883.132812 666.675781 C 883.132812 666.675781 922.703125 675.359375 921.945312 724.84375 "/><path style=" stroke:none;fill-rule:nonzero;fill:#000000;fill-opacity:1;" d="M 923.570312 668.175781 C 923.570312 668.175781 890.148438 651.78125 893.886719 611.851562 C 893.886719 611.851562 928.363281 624.136719 923.570312 668.175781 "/><path style=" stroke:none;fill-rule:nonzero;fill:#000000;fill-opacity:1;" d="M 926.6875 621.640625 C 926.6875 621.640625 904.605469 587.988281 924.546875 555.152344 C 924.546875 555.152344 949.261719 585.804688 926.6875 621.640625 "/><path style=" stroke:none;fill-rule:nonzero;fill:#000000;fill-opacity:1;" d="M 949.074219 568.957031 C 949.074219 568.957031 930.953125 541.34375 947.320312 514.398438 C 947.320312 514.398438 967.605469 539.554688 949.074219 568.957031 "/><path style=" stroke:none;fill-rule:nonzero;fill:#000000;fill-opacity:1;" d="M 970.191406 530.664062 C 970.191406 530.664062 964.046875 500.132812 985.738281 486.789062 C 985.738281 486.789062 994.414062 516.441406 970.191406 530.664062 "/><path style=" stroke:none;fill-rule:nonzero;fill:#000000;fill-opacity:1;" d="M 935.636719 758.941406 C 935.636719 758.941406 925.484375 711.242188 959.34375 687.015625 C 959.34375 687.015625 973.453125 732.953125 935.636719 758.941406 "/><path style=" stroke:none;fill-rule:nonzero;fill:#000000;fill-opacity:1;" d="M 926.152344 698.375 C 926.152344 698.375 926.726562 654.464844 960.511719 642.632812 C 960.511719 642.632812 963.675781 686.085938 926.152344 698.375 "/><path style=" stroke:none;fill-rule:nonzero;fill:#000000;fill-opacity:1;" d="M 924.191406 642.917969 C 924.191406 642.917969 935.007812 604.160156 967.550781 604.632812 C 967.550781 604.632812 960.125 644.179688 924.191406 642.917969 "/><path style=" stroke:none;fill-rule:nonzero;fill:#000000;fill-opacity:1;" d="M 942.082031 595.179688 C 942.082031 595.179688 956.992188 559.847656 988.003906 565.59375 C 988.003906 565.59375 976.226562 602.253906 942.082031 595.179688 "/><path style=" stroke:none;fill-rule:nonzero;fill:#000000;fill-opacity:1;" d="M 971.402344 547.480469 C 971.402344 547.480469 989.621094 519.867188 1015.578125 531.296875 C 1015.578125 531.296875 999.875 560.699219 971.402344 547.480469 "/><path style=" stroke:none;fill-rule:nonzero;fill:#edc032;fill-opacity:1;" d="M 996.914062 515.960938 C 996.914062 515.960938 1012.265625 475.160156 1043.554688 484.269531 C 1043.554688 484.269531 1031.351562 526.855469 996.914062 515.960938 "/><path style=" stroke:none;fill-rule:nonzero;fill:#edc032;fill-opacity:1;" d="M 966.492188 881.082031 C 1001.90625 911.703125 1042.933594 878.039062 1042.933594 878.039062 C 1004.390625 843.34375 966.492188 881.082031 966.492188 881.082031 "/><path style=" stroke:none;fill-rule:nonzero;fill:#edc032;fill-opacity:1;" d="M 967.738281 804.730469 C 998.285156 764.203125 972.3125 722.199219 972.3125 722.199219 C 951.214844 749.003906 956.625 780.335938 961.636719 796.464844 C 952.625 783.511719 945.042969 769.136719 939.148438 753.679688 C 972.546875 727.351562 959.34375 684.347656 959.34375 684.347656 C 938.496094 699.261719 934.34375 723.066406 934.21875 739.171875 C 927.730469 717.539062 924.4375 694.140625 925.011719 669.753906 C 925.253906 659.707031 926.144531 649.847656 927.640625 640.242188 C 960.597656 638.949219 967.550781 601.960938 967.550781 601.960938 C 948.179688 601.683594 936.507812 615.300781 930.242188 626.367188 C 939.917969 582.378906 962.332031 544.425781 992.441406 518.113281 C 966.613281 539.644531 946.046875 569.414062 933.59375 604.191406 C 942.753906 575.105469 924.546875 552.484375 924.546875 552.484375 C 904.605469 585.320312 926.6875 618.972656 926.6875 618.972656 C 929.101562 615.128906 930.953125 611.363281 932.367188 607.675781 C 928.214844 619.929688 925.050781 632.769531 923.019531 646.074219 C 917.816406 617.730469 893.886719 609.183594 893.886719 609.183594 C 890.78125 642.304688 913.246094 659.222656 920.996094 664.035156 C 920.710938 667.933594 920.511719 671.855469 920.417969 675.8125 C 917.835938 784.582031 990.441406 874.363281 1082.859375 877.136719 L 1083.292969 866.679688 C 1037.34375 865.101562 996.460938 841.527344 967.738281 804.730469 "/><path style=" stroke:none;fill-rule:nonzero;fill:#edc032;fill-opacity:1;" d="M 1010.015625 751.308594 C 980.097656 789.300781 1003.453125 836.414062 1003.453125 836.414062 C 1037.140625 795.113281 1010.015625 751.308594 1010.015625 751.308594 "/><path style=" stroke:none;fill-rule:nonzero;fill:#edc032;fill-opacity:1;" d="M 1039.339844 804.40625 C 1012.867188 825.273438 1040.519531 852.066406 1040.519531 852.066406 C 1070.460938 829.414062 1039.339844 804.40625 1039.339844 804.40625 "/><path style=" stroke:none;fill-rule:nonzero;fill:#edc032;fill-opacity:1;" d="M 954.917969 810.765625 C 927.121094 763.222656 884.957031 784.492188 884.957031 784.492188 C 910.746094 826.996094 954.917969 810.765625 954.917969 810.765625 "/><path style=" stroke:none;fill-rule:nonzero;fill:#edc032;fill-opacity:1;" d="M 919.339844 842.277344 C 949.242188 877.253906 993.257812 849.261719 993.257812 849.261719 C 960.894531 809.855469 919.339844 842.277344 919.339844 842.277344 "/><g clip-rule="nonzero" clip-path="url(#c28d4fcce4)"><path style=" stroke:none;fill-rule:nonzero;fill:#edc032;fill-opacity:1;" d="M 932.800781 765.011719 C 915.347656 720.191406 876.269531 732.382812 876.269531 732.382812 C 892.675781 772.609375 932.800781 765.011719 932.800781 765.011719 "/></g><path style=" stroke:none;fill-rule:nonzero;fill:#edc032;fill-opacity:1;" d="M 921.945312 722.175781 C 922.703125 672.691406 883.132812 664.007812 883.132812 664.007812 C 883.132812 708.792969 921.945312 722.175781 921.945312 722.175781 "/><path style=" stroke:none;fill-rule:nonzero;fill:#edc032;fill-opacity:1;" d="M 947.320312 511.726562 C 930.953125 538.671875 949.074219 566.285156 949.074219 566.285156 C 967.605469 536.882812 947.320312 511.726562 947.320312 511.726562 "/><path style=" stroke:none;fill-rule:nonzero;fill:#edc032;fill-opacity:1;" d="M 985.738281 484.121094 C 964.046875 497.464844 970.191406 527.992188 970.191406 527.992188 C 994.414062 513.769531 985.738281 484.121094 985.738281 484.121094 "/><path style=" stroke:none;fill-rule:nonzero;fill:#edc032;fill-opacity:1;" d="M 926.152344 695.707031 C 963.675781 683.414062 960.511719 639.964844 960.511719 639.964844 C 926.726562 651.792969 926.152344 695.707031 926.152344 695.707031 "/><path style=" stroke:none;fill-rule:nonzero;fill:#edc032;fill-opacity:1;" d="M 942.082031 592.507812 C 976.226562 599.582031 988.003906 562.925781 988.003906 562.925781 C 956.992188 557.175781 942.082031 592.507812 942.082031 592.507812 "/><path style=" stroke:none;fill-rule:nonzero;fill:#edc032;fill-opacity:1;" d="M 1015.578125 528.625 C 989.621094 517.195312 971.402344 544.808594 971.402344 544.808594 C 999.875 558.03125 1015.578125 528.625 1015.578125 528.625 "/><path style=" stroke:none;fill-rule:nonzero;fill:#edc032;fill-opacity:1;" d="M 1043.554688 481.597656 C 1012.265625 472.488281 996.914062 513.292969 996.914062 513.292969 C 1031.351562 524.183594 1043.554688 481.597656 1043.554688 481.597656 "/><path style=" stroke:none;fill-rule:nonzero;fill:#000000;fill-opacity:1;" d="M 1298.789062 879.808594 C 1391.203125 877.042969 1463.816406 787.253906 1461.234375 678.484375 C 1459.6875 613.289062 1431.472656 556.011719 1389.210938 520.785156 C 1428.851562 555.417969 1455.164062 610.222656 1456.640625 672.429688 C 1459.15625 778.582031 1388.46875 866.257812 1298.363281 869.347656 L 1298.789062 879.808594 "/><path style=" stroke:none;fill-rule:nonzero;fill:#000000;fill-opacity:1;" d="M 1415.894531 809.976562 C 1415.894531 809.976562 1439.242188 762.867188 1409.339844 724.863281 C 1409.339844 724.863281 1382.210938 768.679688 1415.894531 809.976562 "/><path style=" stroke:none;fill-rule:nonzero;fill:#000000;fill-opacity:1;" d="M 1378.199219 839.085938 C 1378.199219 839.085938 1401.554688 791.972656 1371.640625 753.976562 C 1371.640625 753.976562 1344.511719 797.785156 1378.199219 839.085938 "/><path style=" stroke:none;fill-rule:nonzero;fill:#000000;fill-opacity:1;" d="M 1341.128906 854.742188 C 1341.128906 854.742188 1368.78125 827.945312 1342.3125 807.074219 C 1342.3125 807.074219 1311.191406 832.082031 1341.128906 854.742188 "/><path style=" stroke:none;fill-rule:nonzero;fill:#000000;fill-opacity:1;" d="M 1426.738281 813.445312 C 1426.738281 813.445312 1470.90625 829.664062 1496.695312 787.164062 C 1496.695312 787.164062 1454.53125 765.890625 1426.738281 813.445312 "/><path style=" stroke:none;fill-rule:nonzero;fill:#000000;fill-opacity:1;" d="M 1388.398438 851.929688 C 1388.398438 851.929688 1432.40625 879.925781 1462.308594 844.949219 C 1462.308594 844.949219 1420.757812 812.519531 1388.398438 851.929688 "/><path style=" stroke:none;fill-rule:nonzero;fill:#000000;fill-opacity:1;" d="M 1338.722656 880.707031 C 1338.722656 880.707031 1379.746094 914.371094 1415.164062 883.753906 C 1415.164062 883.753906 1377.261719 846.015625 1338.722656 880.707031 "/><g clip-rule="nonzero" clip-path="url(#91e4ee10ea)"><path style=" stroke:none;fill-rule:nonzero;fill:#000000;fill-opacity:1;" d="M 1448.84375 767.683594 C 1448.84375 767.683594 1488.976562 775.273438 1505.382812 735.054688 C 1505.382812 735.054688 1466.300781 722.859375 1448.84375 767.683594 "/></g><path style=" stroke:none;fill-rule:nonzero;fill:#000000;fill-opacity:1;" d="M 1459.707031 724.84375 C 1459.707031 724.84375 1498.519531 711.460938 1498.519531 666.675781 C 1498.519531 666.675781 1458.949219 675.359375 1459.707031 724.84375 "/><path style=" stroke:none;fill-rule:nonzero;fill:#000000;fill-opacity:1;" d="M 1458.078125 668.175781 C 1458.078125 668.175781 1491.507812 651.78125 1487.761719 611.851562 C 1487.761719 611.851562 1453.289062 624.136719 1458.078125 668.175781 "/><path style=" stroke:none;fill-rule:nonzero;fill:#000000;fill-opacity:1;" d="M 1454.964844 621.640625 C 1454.964844 621.640625 1477.046875 587.988281 1457.105469 555.152344 C 1457.105469 555.152344 1432.390625 585.804688 1454.964844 621.640625 "/><path style=" stroke:none;fill-rule:nonzero;fill:#000000;fill-opacity:1;" d="M 1432.578125 568.957031 C 1432.578125 568.957031 1450.703125 541.34375 1434.332031 514.398438 C 1434.332031 514.398438 1414.050781 539.554688 1432.578125 568.957031 "/><path style=" stroke:none;fill-rule:nonzero;fill:#000000;fill-opacity:1;" d="M 1411.460938 530.664062 C 1411.460938 530.664062 1417.609375 500.132812 1395.90625 486.789062 C 1395.90625 486.789062 1387.238281 516.441406 1411.460938 530.664062 "/><path style=" stroke:none;fill-rule:nonzero;fill:#000000;fill-opacity:1;" d="M 1446.011719 758.941406 C 1446.011719 758.941406 1456.167969 711.242188 1422.304688 687.015625 C 1422.304688 687.015625 1408.199219 732.953125 1446.011719 758.941406 "/><path style=" stroke:none;fill-rule:nonzero;fill:#000000;fill-opacity:1;" d="M 1455.5 698.375 C 1455.5 698.375 1454.925781 654.464844 1421.140625 642.632812 C 1421.140625 642.632812 1417.976562 686.085938 1455.5 698.375 "/><path style=" stroke:none;fill-rule:nonzero;fill:#000000;fill-opacity:1;" d="M 1457.457031 642.917969 C 1457.457031 642.917969 1446.644531 604.160156 1414.101562 604.632812 C 1414.101562 604.632812 1421.527344 644.179688 1457.457031 642.917969 "/><path style=" stroke:none;fill-rule:nonzero;fill:#000000;fill-opacity:1;" d="M 1439.566406 595.179688 C 1439.566406 595.179688 1424.660156 559.847656 1393.648438 565.59375 C 1393.648438 565.59375 1405.425781 602.253906 1439.566406 595.179688 "/><path style=" stroke:none;fill-rule:nonzero;fill:#000000;fill-opacity:1;" d="M 1410.25 547.480469 C 1410.25 547.480469 1392.027344 519.867188 1366.074219 531.296875 C 1366.074219 531.296875 1381.777344 560.699219 1410.25 547.480469 "/><path style=" stroke:none;fill-rule:nonzero;fill:#edc032;fill-opacity:1;" d="M 1384.742188 515.960938 C 1384.742188 515.960938 1369.382812 475.160156 1338.101562 484.269531 C 1338.101562 484.269531 1350.300781 526.855469 1384.742188 515.960938 "/><path style=" stroke:none;fill-rule:nonzero;fill:#edc032;fill-opacity:1;" d="M 1415.164062 881.082031 C 1379.746094 911.703125 1338.722656 878.039062 1338.722656 878.039062 C 1377.261719 843.34375 1415.164062 881.082031 1415.164062 881.082031 "/><path style=" stroke:none;fill-rule:nonzero;fill:#edc032;fill-opacity:1;" d="M 1413.90625 804.730469 C 1383.363281 764.203125 1409.339844 722.199219 1409.339844 722.199219 C 1430.4375 749.003906 1425.027344 780.335938 1420.015625 796.464844 C 1429.027344 783.511719 1436.609375 769.136719 1442.503906 753.679688 C 1409.101562 727.351562 1422.304688 684.347656 1422.304688 684.347656 C 1443.15625 699.261719 1447.3125 723.066406 1447.433594 739.171875 C 1453.921875 717.539062 1457.214844 694.140625 1456.640625 669.753906 C 1456.402344 659.707031 1455.5 649.847656 1454.015625 640.242188 C 1421.054688 638.949219 1414.101562 601.960938 1414.101562 601.960938 C 1433.472656 601.683594 1445.144531 615.300781 1451.414062 626.367188 C 1441.726562 582.378906 1419.324219 544.425781 1389.210938 518.113281 C 1415.03125 539.644531 1435.601562 569.414062 1448.0625 604.191406 C 1438.898438 575.105469 1457.105469 552.484375 1457.105469 552.484375 C 1477.046875 585.320312 1454.964844 618.972656 1454.964844 618.972656 C 1452.550781 615.128906 1450.703125 611.363281 1449.285156 607.675781 C 1453.4375 619.929688 1456.601562 632.769531 1458.632812 646.074219 C 1463.835938 617.730469 1487.761719 609.183594 1487.761719 609.183594 C 1490.867188 642.304688 1468.410156 659.222656 1460.660156 664.035156 C 1460.941406 667.933594 1461.136719 671.855469 1461.234375 675.8125 C 1463.816406 784.582031 1391.203125 874.363281 1298.789062 877.136719 L 1298.363281 866.679688 C 1344.3125 865.101562 1385.195312 841.527344 1413.90625 804.730469 "/><path style=" stroke:none;fill-rule:nonzero;fill:#edc032;fill-opacity:1;" d="M 1371.640625 751.308594 C 1401.554688 789.300781 1378.199219 836.414062 1378.199219 836.414062 C 1344.511719 795.113281 1371.640625 751.308594 1371.640625 751.308594 "/><path style=" stroke:none;fill-rule:nonzero;fill:#edc032;fill-opacity:1;" d="M 1342.3125 804.40625 C 1368.78125 825.273438 1341.128906 852.066406 1341.128906 852.066406 C 1311.191406 829.414062 1342.3125 804.40625 1342.3125 804.40625 "/><path style=" stroke:none;fill-rule:nonzero;fill:#edc032;fill-opacity:1;" d="M 1426.738281 810.765625 C 1454.53125 763.222656 1496.695312 784.492188 1496.695312 784.492188 C 1470.90625 826.996094 1426.738281 810.765625 1426.738281 810.765625 "/><path style=" stroke:none;fill-rule:nonzero;fill:#edc032;fill-opacity:1;" d="M 1462.308594 842.277344 C 1432.40625 877.253906 1388.398438 849.261719 1388.398438 849.261719 C 1420.757812 809.855469 1462.308594 842.277344 1462.308594 842.277344 "/><g clip-rule="nonzero" clip-path="url(#1aebaf5584)"><path style=" stroke:none;fill-rule:nonzero;fill:#edc032;fill-opacity:1;" d="M 1448.84375 765.011719 C 1466.300781 720.191406 1505.382812 732.382812 1505.382812 732.382812 C 1488.976562 772.609375 1448.84375 765.011719 1448.84375 765.011719 "/></g><path style=" stroke:none;fill-rule:nonzero;fill:#edc032;fill-opacity:1;" d="M 1459.707031 722.175781 C 1458.949219 672.691406 1498.519531 664.007812 1498.519531 664.007812 C 1498.519531 708.792969 1459.707031 722.175781 1459.707031 722.175781 "/><path style=" stroke:none;fill-rule:nonzero;fill:#edc032;fill-opacity:1;" d="M 1434.332031 511.726562 C 1450.703125 538.671875 1432.578125 566.285156 1432.578125 566.285156 C 1414.050781 536.882812 1434.332031 511.726562 1434.332031 511.726562 "/><path style=" stroke:none;fill-rule:nonzero;fill:#edc032;fill-opacity:1;" d="M 1395.90625 484.121094 C 1417.609375 497.464844 1411.460938 527.992188 1411.460938 527.992188 C 1387.238281 513.769531 1395.90625 484.121094 1395.90625 484.121094 "/><path style=" stroke:none;fill-rule:nonzero;fill:#edc032;fill-opacity:1;" d="M 1455.5 695.707031 C 1417.976562 683.414062 1421.140625 639.964844 1421.140625 639.964844 C 1454.925781 651.792969 1455.5 695.707031 1455.5 695.707031 "/><path style=" stroke:none;fill-rule:nonzero;fill:#edc032;fill-opacity:1;" d="M 1439.566406 592.507812 C 1405.425781 599.582031 1393.648438 562.925781 1393.648438 562.925781 C 1424.660156 557.175781 1439.566406 592.507812 1439.566406 592.507812 "/><path style=" stroke:none;fill-rule:nonzero;fill:#edc032;fill-opacity:1;" d="M 1366.074219 528.625 C 1392.027344 517.195312 1410.25 544.808594 1410.25 544.808594 C 1381.777344 558.03125 1366.074219 528.625 1366.074219 528.625 "/><path style=" stroke:none;fill-rule:nonzero;fill:#edc032;fill-opacity:1;" d="M 1338.101562 481.597656 C 1369.382812 472.488281 1384.742188 513.292969 1384.742188 513.292969 C 1350.300781 524.183594 1338.101562 481.597656 1338.101562 481.597656 "/><path style=" stroke:none;fill-rule:evenodd;fill:#000000;fill-opacity:1;" d="M 1001.15625 981.808594 L 1001.15625 932.019531 L 990.324219 932.019531 L 990.324219 981.808594 Z M 984.269531 973.144531 L 984.269531 940.199219 L 973.433594 940.199219 L 973.433594 973.144531 Z M 984.269531 934.238281 L 984.269531 928.71875 L 973.433594 928.71875 L 973.433594 934.238281 Z M 1001.15625 926.058594 L 1001.15625 920.046875 L 990.324219 920.046875 L 990.324219 926.058594 Z M 1215.4375 917.90625 L 1166.214844 917.90625 L 1166.214844 933.164062 C 1172.71875 927.257812 1181.347656 923.65625 1190.828125 923.65625 C 1200.304688 923.65625 1208.941406 927.257812 1215.4375 933.160156 Z M 1190.828125 929.914062 C 1207.578125 929.914062 1221.15625 943.492188 1221.15625 960.230469 C 1221.15625 976.96875 1207.578125 990.542969 1190.828125 990.542969 C 1174.070312 990.542969 1160.488281 976.96875 1160.488281 960.230469 C 1160.488281 943.492188 1174.070312 929.914062 1190.828125 929.914062 Z M 1225.097656 960.230469 C 1225.097656 941.3125 1209.757812 925.984375 1190.828125 925.984375 C 1171.894531 925.984375 1156.554688 941.3125 1156.554688 960.230469 C 1156.554688 979.144531 1171.894531 994.476562 1190.828125 994.476562 C 1209.757812 994.476562 1225.097656 979.144531 1225.097656 960.230469 Z M 1216.34375 960.332031 C 1216.34375 946.257812 1204.925781 934.847656 1190.847656 934.847656 C 1176.753906 934.847656 1165.335938 946.257812 1165.335938 960.332031 C 1165.335938 974.40625 1176.753906 985.816406 1190.847656 985.816406 C 1204.925781 985.816406 1216.34375 974.40625 1216.34375 960.332031 Z M 1186.425781 996.589844 C 1174.613281 995.171875 1164.527344 988.144531 1158.917969 978.246094 L 1139.125 1012.472656 L 1161.324219 1007.929688 L 1170.414062 1027.539062 Z M 1242.535156 1012.472656 L 1222.734375 978.246094 C 1217.125 988.144531 1207.039062 995.171875 1195.21875 996.589844 L 1211.238281 1027.539062 L 1220.328125 1007.929688 Z M 1374.796875 985.824219 L 1374.394531 928.957031 L 1223.640625 929.527344 L 1374.355469 923.0625 L 1374.304688 915.921875 L 1218.273438 922.414062 L 1218.273438 936.042969 C 1223.972656 942.488281 1227.425781 950.957031 1227.425781 960.230469 C 1227.425781 965.511719 1226.300781 970.535156 1224.28125 975.066406 L 1227.632812 980.277344 Z M 1391.332031 981.808594 L 1391.332031 932.019531 L 1380.496094 932.019531 L 1380.496094 981.808594 Z M 1391.332031 926.058594 L 1391.332031 920.046875 L 1380.496094 920.046875 L 1380.496094 926.058594 Z M 1408.21875 934.238281 L 1408.21875 928.71875 L 1397.382812 928.71875 L 1397.382812 934.238281 Z M 1408.21875 973.144531 L 1408.21875 940.199219 L 1397.382812 940.199219 L 1397.382812 973.144531 Z M 1154.226562 960.230469 C 1154.226562 950.996094 1157.648438 942.574219 1163.289062 936.132812 L 1163.289062 922.414062 L 1006.363281 915.921875 L 1006.417969 923.042969 L 1157.558594 929.527344 L 1006.457031 928.949219 L 1006.855469 985.824219 L 1154.019531 980.285156 L 1157.371094 975.074219 C 1155.351562 970.535156 1154.226562 965.511719 1154.226562 960.230469 "/><path style=" stroke:none;fill-rule:evenodd;fill:#edc032;fill-opacity:1;" d="M 1190.847656 981.453125 C 1202.511719 981.453125 1211.976562 971.996094 1211.976562 960.332031 C 1211.976562 948.667969 1202.511719 939.210938 1190.847656 939.210938 C 1179.167969 939.210938 1169.703125 948.667969 1169.703125 960.332031 C 1169.703125 971.996094 1179.167969 981.453125 1190.847656 981.453125 "/><path style=" stroke:none;fill-rule:evenodd;fill:#edc032;fill-opacity:1;" d="M 1166.214844 933.164062 C 1172.71875 927.257812 1181.347656 923.65625 1190.828125 923.65625 C 1200.304688 923.65625 1208.941406 927.257812 1215.4375 933.160156 L 1215.4375 917.90625 L 1166.214844 917.90625 L 1166.214844 933.164062 "/><g clip-rule="nonzero" clip-path="url(#ca90ce1830)"><path style=" stroke:none;fill-rule:evenodd;fill:#000000;fill-opacity:1;" d="M 1186.425781 999.34375 C 1174.613281 997.933594 1164.527344 990.898438 1158.917969 981 L 1139.636719 1014.347656 L 1139.125 1015.234375 L 1140.335938 1014.988281 L 1161.324219 1010.691406 L 1168.128906 1025.371094 L 1170.414062 1030.296875 L 1186.425781 999.34375 "/></g><g clip-rule="nonzero" clip-path="url(#c4b9f5c970)"><path style=" stroke:none;fill-rule:evenodd;fill:#000000;fill-opacity:1;" d="M 1239.492188 1009.976562 L 1222.734375 981 C 1217.125 990.898438 1207.039062 997.933594 1195.21875 999.34375 L 1210.921875 1029.683594 L 1211.238281 1030.296875 L 1211.554688 1029.613281 L 1220.328125 1010.691406 L 1242.535156 1015.234375 L 1240.410156 1011.582031 L 1239.492188 1009.976562 "/></g><path style=" stroke:none;fill-rule:evenodd;fill:#edc032;fill-opacity:1;" d="M 1158.917969 978.246094 L 1139.636719 1011.589844 L 1139.125 1012.472656 L 1140.335938 1012.226562 L 1161.324219 1007.929688 L 1168.128906 1022.613281 L 1170.414062 1027.539062 L 1186.425781 996.589844 C 1174.613281 995.171875 1164.527344 988.144531 1158.917969 978.246094 "/><path style=" stroke:none;fill-rule:evenodd;fill:#edc032;fill-opacity:1;" d="M 1240.410156 1008.820312 L 1239.492188 1007.21875 L 1222.734375 978.246094 C 1217.125 988.144531 1207.039062 995.171875 1195.21875 996.589844 L 1210.921875 1026.921875 L 1211.238281 1027.539062 L 1211.554688 1026.859375 L 1220.328125 1007.929688 L 1242.535156 1012.472656 L 1240.410156 1008.820312 "/><g style="fill:#000000;fill-opacity:1;"><g transform="translate(-29.640704, 1069.401996)"><path style="stroke:none" d="M 620.953125 -803.578125 C 535.722656 -803.578125 470.414062 -777.566406 425.03125 -725.546875 C 379.65625 -673.523438 356.96875 -599.921875 356.96875 -504.734375 C 356.96875 -408.429688 382.144531 -334.269531 432.5 -282.25 C 482.863281 -230.226562 550.660156 -204.21875 635.890625 -204.21875 C 681.273438 -204.21875 719.738281 -210.304688 751.28125 -222.484375 C 782.832031 -234.660156 812.992188 -248.492188 841.765625 -263.984375 C 860.585938 -248.492188 875.253906 -229.953125 885.765625 -208.359375 C 896.285156 -186.773438 901.546875 -161.597656 901.546875 -132.828125 C 901.546875 -87.441406 876.363281 -48.972656 826 -17.421875 C 775.632812 14.117188 698.984375 29.890625 596.046875 29.890625 C 521.890625 29.890625 452.15625 19.375 386.84375 -1.65625 C 321.539062 -22.6875 264.535156 -55.0625 215.828125 -98.78125 C 167.128906 -142.507812 128.664062 -197.851562 100.4375 -264.8125 C 72.21875 -331.78125 58.109375 -411.753906 58.109375 -504.734375 C 58.109375 -591.066406 71.664062 -667.160156 98.78125 -733.015625 C 125.90625 -798.878906 162.988281 -854.5 210.03125 -899.875 C 257.070312 -945.257812 312.132812 -979.570312 375.21875 -1002.8125 C 438.3125 -1026.0625 505.832031 -1037.6875 577.78125 -1037.6875 C 679.613281 -1037.6875 758.476562 -1021.082031 814.375 -987.875 C 870.269531 -954.664062 898.21875 -912.050781 898.21875 -860.03125 C 898.21875 -831.25 891.019531 -806.34375 876.625 -785.3125 C 862.238281 -764.289062 845.640625 -747.691406 826.828125 -735.515625 C 798.046875 -754.328125 767.328125 -770.375 734.671875 -783.65625 C 702.023438 -796.9375 664.117188 -803.578125 620.953125 -803.578125 Z M 620.953125 -803.578125 "/></g></g></g></svg>