<svg xmlns="http://www.w3.org/2000/svg" xmlns:xlink="http://www.w3.org/1999/xlink" width="3500" zoomAndPan="magnify" viewBox="0 0 2625 749.999995" height="1000" preserveAspectRatio="xMidYMid meet" version="1.2"><defs/><g id="0a7fc549e0"><g style="fill:#000000;fill-opacity:1;"><g transform="translate(0.0811016, 525.507415)"><path style="stroke:none" d="M 330.265625 -144.609375 C 330.265625 -120.003906 326.492188 -98.082031 318.953125 -78.84375 C 311.421875 -59.601562 300.8125 -43.4375 287.125 -30.34375 C 273.4375 -17.257812 257.070312 -7.34375 238.03125 -0.59375 C 218.988281 6.144531 197.765625 9.515625 174.359375 9.515625 C 150.953125 9.515625 129.726562 5.945312 110.6875 -1.1875 C 91.644531 -8.332031 75.28125 -18.546875 61.59375 -31.828125 C 47.90625 -45.117188 37.289062 -61.285156 29.75 -80.328125 C 22.21875 -99.378906 18.453125 -120.804688 18.453125 -144.609375 C 18.453125 -168.015625 22.21875 -189.238281 29.75 -208.28125 C 37.289062 -227.320312 47.90625 -243.488281 61.59375 -256.78125 C 75.28125 -270.070312 91.644531 -280.285156 110.6875 -287.421875 C 129.726562 -294.566406 150.953125 -298.140625 174.359375 -298.140625 C 197.765625 -298.140625 218.988281 -294.46875 238.03125 -287.125 C 257.070312 -279.78125 273.4375 -269.460938 287.125 -256.171875 C 300.8125 -242.890625 311.421875 -226.726562 318.953125 -207.6875 C 326.492188 -188.644531 330.265625 -167.617188 330.265625 -144.609375 Z M 121.984375 -144.609375 C 121.984375 -120.398438 126.644531 -101.847656 135.96875 -88.953125 C 145.289062 -76.066406 158.285156 -69.625 174.953125 -69.625 C 191.617188 -69.625 204.410156 -76.171875 213.328125 -89.265625 C 222.253906 -102.359375 226.71875 -120.804688 226.71875 -144.609375 C 226.71875 -168.410156 222.15625 -186.753906 213.03125 -199.640625 C 203.90625 -212.535156 191.015625 -218.984375 174.359375 -218.984375 C 157.691406 -218.984375 144.796875 -212.535156 135.671875 -199.640625 C 126.546875 -186.753906 121.984375 -168.410156 121.984375 -144.609375 Z M 121.984375 -144.609375 "/></g></g><g style="fill:#000000;fill-opacity:1;"><g transform="translate(348.783598, 525.507415)"><path style="stroke:none" d="M 30.9375 -285.046875 C 34.90625 -286.234375 41.15625 -287.421875 49.6875 -288.609375 C 58.21875 -289.796875 67.046875 -290.390625 76.171875 -290.390625 C 84.898438 -290.390625 92.734375 -289.796875 99.671875 -288.609375 C 106.617188 -287.421875 112.472656 -285.039062 117.234375 -281.46875 C 121.992188 -277.894531 125.660156 -273.035156 128.234375 -266.890625 C 130.816406 -260.742188 132.109375 -252.710938 132.109375 -242.796875 L 132.109375 -114.84375 C 132.109375 -98.582031 136.070312 -86.976562 144 -80.03125 C 151.9375 -73.09375 163.445312 -69.625 178.53125 -69.625 C 187.644531 -69.625 195.078125 -70.414062 200.828125 -72 C 206.585938 -73.59375 211.054688 -75.179688 214.234375 -76.765625 L 214.234375 -285.046875 C 218.191406 -286.234375 224.4375 -287.421875 232.96875 -288.609375 C 241.5 -289.796875 250.328125 -290.390625 259.453125 -290.390625 C 268.179688 -290.390625 276.015625 -289.796875 282.953125 -288.609375 C 289.898438 -287.421875 295.753906 -285.039062 300.515625 -281.46875 C 305.273438 -277.894531 308.941406 -273.035156 311.515625 -266.890625 C 314.097656 -260.742188 315.390625 -252.710938 315.390625 -242.796875 L 315.390625 -61.890625 C 315.390625 -42.054688 307.054688 -27.175781 290.390625 -17.25 C 276.515625 -8.53125 259.953125 -1.890625 240.703125 2.671875 C 221.460938 7.234375 200.535156 9.515625 177.921875 9.515625 C 156.503906 9.515625 136.769531 7.132812 118.71875 2.375 C 100.664062 -2.382812 85.09375 -9.722656 72 -19.640625 C 58.90625 -29.554688 48.785156 -42.347656 41.640625 -58.015625 C 34.503906 -73.691406 30.9375 -92.632812 30.9375 -114.84375 Z M 30.9375 -285.046875 "/></g></g><g style="fill:#000000;fill-opacity:1;"><g transform="translate(695.105903, 525.507415)"><path style="stroke:none" d="M 132.109375 -0.59375 C 128.140625 0.59375 121.890625 1.78125 113.359375 2.96875 C 104.828125 4.164062 96 4.765625 86.875 4.765625 C 78.15625 4.765625 70.320312 4.164062 63.375 2.96875 C 56.4375 1.78125 50.585938 -0.59375 45.828125 -4.15625 C 41.066406 -7.726562 37.394531 -12.585938 34.8125 -18.734375 C 32.226562 -24.890625 30.9375 -32.925781 30.9375 -42.84375 L 30.9375 -221.375 C 30.9375 -230.5 32.625 -238.332031 36 -244.875 C 39.375 -251.414062 44.234375 -257.265625 50.578125 -262.421875 C 56.929688 -267.585938 64.769531 -272.25 74.09375 -276.40625 C 83.414062 -280.570312 93.429688 -284.242188 104.140625 -287.421875 C 114.847656 -290.597656 125.953125 -293.078125 137.453125 -294.859375 C 148.960938 -296.648438 160.472656 -297.546875 171.984375 -297.546875 C 191.023438 -297.546875 206.097656 -293.875 217.203125 -286.53125 C 228.304688 -279.1875 233.859375 -267.1875 233.859375 -250.53125 C 233.859375 -244.976562 233.066406 -239.519531 231.484375 -234.15625 C 229.898438 -228.800781 227.914062 -223.941406 225.53125 -219.578125 C 217.195312 -219.578125 208.664062 -219.179688 199.9375 -218.390625 C 191.21875 -217.597656 182.691406 -216.40625 174.359375 -214.8125 C 166.023438 -213.226562 158.1875 -211.546875 150.84375 -209.765625 C 143.507812 -207.984375 137.265625 -205.898438 132.109375 -203.515625 Z M 132.109375 -0.59375 "/></g></g><g style="fill:#000000;fill-opacity:1;"><g transform="translate(939.673703, 525.507415)"><path style="stroke:none" d="M 274.921875 -86.28125 C 274.921875 -56.132812 263.613281 -32.53125 241 -15.46875 C 218.394531 1.582031 185.070312 10.109375 141.03125 10.109375 C 124.375 10.109375 108.898438 8.914062 94.609375 6.53125 C 80.328125 4.15625 68.128906 0.488281 58.015625 -4.46875 C 47.898438 -9.425781 39.96875 -15.671875 34.21875 -23.203125 C 28.46875 -30.742188 25.59375 -39.671875 25.59375 -49.984375 C 25.59375 -59.503906 27.570312 -67.535156 31.53125 -74.078125 C 35.5 -80.628906 40.265625 -86.085938 45.828125 -90.453125 C 57.328125 -84.109375 70.515625 -78.453125 85.390625 -73.484375 C 100.265625 -68.523438 117.425781 -66.046875 136.875 -66.046875 C 149.164062 -66.046875 158.582031 -67.832031 165.125 -71.40625 C 171.675781 -74.976562 174.953125 -79.738281 174.953125 -85.6875 C 174.953125 -91.238281 172.570312 -95.601562 167.8125 -98.78125 C 163.050781 -101.957031 155.117188 -104.535156 144.015625 -106.515625 L 126.15625 -110.09375 C 91.644531 -116.832031 65.957031 -127.441406 49.09375 -141.921875 C 32.226562 -156.398438 23.796875 -177.128906 23.796875 -204.109375 C 23.796875 -218.785156 26.96875 -232.070312 33.3125 -243.96875 C 39.664062 -255.875 48.59375 -265.796875 60.09375 -273.734375 C 71.601562 -281.671875 85.390625 -287.820312 101.453125 -292.1875 C 117.523438 -296.550781 135.28125 -298.734375 154.71875 -298.734375 C 169.394531 -298.734375 183.179688 -297.640625 196.078125 -295.453125 C 208.972656 -293.273438 220.179688 -290.003906 229.703125 -285.640625 C 239.222656 -281.273438 246.757812 -275.617188 252.3125 -268.671875 C 257.863281 -261.734375 260.640625 -253.503906 260.640625 -243.984375 C 260.640625 -234.859375 258.953125 -227.019531 255.578125 -220.46875 C 252.210938 -213.925781 247.953125 -208.472656 242.796875 -204.109375 C 239.617188 -206.097656 234.851562 -208.179688 228.5 -210.359375 C 222.15625 -212.546875 215.210938 -214.53125 207.671875 -216.3125 C 200.140625 -218.09375 192.503906 -219.578125 184.765625 -220.765625 C 177.035156 -221.960938 169.992188 -222.5625 163.640625 -222.5625 C 150.554688 -222.5625 140.441406 -221.070312 133.296875 -218.09375 C 126.160156 -215.125 122.59375 -210.460938 122.59375 -204.109375 C 122.59375 -199.742188 124.570312 -196.171875 128.53125 -193.390625 C 132.5 -190.617188 140.039062 -188.046875 151.15625 -185.671875 L 169.59375 -181.5 C 207.675781 -172.769531 234.75 -160.769531 250.8125 -145.5 C 266.882812 -130.226562 274.921875 -110.488281 274.921875 -86.28125 Z M 274.921875 -86.28125 "/></g></g><g style="fill:#000000;fill-opacity:1;"><g transform="translate(1235.416396, 525.507415)"><path style="stroke:none" d="M 183.875 9.515625 C 160.46875 9.515625 138.75 6.242188 118.71875 -0.296875 C 98.6875 -6.835938 81.226562 -16.65625 66.34375 -29.75 C 51.46875 -42.84375 39.765625 -59.304688 31.234375 -79.140625 C 22.710938 -98.984375 18.453125 -122.191406 18.453125 -148.765625 C 18.453125 -174.953125 22.710938 -197.46875 31.234375 -216.3125 C 39.765625 -235.15625 50.972656 -250.625 64.859375 -262.71875 C 78.742188 -274.820312 94.613281 -283.75 112.46875 -289.5 C 130.320312 -295.257812 148.570312 -298.140625 167.21875 -298.140625 C 188.238281 -298.140625 207.378906 -294.960938 224.640625 -288.609375 C 241.898438 -282.265625 256.773438 -273.535156 269.265625 -262.421875 C 281.765625 -251.316406 291.484375 -238.023438 298.421875 -222.546875 C 305.367188 -207.078125 308.84375 -190.222656 308.84375 -171.984375 C 308.84375 -158.492188 305.070312 -148.175781 297.53125 -141.03125 C 290 -133.894531 279.488281 -129.332031 266 -127.34375 L 119.015625 -105.328125 C 123.378906 -92.234375 132.304688 -82.410156 145.796875 -75.859375 C 159.285156 -69.316406 174.753906 -66.046875 192.203125 -66.046875 C 208.472656 -66.046875 223.847656 -68.128906 238.328125 -72.296875 C 252.804688 -76.460938 264.609375 -81.320312 273.734375 -86.875 C 280.078125 -82.914062 285.429688 -77.363281 289.796875 -70.21875 C 294.160156 -63.082031 296.34375 -55.546875 296.34375 -47.609375 C 296.34375 -29.753906 288.015625 -16.460938 271.359375 -7.734375 C 258.660156 -0.992188 244.375 3.5625 228.5 5.9375 C 212.632812 8.320312 197.757812 9.515625 183.875 9.515625 Z M 167.21875 -224.34375 C 157.695312 -224.34375 149.460938 -222.753906 142.515625 -219.578125 C 135.578125 -216.410156 129.925781 -212.347656 125.5625 -207.390625 C 121.195312 -202.429688 117.921875 -196.875 115.734375 -190.71875 C 113.554688 -184.570312 112.269531 -178.328125 111.875 -171.984375 L 213.640625 -188.640625 C 212.441406 -196.578125 208.070312 -204.507812 200.53125 -212.4375 C 193 -220.375 181.894531 -224.34375 167.21875 -224.34375 Z M 167.21875 -224.34375 "/></g></g><g style="fill:#000000;fill-opacity:1;"><g transform="translate(1562.101923, 525.507415)"><path style="stroke:none" d="M 154.71875 -64.265625 C 161.46875 -64.265625 168.90625 -64.957031 177.03125 -66.34375 C 185.164062 -67.738281 191.21875 -69.625 195.1875 -72 L 195.1875 -119.609375 L 152.34375 -116.046875 C 141.226562 -115.242188 132.097656 -112.859375 124.953125 -108.890625 C 117.816406 -104.929688 114.25 -98.984375 114.25 -91.046875 C 114.25 -83.109375 117.320312 -76.660156 123.46875 -71.703125 C 129.625 -66.742188 140.039062 -64.265625 154.71875 -64.265625 Z M 149.953125 -298.140625 C 171.378906 -298.140625 190.921875 -295.957031 208.578125 -291.59375 C 226.234375 -287.226562 241.304688 -280.582031 253.796875 -271.65625 C 266.296875 -262.726562 275.914062 -251.421875 282.65625 -237.734375 C 289.40625 -224.046875 292.78125 -207.878906 292.78125 -189.234375 L 292.78125 -55.9375 C 292.78125 -45.625 289.898438 -37.191406 284.140625 -30.640625 C 278.390625 -24.097656 271.550781 -18.445312 263.625 -13.6875 C 237.832031 1.78125 201.53125 9.515625 154.71875 9.515625 C 133.695312 9.515625 114.753906 7.53125 97.890625 3.5625 C 81.023438 -0.394531 66.539062 -6.34375 54.4375 -14.28125 C 42.34375 -22.21875 33.019531 -32.332031 26.46875 -44.625 C 19.925781 -56.925781 16.65625 -71.207031 16.65625 -87.46875 C 16.65625 -114.84375 24.785156 -135.867188 41.046875 -150.546875 C 57.316406 -165.234375 82.515625 -174.359375 116.640625 -177.921875 L 194.59375 -186.265625 L 194.59375 -190.421875 C 194.59375 -201.929688 189.53125 -210.164062 179.40625 -215.125 C 169.289062 -220.082031 154.710938 -222.5625 135.671875 -222.5625 C 120.597656 -222.5625 105.921875 -220.972656 91.640625 -217.796875 C 77.359375 -214.617188 64.46875 -210.648438 52.96875 -205.890625 C 47.800781 -209.460938 43.429688 -214.914062 39.859375 -222.25 C 36.296875 -229.59375 34.515625 -237.234375 34.515625 -245.171875 C 34.515625 -255.484375 36.992188 -263.710938 41.953125 -269.859375 C 46.910156 -276.015625 54.546875 -281.273438 64.859375 -285.640625 C 76.367188 -290.003906 89.957031 -293.175781 105.625 -295.15625 C 121.289062 -297.144531 136.066406 -298.140625 149.953125 -298.140625 Z M 149.953125 -298.140625 "/></g></g><g style="fill:#000000;fill-opacity:1;"><g transform="translate(1885.812136, 525.507415)"><path style="stroke:none" d="M 132.109375 -0.59375 C 128.140625 0.59375 121.890625 1.78125 113.359375 2.96875 C 104.828125 4.164062 96 4.765625 86.875 4.765625 C 78.15625 4.765625 70.320312 4.164062 63.375 2.96875 C 56.4375 1.78125 50.585938 -0.59375 45.828125 -4.15625 C 41.066406 -7.726562 37.394531 -12.585938 34.8125 -18.734375 C 32.226562 -24.890625 30.9375 -32.925781 30.9375 -42.84375 L 30.9375 -221.375 C 30.9375 -230.5 32.625 -238.332031 36 -244.875 C 39.375 -251.414062 44.234375 -257.265625 50.578125 -262.421875 C 56.929688 -267.585938 64.769531 -272.25 74.09375 -276.40625 C 83.414062 -280.570312 93.429688 -284.242188 104.140625 -287.421875 C 114.847656 -290.597656 125.953125 -293.078125 137.453125 -294.859375 C 148.960938 -296.648438 160.472656 -297.546875 171.984375 -297.546875 C 191.023438 -297.546875 206.097656 -293.875 217.203125 -286.53125 C 228.304688 -279.1875 233.859375 -267.1875 233.859375 -250.53125 C 233.859375 -244.976562 233.066406 -239.519531 231.484375 -234.15625 C 229.898438 -228.800781 227.914062 -223.941406 225.53125 -219.578125 C 217.195312 -219.578125 208.664062 -219.179688 199.9375 -218.390625 C 191.21875 -217.597656 182.691406 -216.40625 174.359375 -214.8125 C 166.023438 -213.226562 158.1875 -211.546875 150.84375 -209.765625 C 143.507812 -207.984375 137.265625 -205.898438 132.109375 -203.515625 Z M 132.109375 -0.59375 "/></g></g><g style="fill:#000000;fill-opacity:1;"><g transform="translate(2130.379857, 525.507415)"><path style="stroke:none" d="M 133.890625 -0.59375 C 129.523438 0.195312 123.078125 1.285156 114.546875 2.671875 C 106.023438 4.066406 97.398438 4.765625 88.671875 4.765625 C 79.941406 4.765625 72.101562 4.164062 65.15625 2.96875 C 58.21875 1.78125 52.367188 -0.59375 47.609375 -4.15625 C 42.847656 -7.726562 39.175781 -12.585938 36.59375 -18.734375 C 34.019531 -24.890625 32.734375 -32.925781 32.734375 -42.84375 L 32.734375 -387.984375 C 37.097656 -388.785156 43.539062 -389.878906 52.0625 -391.265625 C 60.59375 -392.648438 69.222656 -393.34375 77.953125 -393.34375 C 86.679688 -393.34375 94.515625 -392.75 101.453125 -391.5625 C 108.398438 -390.375 114.253906 -387.992188 119.015625 -384.421875 C 123.773438 -380.847656 127.441406 -375.988281 130.015625 -369.84375 C 132.597656 -363.695312 133.890625 -355.660156 133.890625 -345.734375 Z M 133.890625 -0.59375 "/></g></g><g style="fill:#000000;fill-opacity:1;"><g transform="translate(2296.995336, 525.507415)"><path style="stroke:none" d="M 76.171875 -73.796875 C 71.804688 -83.710938 67.144531 -94.816406 62.1875 -107.109375 C 57.226562 -119.410156 52.070312 -133.492188 46.71875 -149.359375 C 41.363281 -165.234375 35.804688 -183.382812 30.046875 -203.8125 C 24.296875 -224.238281 18.25 -247.742188 11.90625 -274.328125 C 17.457031 -279.878906 24.894531 -284.738281 34.21875 -288.90625 C 43.539062 -293.070312 53.753906 -295.15625 64.859375 -295.15625 C 78.742188 -295.15625 90.25 -292.28125 99.375 -286.53125 C 108.5 -280.78125 115.242188 -269.96875 119.609375 -254.09375 L 166.625 -90.453125 L 169 -90.453125 C 173.757812 -103.941406 178.421875 -118.617188 182.984375 -134.484375 C 187.546875 -150.359375 192.007812 -166.722656 196.375 -183.578125 C 200.738281 -200.441406 204.804688 -217.300781 208.578125 -234.15625 C 212.347656 -251.019531 215.617188 -267.585938 218.390625 -283.859375 C 232.671875 -291.390625 248.34375 -295.15625 265.40625 -295.15625 C 279.289062 -295.15625 290.796875 -292.179688 299.921875 -286.234375 C 309.046875 -280.285156 313.609375 -269.96875 313.609375 -255.28125 C 313.609375 -244.570312 312.21875 -232.175781 309.4375 -218.09375 C 306.664062 -204.007812 303 -189.03125 298.4375 -173.15625 C 293.875 -157.289062 288.515625 -140.925781 282.359375 -124.0625 C 276.210938 -107.207031 269.765625 -90.644531 263.015625 -74.375 C 256.273438 -58.113281 249.332031 -42.742188 242.1875 -28.265625 C 235.050781 -13.785156 228.113281 -0.789062 221.375 10.71875 C 210.257812 30.15625 199.941406 46.019531 190.421875 58.3125 C 180.898438 70.613281 171.773438 80.234375 163.046875 87.171875 C 154.316406 94.117188 145.585938 98.878906 136.859375 101.453125 C 128.140625 104.035156 119.019531 105.328125 109.5 105.328125 C 92.832031 105.328125 79.34375 100.367188 69.03125 90.453125 C 58.71875 80.535156 52.566406 67.640625 50.578125 51.765625 C 63.273438 41.847656 75.96875 30.835938 88.65625 18.734375 C 101.351562 6.640625 112.863281 -5.753906 123.1875 -18.453125 C 116.4375 -20.429688 109.191406 -25.085938 101.453125 -32.421875 C 93.722656 -39.765625 85.296875 -53.554688 76.171875 -73.796875 Z M 76.171875 -73.796875 "/></g></g></g></svg>