<svg xmlns="http://www.w3.org/2000/svg" xmlns:xlink="http://www.w3.org/1999/xlink" width="5000" zoomAndPan="magnify" viewBox="0 0 3750 1274.999945" height="1700" preserveAspectRatio="xMidYMid meet" version="1.2"><defs><clipPath id="7517365b97"><path d="M 985 244.347656 L 1396 244.347656 L 1396 361 L 985 361 Z M 985 244.347656 "/></clipPath><clipPath id="bfb96ee012"><path d="M 876.171875 733 L 933 733 L 933 769 L 876.171875 769 Z M 876.171875 733 "/></clipPath><clipPath id="ae92352062"><path d="M 876.171875 730 L 933 730 L 933 766 L 876.171875 766 Z M 876.171875 730 "/></clipPath><clipPath id="1a462e06d3"><path d="M 1448 733 L 1504.917969 733 L 1504.917969 769 L 1448 769 Z M 1448 733 "/></clipPath><clipPath id="bd7aaaecbf"><path d="M 1448 730 L 1504.917969 730 L 1504.917969 765.699219 L 1448 765.699219 Z M 1448 730 "/></clipPath><clipPath id="8546e68c79"><path d="M 1138 981 L 1187 981 L 1187 1030.296875 L 1138 1030.296875 Z M 1138 981 "/></clipPath><clipPath id="8571e9370b"><path d="M 1194.046875 981 L 1243 981 L 1243 1030.296875 L 1194.046875 1030.296875 Z M 1194.046875 981 "/></clipPath></defs><g id="2650856a57"><g style="fill:#ffffff;fill-opacity:1;"><g transform="translate(1506.049632, 950.362649)"><path style="stroke:none" d="M 530.609375 -166.53125 C 530.609375 -108.34375 508.785156 -62.785156 465.140625 -29.859375 C 421.503906 3.066406 357.191406 19.53125 272.203125 19.53125 C 240.035156 19.53125 210.171875 17.234375 182.609375 12.640625 C 155.046875 8.046875 131.5 0.960938 111.96875 -8.609375 C 92.445312 -18.179688 77.132812 -30.238281 66.03125 -44.78125 C 54.9375 -59.332031 49.390625 -76.5625 49.390625 -96.46875 C 49.390625 -114.851562 53.21875 -130.359375 60.875 -142.984375 C 68.53125 -155.617188 77.71875 -166.148438 88.4375 -174.578125 C 110.644531 -162.328125 136.101562 -151.414062 164.8125 -141.84375 C 193.519531 -132.269531 226.632812 -127.484375 264.15625 -127.484375 C 287.894531 -127.484375 306.078125 -130.925781 318.703125 -137.8125 C 331.335938 -144.707031 337.65625 -153.898438 337.65625 -165.390625 C 337.65625 -176.109375 333.0625 -184.53125 323.875 -190.65625 C 314.6875 -196.78125 299.375 -201.753906 277.9375 -205.578125 L 243.484375 -212.46875 C 176.867188 -225.488281 127.289062 -245.972656 94.75 -273.921875 C 62.207031 -301.867188 45.9375 -341.875 45.9375 -393.9375 C 45.9375 -422.269531 52.0625 -447.921875 64.3125 -470.890625 C 76.5625 -493.859375 93.789062 -513 116 -528.3125 C 138.207031 -543.625 164.816406 -555.492188 195.828125 -563.921875 C 226.835938 -572.347656 261.097656 -576.5625 298.609375 -576.5625 C 326.941406 -576.5625 353.550781 -574.453125 378.4375 -570.234375 C 403.320312 -566.023438 424.953125 -559.707031 443.328125 -551.28125 C 461.703125 -542.863281 476.25 -531.953125 486.96875 -518.546875 C 497.6875 -505.148438 503.046875 -489.265625 503.046875 -470.890625 C 503.046875 -453.273438 499.789062 -438.148438 493.28125 -425.515625 C 486.78125 -412.890625 478.550781 -402.363281 468.59375 -393.9375 C 462.46875 -397.769531 453.28125 -401.789062 441.03125 -406 C 428.78125 -410.207031 415.378906 -414.035156 400.828125 -417.484375 C 386.285156 -420.929688 371.546875 -423.800781 356.609375 -426.09375 C 341.679688 -428.394531 328.09375 -429.546875 315.84375 -429.546875 C 290.570312 -429.546875 271.046875 -426.671875 257.265625 -420.921875 C 243.484375 -415.179688 236.59375 -406.1875 236.59375 -393.9375 C 236.59375 -385.519531 240.421875 -378.628906 248.078125 -373.265625 C 255.734375 -367.910156 270.28125 -362.9375 291.71875 -358.34375 L 327.328125 -350.296875 C 400.828125 -333.453125 453.082031 -310.289062 484.09375 -280.8125 C 515.101562 -251.332031 530.609375 -213.238281 530.609375 -166.53125 Z M 530.609375 -166.53125 "/></g></g><g style="fill:#ffffff;fill-opacity:1;"><g transform="translate(2076.863027, 950.362649)"><path style="stroke:none" d="M 354.890625 18.375 C 309.710938 18.375 267.789062 12.054688 229.125 -0.578125 C 190.457031 -13.210938 156.765625 -32.160156 128.046875 -57.421875 C 99.335938 -82.691406 76.753906 -114.46875 60.296875 -152.75 C 43.835938 -191.03125 35.609375 -235.820312 35.609375 -287.125 C 35.609375 -337.664062 43.835938 -381.117188 60.296875 -417.484375 C 76.753906 -453.859375 98.382812 -483.71875 125.1875 -507.0625 C 151.988281 -530.414062 182.613281 -547.644531 217.0625 -558.75 C 251.519531 -569.851562 286.742188 -575.40625 322.734375 -575.40625 C 363.316406 -575.40625 400.257812 -569.28125 433.5625 -557.03125 C 466.875 -544.78125 495.585938 -527.9375 519.703125 -506.5 C 543.816406 -485.0625 562.570312 -459.410156 575.96875 -429.546875 C 589.375 -399.679688 596.078125 -367.140625 596.078125 -331.921875 C 596.078125 -305.890625 588.800781 -285.984375 574.25 -272.203125 C 559.707031 -258.421875 539.421875 -249.613281 513.390625 -245.78125 L 229.703125 -203.28125 C 238.128906 -178.019531 255.359375 -159.070312 281.390625 -146.4375 C 307.421875 -133.800781 337.28125 -127.484375 370.96875 -127.484375 C 402.363281 -127.484375 432.035156 -131.503906 459.984375 -139.546875 C 487.929688 -147.585938 510.707031 -156.96875 528.3125 -167.6875 C 540.5625 -160.03125 550.894531 -149.3125 559.3125 -135.53125 C 567.738281 -121.75 571.953125 -107.195312 571.953125 -91.875 C 571.953125 -57.425781 555.875 -31.78125 523.71875 -14.9375 C 499.21875 -1.914062 471.65625 6.890625 441.03125 11.484375 C 410.40625 16.078125 381.691406 18.375 354.890625 18.375 Z M 322.734375 -432.984375 C 304.359375 -432.984375 288.46875 -429.921875 275.0625 -423.796875 C 261.664062 -417.671875 250.753906 -409.820312 242.328125 -400.25 C 233.910156 -390.6875 227.59375 -379.96875 223.375 -368.09375 C 219.164062 -356.226562 216.679688 -344.171875 215.921875 -331.921875 L 412.3125 -364.078125 C 410.019531 -379.390625 401.597656 -394.703125 387.046875 -410.015625 C 372.503906 -425.328125 351.066406 -432.984375 322.734375 -432.984375 Z M 322.734375 -432.984375 "/></g></g><g style="fill:#ffffff;fill-opacity:1;"><g transform="translate(2707.399381, 950.362649)"><path style="stroke:none" d="M 254.96875 -1.15625 C 247.3125 1.144531 235.25 3.441406 218.78125 5.734375 C 202.320312 8.035156 185.289062 9.1875 167.6875 9.1875 C 150.84375 9.1875 135.71875 8.035156 122.3125 5.734375 C 108.914062 3.441406 97.625 -1.144531 88.4375 -8.03125 C 79.25 -14.925781 72.164062 -24.304688 67.1875 -36.171875 C 62.207031 -48.046875 59.71875 -63.550781 59.71875 -82.6875 L 59.71875 -427.25 C 59.71875 -444.851562 62.972656 -459.972656 69.484375 -472.609375 C 75.992188 -485.242188 85.375 -496.539062 97.625 -506.5 C 109.875 -516.445312 124.992188 -525.441406 142.984375 -533.484375 C 160.984375 -541.523438 180.316406 -548.609375 200.984375 -554.734375 C 221.660156 -560.859375 243.097656 -565.644531 265.296875 -569.09375 C 287.503906 -572.539062 309.710938 -574.265625 331.921875 -574.265625 C 368.671875 -574.265625 397.765625 -567.179688 419.203125 -553.015625 C 440.640625 -538.847656 451.359375 -515.6875 451.359375 -483.53125 C 451.359375 -472.8125 449.828125 -462.28125 446.765625 -451.9375 C 443.703125 -441.601562 439.875 -432.222656 435.28125 -423.796875 C 419.207031 -423.796875 402.75 -423.03125 385.90625 -421.5 C 369.0625 -419.96875 352.597656 -417.671875 336.515625 -414.609375 C 320.429688 -411.546875 305.304688 -408.289062 291.140625 -404.84375 C 276.984375 -401.40625 264.925781 -397.390625 254.96875 -392.796875 Z M 254.96875 -1.15625 "/></g></g><g style="fill:#ffffff;fill-opacity:1;"><g transform="translate(3162.212452, 950.362649)"><path style="stroke:none" d="M 298.609375 -124.046875 C 311.628906 -124.046875 325.988281 -125.382812 341.6875 -128.0625 C 357.382812 -130.738281 369.0625 -134.375 376.71875 -138.96875 L 376.71875 -230.859375 L 294.015625 -223.953125 C 272.578125 -222.421875 254.96875 -217.828125 241.1875 -210.171875 C 227.40625 -202.515625 220.515625 -191.03125 220.515625 -175.71875 C 220.515625 -160.40625 226.445312 -147.960938 238.3125 -138.390625 C 250.1875 -128.828125 270.285156 -124.046875 298.609375 -124.046875 Z M 289.421875 -575.40625 C 330.773438 -575.40625 368.484375 -571.191406 402.546875 -562.765625 C 436.617188 -554.347656 465.710938 -541.523438 489.828125 -524.296875 C 513.953125 -507.066406 532.519531 -485.242188 545.53125 -458.828125 C 558.550781 -432.410156 565.0625 -401.210938 565.0625 -365.234375 L 565.0625 -107.953125 C 565.0625 -88.046875 559.507812 -71.773438 548.40625 -59.140625 C 537.3125 -46.515625 524.109375 -35.609375 508.796875 -26.421875 C 459.023438 3.441406 388.960938 18.375 298.609375 18.375 C 258.035156 18.375 221.476562 14.546875 188.9375 6.890625 C 156.394531 -0.765625 128.445312 -12.25 105.09375 -27.5625 C 81.738281 -42.875 63.742188 -62.398438 51.109375 -86.140625 C 38.472656 -109.878906 32.15625 -137.441406 32.15625 -168.828125 C 32.15625 -221.660156 47.851562 -262.238281 79.25 -290.5625 C 110.644531 -318.894531 159.265625 -336.507812 225.109375 -343.40625 L 375.5625 -359.484375 L 375.5625 -367.53125 C 375.5625 -389.726562 365.796875 -405.613281 346.265625 -415.1875 C 326.742188 -424.757812 298.609375 -429.546875 261.859375 -429.546875 C 232.765625 -429.546875 204.4375 -426.484375 176.875 -420.359375 C 149.3125 -414.234375 124.425781 -406.578125 102.21875 -397.390625 C 92.257812 -404.273438 83.832031 -414.800781 76.9375 -428.96875 C 70.050781 -443.132812 66.609375 -457.875 66.609375 -473.1875 C 66.609375 -493.09375 71.394531 -508.976562 80.96875 -520.84375 C 90.539062 -532.71875 105.28125 -542.863281 125.1875 -551.28125 C 147.394531 -559.707031 173.617188 -565.832031 203.859375 -569.65625 C 234.109375 -573.488281 262.628906 -575.40625 289.421875 -575.40625 Z M 289.421875 -575.40625 "/></g></g><path style=" stroke:none;fill-rule:evenodd;fill:#ffffff;fill-opacity:1;" d="M 1323.605469 352.949219 C 1322.554688 352.949219 1321.53125 353.066406 1320.542969 353.273438 L 1320.542969 332.1875 L 1326.664062 330.8125 L 1326.664062 353.273438 C 1325.664062 353.058594 1324.636719 352.949219 1323.605469 352.949219 "/><path style=" stroke:none;fill-rule:evenodd;fill:#edc032;fill-opacity:1;" d="M 1323.605469 350.480469 C 1322.554688 350.480469 1321.53125 350.589844 1320.542969 350.800781 L 1320.542969 329.726562 L 1326.664062 328.34375 L 1326.664062 350.800781 C 1325.664062 350.589844 1324.636719 350.480469 1323.605469 350.480469 "/><path style=" stroke:none;fill-rule:evenodd;fill:#ffffff;fill-opacity:1;" d="M 1323.605469 378.214844 C 1317.664062 378.214844 1312.847656 373.398438 1312.847656 367.457031 C 1312.847656 361.515625 1317.664062 356.699219 1323.605469 356.699219 C 1329.542969 356.699219 1334.359375 361.515625 1334.359375 367.457031 C 1334.359375 373.398438 1329.542969 378.214844 1323.605469 378.214844 "/><path style=" stroke:none;fill-rule:evenodd;fill:#edc032;fill-opacity:1;" d="M 1323.605469 375.746094 C 1317.664062 375.746094 1312.847656 370.929688 1312.847656 364.988281 C 1312.847656 359.046875 1317.664062 354.230469 1323.605469 354.230469 C 1329.542969 354.230469 1334.359375 359.046875 1334.359375 364.988281 C 1334.359375 370.929688 1329.542969 375.746094 1323.605469 375.746094 "/><path style=" stroke:none;fill-rule:evenodd;fill:#ffffff;fill-opacity:1;" d="M 1327.976562 468.550781 C 1321.53125 469.863281 1314.75 468.152344 1307.554688 462.746094 L 1318.589844 383.542969 C 1320.15625 384.117188 1321.824219 384.433594 1323.605469 384.433594 C 1325.386719 384.433594 1327.132812 384.105469 1328.722656 383.503906 L 1339.660156 462.746094 C 1337.734375 464.273438 1335.792969 465.53125 1333.808594 466.507812 L 1331.609375 452.71875 L 1326.492188 420.582031 L 1327.488281 452.71875 L 1327.976562 468.550781 "/><path style=" stroke:none;fill-rule:evenodd;fill:#edc032;fill-opacity:1;" d="M 1327.976562 466.082031 C 1321.53125 467.394531 1314.75 465.683594 1307.554688 460.277344 L 1318.589844 381.070312 C 1320.15625 381.648438 1321.824219 381.964844 1323.605469 381.964844 C 1325.386719 381.964844 1327.132812 381.632812 1328.722656 381.03125 L 1339.660156 460.277344 C 1337.734375 461.800781 1335.792969 463.0625 1333.808594 464.039062 L 1331.609375 450.25 L 1326.492188 418.109375 L 1327.488281 450.25 L 1327.976562 466.082031 "/><g clip-rule="nonzero" clip-path="url(#7517365b97)"><path style=" stroke:none;fill-rule:evenodd;fill:#ffffff;fill-opacity:1;" d="M 1394.472656 300.5625 L 1191.160156 244.4375 C 1190.78125 244.320312 1190.417969 244.320312 1190.035156 244.4375 L 986.726562 300.5625 C 985.867188 300.792969 985.304688 301.472656 985.304688 302.269531 C 985.304688 303.0625 985.867188 303.734375 986.726562 303.976562 L 1190.035156 360.097656 C 1190.417969 360.214844 1190.78125 360.214844 1191.160156 360.097656 L 1316.96875 323.957031 L 1192.894531 288.285156 C 1189.015625 286.996094 1190.695312 282.832031 1194.632812 283.699219 L 1327.925781 320.992188 L 1394.472656 303.976562 C 1395.332031 303.734375 1395.894531 303.0625 1395.894531 302.269531 C 1395.894531 301.472656 1395.332031 300.792969 1394.472656 300.5625 "/></g><path style=" stroke:none;fill-rule:evenodd;fill:#ffffff;fill-opacity:1;" d="M 1102.292969 414.828125 C 1094.515625 409.382812 1084.847656 402.554688 1079.714844 395.484375 L 1088.011719 338.816406 L 1109.714844 344.894531 Z M 1121.132812 426.675781 C 1119.566406 425.980469 1118.015625 425.253906 1116.496094 424.484375 C 1116.222656 424.351562 1115.953125 424.214844 1115.679688 424.070312 L 1122.476562 348.8125 L 1126.492188 349.972656 Z M 1293.175781 339.105469 L 1301.957031 395.863281 C 1294.359375 406.738281 1278.796875 417.988281 1265.40625 424.691406 C 1242.59375 436.128906 1215.089844 439.859375 1189.625 448.78125 C 1169.199219 440.796875 1147.042969 436.949219 1127.242188 429.230469 L 1131.347656 351.382812 L 1187.074219 367.539062 C 1189.6875 368.316406 1192.449219 368.324219 1195.058594 367.539062 L 1293.175781 339.105469 "/><path style=" stroke:none;fill-rule:nonzero;fill:#ffffff;fill-opacity:1;" d="M 1082.707031 879.808594 C 990.359375 877.042969 917.808594 787.253906 920.386719 678.484375 C 921.933594 613.289062 950.128906 556.011719 992.359375 520.785156 C 952.746094 555.417969 926.453125 610.222656 924.976562 672.429688 C 922.460938 778.582031 993.101562 866.257812 1083.140625 869.347656 L 1082.707031 879.808594 "/><path style=" stroke:none;fill-rule:nonzero;fill:#ffffff;fill-opacity:1;" d="M 965.695312 809.976562 C 965.695312 809.976562 942.355469 762.867188 972.246094 724.863281 C 972.246094 724.863281 999.351562 768.679688 965.695312 809.976562 "/><path style=" stroke:none;fill-rule:nonzero;fill:#ffffff;fill-opacity:1;" d="M 1003.363281 839.085938 C 1003.363281 839.085938 980.023438 791.972656 1009.917969 753.976562 C 1009.917969 753.976562 1037.027344 797.785156 1003.363281 839.085938 "/><path style=" stroke:none;fill-rule:nonzero;fill:#ffffff;fill-opacity:1;" d="M 1040.398438 854.742188 C 1040.398438 854.742188 1012.769531 827.945312 1039.222656 807.074219 C 1039.222656 807.074219 1070.320312 832.082031 1040.398438 854.742188 "/><path style=" stroke:none;fill-rule:nonzero;fill:#ffffff;fill-opacity:1;" d="M 954.859375 813.445312 C 954.859375 813.445312 910.722656 829.664062 884.953125 787.164062 C 884.953125 787.164062 927.085938 765.890625 954.859375 813.445312 "/><path style=" stroke:none;fill-rule:nonzero;fill:#ffffff;fill-opacity:1;" d="M 993.171875 851.929688 C 993.171875 851.929688 949.191406 879.925781 919.308594 844.949219 C 919.308594 844.949219 960.832031 812.519531 993.171875 851.929688 "/><path style=" stroke:none;fill-rule:nonzero;fill:#ffffff;fill-opacity:1;" d="M 1042.8125 880.707031 C 1042.8125 880.707031 1001.816406 914.371094 966.425781 883.753906 C 966.425781 883.753906 1004.296875 846.015625 1042.8125 880.707031 "/><g clip-rule="nonzero" clip-path="url(#bfb96ee012)"><path style=" stroke:none;fill-rule:nonzero;fill:#ffffff;fill-opacity:1;" d="M 932.761719 767.683594 C 932.761719 767.683594 892.664062 775.273438 876.269531 735.054688 C 876.269531 735.054688 915.320312 722.859375 932.761719 767.683594 "/></g><path style=" stroke:none;fill-rule:nonzero;fill:#ffffff;fill-opacity:1;" d="M 921.914062 724.84375 C 921.914062 724.84375 883.128906 711.460938 883.128906 666.675781 C 883.128906 666.675781 922.667969 675.359375 921.914062 724.84375 "/><path style=" stroke:none;fill-rule:nonzero;fill:#ffffff;fill-opacity:1;" d="M 923.535156 668.175781 C 923.535156 668.175781 890.136719 651.78125 893.875 611.851562 C 893.875 611.851562 928.328125 624.136719 923.535156 668.175781 "/><path style=" stroke:none;fill-rule:nonzero;fill:#ffffff;fill-opacity:1;" d="M 926.652344 621.640625 C 926.652344 621.640625 904.585938 587.988281 924.511719 555.152344 C 924.511719 555.152344 949.210938 585.804688 926.652344 621.640625 "/><path style=" stroke:none;fill-rule:nonzero;fill:#ffffff;fill-opacity:1;" d="M 949.023438 568.957031 C 949.023438 568.957031 930.914062 541.34375 947.269531 514.398438 C 947.269531 514.398438 967.539062 539.554688 949.023438 568.957031 "/><path style=" stroke:none;fill-rule:nonzero;fill:#ffffff;fill-opacity:1;" d="M 970.125 530.664062 C 970.125 530.664062 963.980469 500.132812 985.660156 486.789062 C 985.660156 486.789062 994.328125 516.441406 970.125 530.664062 "/><path style=" stroke:none;fill-rule:nonzero;fill:#ffffff;fill-opacity:1;" d="M 935.59375 758.941406 C 935.59375 758.941406 925.449219 711.242188 959.28125 687.015625 C 959.28125 687.015625 973.382812 732.953125 935.59375 758.941406 "/><path style=" stroke:none;fill-rule:nonzero;fill:#ffffff;fill-opacity:1;" d="M 926.117188 698.375 C 926.117188 698.375 926.691406 654.464844 960.453125 642.632812 C 960.453125 642.632812 963.613281 686.085938 926.117188 698.375 "/><path style=" stroke:none;fill-rule:nonzero;fill:#ffffff;fill-opacity:1;" d="M 924.15625 642.917969 C 924.15625 642.917969 934.964844 604.160156 967.484375 604.632812 C 967.484375 604.632812 960.0625 644.179688 924.15625 642.917969 "/><path style=" stroke:none;fill-rule:nonzero;fill:#ffffff;fill-opacity:1;" d="M 942.03125 595.179688 C 942.03125 595.179688 956.933594 559.847656 987.921875 565.59375 C 987.921875 565.59375 976.15625 602.253906 942.03125 595.179688 "/><path style=" stroke:none;fill-rule:nonzero;fill:#ffffff;fill-opacity:1;" d="M 971.332031 547.480469 C 971.332031 547.480469 989.539062 519.867188 1015.476562 531.296875 C 1015.476562 531.296875 999.785156 560.699219 971.332031 547.480469 "/><path style=" stroke:none;fill-rule:nonzero;fill:#edc032;fill-opacity:1;" d="M 996.824219 515.960938 C 996.824219 515.960938 1012.167969 475.160156 1043.433594 484.269531 C 1043.433594 484.269531 1031.238281 526.855469 996.824219 515.960938 "/><path style=" stroke:none;fill-rule:nonzero;fill:#edc032;fill-opacity:1;" d="M 966.425781 881.082031 C 1001.816406 911.703125 1042.8125 878.039062 1042.8125 878.039062 C 1004.296875 843.34375 966.425781 881.082031 966.425781 881.082031 "/><path style=" stroke:none;fill-rule:nonzero;fill:#edc032;fill-opacity:1;" d="M 967.671875 804.730469 C 998.195312 764.203125 972.246094 722.199219 972.246094 722.199219 C 951.160156 749.003906 956.566406 780.335938 961.578125 796.464844 C 952.570312 783.511719 944.992188 769.136719 939.105469 753.679688 C 972.476562 727.351562 959.28125 684.347656 959.28125 684.347656 C 938.449219 699.261719 934.300781 723.066406 934.175781 739.171875 C 927.691406 717.539062 924.402344 694.140625 924.976562 669.753906 C 925.214844 659.707031 926.109375 649.847656 927.601562 640.242188 C 960.535156 638.949219 967.484375 601.960938 967.484375 601.960938 C 948.128906 601.683594 936.464844 615.300781 930.203125 626.367188 C 939.875 582.378906 962.269531 544.425781 992.359375 518.113281 C 966.546875 539.644531 945.996094 569.414062 933.550781 604.191406 C 942.703125 575.105469 924.511719 552.484375 924.511719 552.484375 C 904.585938 585.320312 926.652344 618.972656 926.652344 618.972656 C 929.0625 615.128906 930.914062 611.363281 932.328125 607.675781 C 928.179688 619.929688 925.015625 632.769531 922.984375 646.074219 C 917.789062 617.730469 893.875 609.183594 893.875 609.183594 C 890.769531 642.304688 913.21875 659.222656 920.960938 664.035156 C 920.679688 667.933594 920.476562 671.855469 920.386719 675.8125 C 917.808594 784.582031 990.359375 874.363281 1082.707031 877.136719 L 1083.140625 866.679688 C 1037.226562 865.101562 996.371094 841.527344 967.671875 804.730469 "/><path style=" stroke:none;fill-rule:nonzero;fill:#edc032;fill-opacity:1;" d="M 1009.917969 751.308594 C 980.023438 789.300781 1003.363281 836.414062 1003.363281 836.414062 C 1037.027344 795.113281 1009.917969 751.308594 1009.917969 751.308594 "/><path style=" stroke:none;fill-rule:nonzero;fill:#edc032;fill-opacity:1;" d="M 1039.222656 804.40625 C 1012.769531 825.273438 1040.398438 852.066406 1040.398438 852.066406 C 1070.320312 829.414062 1039.222656 804.40625 1039.222656 804.40625 "/><path style=" stroke:none;fill-rule:nonzero;fill:#edc032;fill-opacity:1;" d="M 954.859375 810.765625 C 927.085938 763.222656 884.953125 784.492188 884.953125 784.492188 C 910.722656 826.996094 954.859375 810.765625 954.859375 810.765625 "/><path style=" stroke:none;fill-rule:nonzero;fill:#edc032;fill-opacity:1;" d="M 919.308594 842.277344 C 949.191406 877.253906 993.171875 849.261719 993.171875 849.261719 C 960.832031 809.855469 919.308594 842.277344 919.308594 842.277344 "/><g clip-rule="nonzero" clip-path="url(#ae92352062)"><path style=" stroke:none;fill-rule:nonzero;fill:#edc032;fill-opacity:1;" d="M 932.761719 765.011719 C 915.320312 720.191406 876.269531 732.382812 876.269531 732.382812 C 892.664062 772.609375 932.761719 765.011719 932.761719 765.011719 "/></g><path style=" stroke:none;fill-rule:nonzero;fill:#edc032;fill-opacity:1;" d="M 921.914062 722.175781 C 922.667969 672.691406 883.128906 664.007812 883.128906 664.007812 C 883.128906 708.792969 921.914062 722.175781 921.914062 722.175781 "/><path style=" stroke:none;fill-rule:nonzero;fill:#edc032;fill-opacity:1;" d="M 947.269531 511.726562 C 930.914062 538.671875 949.023438 566.285156 949.023438 566.285156 C 967.539062 536.882812 947.269531 511.726562 947.269531 511.726562 "/><path style=" stroke:none;fill-rule:nonzero;fill:#edc032;fill-opacity:1;" d="M 985.660156 484.121094 C 963.980469 497.464844 970.125 527.992188 970.125 527.992188 C 994.328125 513.769531 985.660156 484.121094 985.660156 484.121094 "/><path style=" stroke:none;fill-rule:nonzero;fill:#edc032;fill-opacity:1;" d="M 926.117188 695.707031 C 963.613281 683.414062 960.453125 639.964844 960.453125 639.964844 C 926.691406 651.792969 926.117188 695.707031 926.117188 695.707031 "/><path style=" stroke:none;fill-rule:nonzero;fill:#edc032;fill-opacity:1;" d="M 942.03125 592.507812 C 976.15625 599.582031 987.921875 562.925781 987.921875 562.925781 C 956.933594 557.175781 942.03125 592.507812 942.03125 592.507812 "/><path style=" stroke:none;fill-rule:nonzero;fill:#edc032;fill-opacity:1;" d="M 1015.476562 528.625 C 989.539062 517.195312 971.332031 544.808594 971.332031 544.808594 C 999.785156 558.03125 1015.476562 528.625 1015.476562 528.625 "/><path style=" stroke:none;fill-rule:nonzero;fill:#edc032;fill-opacity:1;" d="M 1043.433594 481.597656 C 1012.167969 472.488281 996.824219 513.292969 996.824219 513.292969 C 1031.238281 524.183594 1043.433594 481.597656 1043.433594 481.597656 "/><path style=" stroke:none;fill-rule:nonzero;fill:#ffffff;fill-opacity:1;" d="M 1298.484375 879.808594 C 1390.832031 877.042969 1463.390625 787.253906 1460.8125 678.484375 C 1459.265625 613.289062 1431.070312 556.011719 1388.839844 520.785156 C 1428.453125 555.417969 1454.746094 610.222656 1456.222656 672.429688 C 1458.734375 778.582031 1388.097656 866.257812 1298.058594 869.347656 L 1298.484375 879.808594 "/><path style=" stroke:none;fill-rule:nonzero;fill:#ffffff;fill-opacity:1;" d="M 1415.503906 809.976562 C 1415.503906 809.976562 1438.835938 762.867188 1408.953125 724.863281 C 1408.953125 724.863281 1381.84375 768.679688 1415.503906 809.976562 "/><path style=" stroke:none;fill-rule:nonzero;fill:#ffffff;fill-opacity:1;" d="M 1377.835938 839.085938 C 1377.835938 839.085938 1401.175781 791.972656 1371.28125 753.976562 C 1371.28125 753.976562 1344.171875 797.785156 1377.835938 839.085938 "/><path style=" stroke:none;fill-rule:nonzero;fill:#ffffff;fill-opacity:1;" d="M 1340.792969 854.742188 C 1340.792969 854.742188 1368.425781 827.945312 1341.976562 807.074219 C 1341.976562 807.074219 1310.878906 832.082031 1340.792969 854.742188 "/><path style=" stroke:none;fill-rule:nonzero;fill:#ffffff;fill-opacity:1;" d="M 1426.339844 813.445312 C 1426.339844 813.445312 1470.476562 829.664062 1496.246094 787.164062 C 1496.246094 787.164062 1454.113281 765.890625 1426.339844 813.445312 "/><path style=" stroke:none;fill-rule:nonzero;fill:#ffffff;fill-opacity:1;" d="M 1388.027344 851.929688 C 1388.027344 851.929688 1432.003906 879.925781 1461.882812 844.949219 C 1461.882812 844.949219 1420.363281 812.519531 1388.027344 851.929688 "/><path style=" stroke:none;fill-rule:nonzero;fill:#ffffff;fill-opacity:1;" d="M 1338.386719 880.707031 C 1338.386719 880.707031 1379.382812 914.371094 1414.773438 883.753906 C 1414.773438 883.753906 1376.898438 846.015625 1338.386719 880.707031 "/><g clip-rule="nonzero" clip-path="url(#1a462e06d3)"><path style=" stroke:none;fill-rule:nonzero;fill:#ffffff;fill-opacity:1;" d="M 1448.429688 767.683594 C 1448.429688 767.683594 1488.535156 775.273438 1504.929688 735.054688 C 1504.929688 735.054688 1465.875 722.859375 1448.429688 767.683594 "/></g><path style=" stroke:none;fill-rule:nonzero;fill:#ffffff;fill-opacity:1;" d="M 1459.285156 724.84375 C 1459.285156 724.84375 1498.070312 711.460938 1498.070312 666.675781 C 1498.070312 666.675781 1458.527344 675.359375 1459.285156 724.84375 "/><path style=" stroke:none;fill-rule:nonzero;fill:#ffffff;fill-opacity:1;" d="M 1457.65625 668.175781 C 1457.65625 668.175781 1491.0625 651.78125 1487.320312 611.851562 C 1487.320312 611.851562 1452.871094 624.136719 1457.65625 668.175781 "/><path style=" stroke:none;fill-rule:nonzero;fill:#ffffff;fill-opacity:1;" d="M 1454.546875 621.640625 C 1454.546875 621.640625 1476.613281 587.988281 1456.6875 555.152344 C 1456.6875 555.152344 1431.988281 585.804688 1454.546875 621.640625 "/><path style=" stroke:none;fill-rule:nonzero;fill:#ffffff;fill-opacity:1;" d="M 1432.175781 568.957031 C 1432.175781 568.957031 1450.285156 541.34375 1433.929688 514.398438 C 1433.929688 514.398438 1413.660156 539.554688 1432.175781 568.957031 "/><path style=" stroke:none;fill-rule:nonzero;fill:#ffffff;fill-opacity:1;" d="M 1411.074219 530.664062 C 1411.074219 530.664062 1417.214844 500.132812 1395.53125 486.789062 C 1395.53125 486.789062 1386.871094 516.441406 1411.074219 530.664062 "/><path style=" stroke:none;fill-rule:nonzero;fill:#ffffff;fill-opacity:1;" d="M 1445.597656 758.941406 C 1445.597656 758.941406 1455.75 711.242188 1421.910156 687.015625 C 1421.910156 687.015625 1407.816406 732.953125 1445.597656 758.941406 "/><path style=" stroke:none;fill-rule:nonzero;fill:#ffffff;fill-opacity:1;" d="M 1455.082031 698.375 C 1455.082031 698.375 1454.507812 654.464844 1420.746094 642.632812 C 1420.746094 642.632812 1417.585938 686.085938 1455.082031 698.375 "/><path style=" stroke:none;fill-rule:nonzero;fill:#ffffff;fill-opacity:1;" d="M 1457.035156 642.917969 C 1457.035156 642.917969 1446.230469 604.160156 1413.710938 604.632812 C 1413.710938 604.632812 1421.132812 644.179688 1457.035156 642.917969 "/><path style=" stroke:none;fill-rule:nonzero;fill:#ffffff;fill-opacity:1;" d="M 1439.160156 595.179688 C 1439.160156 595.179688 1424.265625 559.847656 1393.277344 565.59375 C 1393.277344 565.59375 1405.042969 602.253906 1439.160156 595.179688 "/><path style=" stroke:none;fill-rule:nonzero;fill:#ffffff;fill-opacity:1;" d="M 1409.867188 547.480469 C 1409.867188 547.480469 1391.652344 519.867188 1365.722656 531.296875 C 1365.722656 531.296875 1381.414062 560.699219 1409.867188 547.480469 "/><path style=" stroke:none;fill-rule:nonzero;fill:#edc032;fill-opacity:1;" d="M 1384.375 515.960938 C 1384.375 515.960938 1369.023438 475.160156 1337.765625 484.269531 C 1337.765625 484.269531 1349.960938 526.855469 1384.375 515.960938 "/><path style=" stroke:none;fill-rule:nonzero;fill:#edc032;fill-opacity:1;" d="M 1414.773438 881.082031 C 1379.382812 911.703125 1338.386719 878.039062 1338.386719 878.039062 C 1376.898438 843.34375 1414.773438 881.082031 1414.773438 881.082031 "/><path style=" stroke:none;fill-rule:nonzero;fill:#edc032;fill-opacity:1;" d="M 1413.519531 804.730469 C 1382.996094 764.203125 1408.953125 722.199219 1408.953125 722.199219 C 1430.039062 749.003906 1424.632812 780.335938 1419.621094 796.464844 C 1428.628906 783.511719 1436.203125 769.136719 1442.09375 753.679688 C 1408.714844 727.351562 1421.910156 684.347656 1421.910156 684.347656 C 1442.746094 699.261719 1446.898438 723.066406 1447.019531 739.171875 C 1453.503906 717.539062 1456.796875 694.140625 1456.222656 669.753906 C 1455.980469 659.707031 1455.082031 649.847656 1453.597656 640.242188 C 1420.664062 638.949219 1413.710938 601.960938 1413.710938 601.960938 C 1433.070312 601.683594 1444.734375 615.300781 1450.996094 626.367188 C 1441.320312 582.378906 1418.929688 544.425781 1388.839844 518.113281 C 1414.644531 539.644531 1435.195312 569.414062 1447.648438 604.191406 C 1438.492188 575.105469 1456.6875 552.484375 1456.6875 552.484375 C 1476.613281 585.320312 1454.546875 618.972656 1454.546875 618.972656 C 1452.136719 615.128906 1450.285156 611.363281 1448.871094 607.675781 C 1453.019531 619.929688 1456.183594 632.769531 1458.210938 646.074219 C 1463.410156 617.730469 1487.320312 609.183594 1487.320312 609.183594 C 1490.421875 642.304688 1467.980469 659.222656 1460.234375 664.035156 C 1460.519531 667.933594 1460.714844 671.855469 1460.8125 675.8125 C 1463.390625 784.582031 1390.832031 874.363281 1298.484375 877.136719 L 1298.058594 866.679688 C 1343.972656 865.101562 1384.824219 841.527344 1413.519531 804.730469 "/><path style=" stroke:none;fill-rule:nonzero;fill:#edc032;fill-opacity:1;" d="M 1371.28125 751.308594 C 1401.175781 789.300781 1377.835938 836.414062 1377.835938 836.414062 C 1344.171875 795.113281 1371.28125 751.308594 1371.28125 751.308594 "/><path style=" stroke:none;fill-rule:nonzero;fill:#edc032;fill-opacity:1;" d="M 1341.976562 804.40625 C 1368.425781 825.273438 1340.792969 852.066406 1340.792969 852.066406 C 1310.878906 829.414062 1341.976562 804.40625 1341.976562 804.40625 "/><path style=" stroke:none;fill-rule:nonzero;fill:#edc032;fill-opacity:1;" d="M 1426.339844 810.765625 C 1454.113281 763.222656 1496.246094 784.492188 1496.246094 784.492188 C 1470.476562 826.996094 1426.339844 810.765625 1426.339844 810.765625 "/><path style=" stroke:none;fill-rule:nonzero;fill:#edc032;fill-opacity:1;" d="M 1461.882812 842.277344 C 1432.003906 877.253906 1388.027344 849.261719 1388.027344 849.261719 C 1420.363281 809.855469 1461.882812 842.277344 1461.882812 842.277344 "/><g clip-rule="nonzero" clip-path="url(#bd7aaaecbf)"><path style=" stroke:none;fill-rule:nonzero;fill:#edc032;fill-opacity:1;" d="M 1448.429688 765.011719 C 1465.875 720.191406 1504.929688 732.382812 1504.929688 732.382812 C 1488.535156 772.609375 1448.429688 765.011719 1448.429688 765.011719 "/></g><path style=" stroke:none;fill-rule:nonzero;fill:#edc032;fill-opacity:1;" d="M 1459.285156 722.175781 C 1458.527344 672.691406 1498.070312 664.007812 1498.070312 664.007812 C 1498.070312 708.792969 1459.285156 722.175781 1459.285156 722.175781 "/><path style=" stroke:none;fill-rule:nonzero;fill:#edc032;fill-opacity:1;" d="M 1433.929688 511.726562 C 1450.285156 538.671875 1432.175781 566.285156 1432.175781 566.285156 C 1413.660156 536.882812 1433.929688 511.726562 1433.929688 511.726562 "/><path style=" stroke:none;fill-rule:nonzero;fill:#edc032;fill-opacity:1;" d="M 1395.53125 484.121094 C 1417.214844 497.464844 1411.074219 527.992188 1411.074219 527.992188 C 1386.871094 513.769531 1395.53125 484.121094 1395.53125 484.121094 "/><path style=" stroke:none;fill-rule:nonzero;fill:#edc032;fill-opacity:1;" d="M 1455.082031 695.707031 C 1417.585938 683.414062 1420.746094 639.964844 1420.746094 639.964844 C 1454.507812 651.792969 1455.082031 695.707031 1455.082031 695.707031 "/><path style=" stroke:none;fill-rule:nonzero;fill:#edc032;fill-opacity:1;" d="M 1439.160156 592.507812 C 1405.042969 599.582031 1393.277344 562.925781 1393.277344 562.925781 C 1424.265625 557.175781 1439.160156 592.507812 1439.160156 592.507812 "/><path style=" stroke:none;fill-rule:nonzero;fill:#edc032;fill-opacity:1;" d="M 1365.722656 528.625 C 1391.652344 517.195312 1409.867188 544.808594 1409.867188 544.808594 C 1381.414062 558.03125 1365.722656 528.625 1365.722656 528.625 "/><path style=" stroke:none;fill-rule:nonzero;fill:#edc032;fill-opacity:1;" d="M 1337.765625 481.597656 C 1369.023438 472.488281 1384.375 513.292969 1384.375 513.292969 C 1349.960938 524.183594 1337.765625 481.597656 1337.765625 481.597656 "/><path style=" stroke:none;fill-rule:evenodd;fill:#ffffff;fill-opacity:1;" d="M 1001.066406 981.808594 L 1001.066406 932.019531 L 990.242188 932.019531 L 990.242188 981.808594 Z M 984.191406 973.144531 L 984.191406 940.199219 L 973.363281 940.199219 L 973.363281 973.144531 Z M 984.191406 934.238281 L 984.191406 928.71875 L 973.363281 928.71875 L 973.363281 934.238281 Z M 1001.066406 926.058594 L 1001.066406 920.046875 L 990.242188 920.046875 L 990.242188 926.058594 Z M 1215.191406 917.90625 L 1166.003906 917.90625 L 1166.003906 933.164062 C 1172.503906 927.257812 1181.128906 923.65625 1190.597656 923.65625 C 1200.070312 923.65625 1208.703125 927.257812 1215.191406 933.160156 Z M 1190.597656 929.914062 C 1207.335938 929.914062 1220.90625 943.492188 1220.90625 960.230469 C 1220.90625 976.96875 1207.335938 990.542969 1190.597656 990.542969 C 1173.855469 990.542969 1160.285156 976.96875 1160.285156 960.230469 C 1160.285156 943.492188 1173.855469 929.914062 1190.597656 929.914062 Z M 1224.84375 960.230469 C 1224.84375 941.3125 1209.515625 925.984375 1190.597656 925.984375 C 1171.683594 925.984375 1156.351562 941.3125 1156.351562 960.230469 C 1156.351562 979.144531 1171.683594 994.476562 1190.597656 994.476562 C 1209.515625 994.476562 1224.84375 979.144531 1224.84375 960.230469 Z M 1216.097656 960.332031 C 1216.097656 946.257812 1204.6875 934.847656 1190.617188 934.847656 C 1176.539062 934.847656 1165.125 946.257812 1165.125 960.332031 C 1165.125 974.40625 1176.539062 985.816406 1190.617188 985.816406 C 1204.6875 985.816406 1216.097656 974.40625 1216.097656 960.332031 Z M 1186.203125 996.589844 C 1174.398438 995.171875 1164.320312 988.144531 1158.714844 978.246094 L 1138.9375 1012.472656 L 1161.117188 1007.929688 L 1170.203125 1027.539062 Z M 1242.269531 1012.472656 L 1222.484375 978.246094 C 1216.878906 988.144531 1206.800781 995.171875 1194.988281 996.589844 L 1210.996094 1027.539062 L 1220.082031 1007.929688 Z M 1374.4375 985.824219 L 1374.035156 928.957031 L 1223.390625 929.527344 L 1373.996094 923.0625 L 1373.945312 915.921875 L 1218.023438 922.414062 L 1218.023438 936.042969 C 1223.71875 942.488281 1227.171875 950.957031 1227.171875 960.230469 C 1227.171875 965.511719 1226.046875 970.535156 1224.03125 975.066406 L 1227.378906 980.277344 Z M 1390.960938 981.808594 L 1390.960938 932.019531 L 1380.132812 932.019531 L 1380.132812 981.808594 Z M 1390.960938 926.058594 L 1390.960938 920.046875 L 1380.132812 920.046875 L 1380.132812 926.058594 Z M 1407.835938 934.238281 L 1407.835938 928.71875 L 1397.007812 928.71875 L 1397.007812 934.238281 Z M 1407.835938 973.144531 L 1407.835938 940.199219 L 1397.007812 940.199219 L 1397.007812 973.144531 Z M 1154.027344 960.230469 C 1154.027344 950.996094 1157.445312 942.574219 1163.082031 936.132812 L 1163.082031 922.414062 L 1006.269531 915.921875 L 1006.324219 923.042969 L 1157.355469 929.527344 L 1006.359375 928.949219 L 1006.761719 985.824219 L 1153.820312 980.285156 L 1157.167969 975.074219 C 1155.152344 970.535156 1154.027344 965.511719 1154.027344 960.230469 "/><path style=" stroke:none;fill-rule:evenodd;fill:#edc032;fill-opacity:1;" d="M 1190.617188 981.453125 C 1202.277344 981.453125 1211.734375 971.996094 1211.734375 960.332031 C 1211.734375 948.667969 1202.277344 939.210938 1190.617188 939.210938 C 1178.949219 939.210938 1169.492188 948.667969 1169.492188 960.332031 C 1169.492188 971.996094 1178.949219 981.453125 1190.617188 981.453125 "/><path style=" stroke:none;fill-rule:evenodd;fill:#edc032;fill-opacity:1;" d="M 1166.003906 933.164062 C 1172.503906 927.257812 1181.128906 923.65625 1190.597656 923.65625 C 1200.070312 923.65625 1208.703125 927.257812 1215.191406 933.160156 L 1215.191406 917.90625 L 1166.003906 917.90625 L 1166.003906 933.164062 "/><g clip-rule="nonzero" clip-path="url(#8546e68c79)"><path style=" stroke:none;fill-rule:evenodd;fill:#ffffff;fill-opacity:1;" d="M 1186.203125 999.34375 C 1174.398438 997.933594 1164.320312 990.898438 1158.714844 981 L 1139.445312 1014.347656 L 1138.9375 1015.234375 L 1140.144531 1014.988281 L 1161.117188 1010.691406 L 1167.917969 1025.371094 L 1170.203125 1030.296875 L 1186.203125 999.34375 "/></g><g clip-rule="nonzero" clip-path="url(#8571e9370b)"><path style=" stroke:none;fill-rule:evenodd;fill:#ffffff;fill-opacity:1;" d="M 1239.230469 1009.976562 L 1222.484375 981 C 1216.878906 990.898438 1206.800781 997.933594 1194.988281 999.34375 L 1210.679688 1029.683594 L 1210.996094 1030.296875 L 1211.3125 1029.613281 L 1220.082031 1010.691406 L 1242.269531 1015.234375 L 1240.148438 1011.582031 L 1239.230469 1009.976562 "/></g><path style=" stroke:none;fill-rule:evenodd;fill:#edc032;fill-opacity:1;" d="M 1158.714844 978.246094 L 1139.445312 1011.589844 L 1138.9375 1012.472656 L 1140.144531 1012.226562 L 1161.117188 1007.929688 L 1167.917969 1022.613281 L 1170.203125 1027.539062 L 1186.203125 996.589844 C 1174.398438 995.171875 1164.320312 988.144531 1158.714844 978.246094 "/><path style=" stroke:none;fill-rule:evenodd;fill:#edc032;fill-opacity:1;" d="M 1240.148438 1008.820312 L 1239.230469 1007.21875 L 1222.484375 978.246094 C 1216.878906 988.144531 1206.800781 995.171875 1194.988281 996.589844 L 1210.679688 1026.921875 L 1210.996094 1027.539062 L 1211.3125 1026.859375 L 1220.082031 1007.929688 L 1242.269531 1012.472656 L 1240.148438 1008.820312 "/><g style="fill:#ffffff;fill-opacity:1;"><g transform="translate(-29.640704, 1069.401996)"><path style="stroke:none" d="M 620.953125 -803.578125 C 535.722656 -803.578125 470.414062 -777.566406 425.03125 -725.546875 C 379.65625 -673.523438 356.96875 -599.921875 356.96875 -504.734375 C 356.96875 -408.429688 382.144531 -334.269531 432.5 -282.25 C 482.863281 -230.226562 550.660156 -204.21875 635.890625 -204.21875 C 681.273438 -204.21875 719.738281 -210.304688 751.28125 -222.484375 C 782.832031 -234.660156 812.992188 -248.492188 841.765625 -263.984375 C 860.585938 -248.492188 875.253906 -229.953125 885.765625 -208.359375 C 896.285156 -186.773438 901.546875 -161.597656 901.546875 -132.828125 C 901.546875 -87.441406 876.363281 -48.972656 826 -17.421875 C 775.632812 14.117188 698.984375 29.890625 596.046875 29.890625 C 521.890625 29.890625 452.15625 19.375 386.84375 -1.65625 C 321.539062 -22.6875 264.535156 -55.0625 215.828125 -98.78125 C 167.128906 -142.507812 128.664062 -197.851562 100.4375 -264.8125 C 72.21875 -331.78125 58.109375 -411.753906 58.109375 -504.734375 C 58.109375 -591.066406 71.664062 -667.160156 98.78125 -733.015625 C 125.90625 -798.878906 162.988281 -854.5 210.03125 -899.875 C 257.070312 -945.257812 312.132812 -979.570312 375.21875 -1002.8125 C 438.3125 -1026.0625 505.832031 -1037.6875 577.78125 -1037.6875 C 679.613281 -1037.6875 758.476562 -1021.082031 814.375 -987.875 C 870.269531 -954.664062 898.21875 -912.050781 898.21875 -860.03125 C 898.21875 -831.25 891.019531 -806.34375 876.625 -785.3125 C 862.238281 -764.289062 845.640625 -747.691406 826.828125 -735.515625 C 798.046875 -754.328125 767.328125 -770.375 734.671875 -783.65625 C 702.023438 -796.9375 664.117188 -803.578125 620.953125 -803.578125 Z M 620.953125 -803.578125 "/></g></g></g></svg>